<?xml version="1.0" encoding="utf-8"?>
<!-- Generator: Adobe Illustrator 23.0.1, SVG Export Plug-In . SVG Version: 6.00 Build 0)  -->
<svg version="1.1" xmlns="http://www.w3.org/2000/svg" xmlns:xlink="http://www.w3.org/1999/xlink" x="0px" y="0px"
	 viewBox="0 0 1122 1122" style="enable-background:new 0 0 1122 1122;" xml:space="preserve">
<style type="text/css">
	.st0{fill:#416FAB;}
	.st1{fill:#CE1B75;}
	.st2{font-family:'MyriadPro-Regular';}
	.st3{font-size:107.7023px;}
</style>
<g id="BG_1_">
</g>
<g id="Object">
	<text transform="matrix(1 0 0 1 1191.9683 1683.7798)" class="st2" style="font-size:12px;">MedStar Hospital Center</text>
	<text transform="matrix(1 0 0 1 1191.9683 1683.7798)" class="st0 st2" style="font-size:12px;">MedStar Hospital Center</text>
	<g>
		<g>
			<path class="st0" d="M764.21,483.31c-1.75-1.46-4.23-3.15-5.52-5.06c-2.35-3.46-1.52-1.58-0.13-5.12c1.31-3.33,3.08-5.9,3.83-9.6
				c2-9.77,3.23-20.96,2.39-30.84c-0.94-11.06-4.21-21.48-8.05-31.83c-3.39-9.14-6.51-18.96-12.02-27.09
				c-10.43-15.4-27.32-24.91-44.42-31.22c-23.4-8.63-48.05-13.63-72.84-15.88c-25.49-2.31-52.33-1.63-77.85,1.06
				c-11.32,1.19-22.69,4.39-33.42,8.9l0.24,17.49c-3.42,1.96,0,0-6.44,2.74c-5.54,2.36-11.82,5.03-13.95,6.34
				c-11.65,7.17-21.96,17.78-29.82,30.68c-17.12,28.11-17.9,55.53-13.6,90.68c2.2,18.02,8.58,34.9,19.5,51.59
				c4.39,6.71,9.29,13.35,14.03,19.78c5.92,8.02,12.04,16.32,17.45,25.09c9.34,15.14,20.73,38.1,11.72,62.49
				c-6.04,16.37-19.12,31-38.86,43.49c-2.32,2.94-1.57,16.41,1.12,19.48l0.05,0.17c12.77,0.04,25.28,0.08,36.47,0.12h0.85
				c0.05-15.05,0.1-31.38,0.15-48.02c1.6-2.37,3.05-4.75,4.28-7.12c10.08-19.44,7.62-39.98-1.7-59.19
				c-0.75-1.55-1.55-3.07-2.36-4.58c0.01-3.51,0.02-6.98,0.03-10.37c0.01-3.76,0.03-7.51,0.04-11.27c29.2,0.1,58.4,0.2,87.6,0.3
				c17.66,0.06,35.32,0.12,52.99,0.18c0.11-30.94,0.21-61.88,0.32-92.82c-43.11-0.15-86.21-0.29-129.32-0.44
				c-3.76-0.01-7.51-0.03-11.27-0.04c0.1-29.2,0.2-58.4,0.3-87.6c0.04-10.42,0.07-20.85,0.11-31.27
				c14.42-7.96,28.6-13.13,46.39-13.49c24.56-0.49,49.58,0.19,73.99,3.12c22.24,2.67,46.09,7.8,66.48,17.37
				c16.74,7.86,28.01,18.03,34.68,35.42c3.77,9.82,7.79,19.72,9.8,30.08c1.88,9.7,0.82,19.72-0.57,29.44
				c-1.05,7.41-7.6,13.06-6.88,20.65c0.76,7.9,7.71,13.94,13.45,18.65c11.78,9.68,23.83,19.61,31.75,32.93
				c0.63,1.06,1.16,2.35,1.85,3.39c0.13,0.2,0.25,0.77,0.36,1.32c-1.7,0.29-3.3,0.62-5.02,0.77c-7.67,0.68-13.17-4.29-24.64,8.76
				c-6.83,7.78-8.51,44.95-6.43,52.61h0c0.45,4.24,1.21,8.5,1.27,12.52c0.22,13.92-10.49,16.75-22.33,18.38
				c-5.68,0.78-11.49,1.65-17.24,1.49c-5.59-0.15-10.9-1.73-16.42-2.37c-5.88-0.69-12.09-0.59-17.52,2.02
				c-9.85,4.74-12.78,15.22-11.82,25.44c1.79,19.14,12.7,37.12,19.9,53.76h17.73c-7.17-18.18-19.65-35.22-21.25-55.11
				c-0.86-10.65,5.25-10.95,14.81-9.2c10.9,2.01,20.8,1.88,31.83,0.47c10.45-1.34,21.78-2.72,29.78-10.36
				c6.41-6.13,8.99-14.53,9.05-23.24c0.03-4.6-0.66-9.16-1.07-13.73c-0.22-6.37,1.21-39.76,1.36-40.97
				c0.77-6.01,15.74-3.83,20.43-4.86C830.03,540.93,776.39,493.47,764.21,483.31z M788.48,533.13
				C788.9,532.79,789.32,532.89,788.48,533.13L788.48,533.13z"/>
			<path class="st1" d="M468.22,674.35c16.98-10.71,28.06-22.84,32.95-36.07c5.19-14.05,1.98-29.27-10.41-49.34
				c-5.08-8.24-11.02-16.28-16.75-24.05c-4.86-6.59-9.9-13.41-14.52-20.47c-12.21-18.67-19.36-37.64-21.85-58.02
				c-4.68-38.36-3.69-68.53,15.7-100.36c9.09-14.93,21.12-27.26,34.79-35.68c3.09-1.9,9.01-5.71,15.91-8.64
				c5.48-2.33,9.51-3.58,12.14-5.09c0-1.28,0.01-2.56,0.01-3.85c-30.94-0.11-61.88-0.21-92.82-0.32
				c-0.15,43.11-0.29,86.21-0.44,129.32c-0.01,3.76-0.03,7.51-0.04,11.27c-29.2-0.1-58.4-0.2-87.6-0.3l-52.99-0.18h0
				c-0.09,25.14-0.17,50.28-0.26,75.41h-0.03v17.46h15.23c38.02,0.13,76.04,0.26,114.07,0.39c3.76,0.01,7.51,0.03,11.27,0.04
				c-0.1,29.2-0.2,58.4-0.3,87.6l-0.18,52.98l0,0c12.05,0.04,25.64,0.08,39.43,0.12C458.61,695.73,459.1,680.1,468.22,674.35z"/>
		</g>
		<text transform="matrix(1 0 0 1 25.8277 841.5225)"><tspan x="0" y="0" class="st0 st2 st3">Med</tspan><tspan x="201.29" y="0" class="st1 st2 st3">Mix</tspan><tspan x="362.95" y="0" class="st0 st2 st3"> Hospital Center</tspan></text>
	</g>
</g>
</svg>
