<?xml version="1.0" encoding="utf-8"?>
<!-- Generator: Adobe Illustrator 23.0.1, SVG Export Plug-In . SVG Version: 6.00 Build 0)  -->
<svg version="1.1" xmlns="http://www.w3.org/2000/svg" xmlns:xlink="http://www.w3.org/1999/xlink" x="0px" y="0px"
	 viewBox="0 0 1122 1122" style="enable-background:new 0 0 1122 1122;" xml:space="preserve">
<style type="text/css">
	.st0{fill:#416FAB;}
	.st1{fill:#CE1B75;}
	.st2{font-family:'MyriadPro-Regular';}
	.st3{font-size:137.9545px;}
</style>
<g id="BG_1_">
</g>
<g id="Object">
	<text transform="matrix(1 0 0 1 1191.9683 1683.7798)" class="st2" style="font-size:12px;">MedStar Hospital Center</text>
	<text transform="matrix(1 0 0 1 1191.9683 1683.7798)" class="st0 st2" style="font-size:12px;">MedStar Hospital Center</text>
	<g>
		<g>
			<path class="st0" d="M843.99,407.19c-2.24-1.87-5.42-4.04-7.07-6.48c-3.01-4.43-1.95-2.03-0.16-6.56
				c1.68-4.26,3.94-7.56,4.91-12.29c2.56-12.52,4.13-26.85,3.06-39.5c-1.2-14.17-5.39-27.52-10.31-40.77
				c-4.34-11.71-8.34-24.28-15.39-34.7c-13.36-19.73-35-31.91-56.9-39.98c-29.97-11.05-61.54-17.46-93.3-20.35
				c-32.65-2.96-67.03-2.09-99.71,1.36c-14.51,1.53-29.06,5.62-42.81,11.4l0.31,22.41c-4.38,2.52,0,0-8.25,3.51
				c-7.1,3.02-15.14,6.44-17.87,8.12c-14.92,9.18-28.13,22.77-38.19,39.29c-21.93,36-22.93,71.13-17.43,116.15
				c2.82,23.09,10.99,44.7,24.98,66.08c5.62,8.59,11.9,17.1,17.97,25.33c7.58,10.28,15.42,20.9,22.36,32.14
				c11.97,19.4,26.55,48.8,15.01,80.04c-7.74,20.96-24.49,39.7-49.78,55.7c-2.97,3.76-2.01,21.02,1.44,24.95l0.06,0.22
				c16.36,0.05,32.39,0.1,46.72,0.15h1.09c0.07-19.28,0.13-40.19,0.2-61.51c2.05-3.03,3.9-6.09,5.48-9.13
				c12.91-24.9,9.77-51.21-2.17-75.82c-0.96-1.98-1.98-3.93-3.02-5.87c0.01-4.49,0.03-8.94,0.04-13.29
				c0.02-4.81,0.03-9.62,0.05-14.43c37.4,0.13,74.81,0.26,112.21,0.38c22.62,0.08,45.25,0.16,67.87,0.23
				c0.14-39.63,0.27-79.26,0.41-118.9c-55.22-0.19-110.43-0.38-165.65-0.57c-4.81-0.02-9.62-0.03-14.43-0.05
				c0.13-37.4,0.26-74.81,0.38-112.21c0.05-13.35,0.09-26.7,0.14-40.06c18.48-10.2,36.63-16.82,59.42-17.28
				c31.46-0.63,63.51,0.24,94.77,3.99c28.49,3.42,59.04,9.99,85.16,22.25c21.44,10.06,35.88,23.1,44.42,45.37
				c4.82,12.57,9.97,25.26,12.55,38.53c2.41,12.43,1.05,25.26-0.72,37.71c-1.35,9.5-9.74,16.73-8.81,26.44
				c0.97,10.12,9.88,17.85,17.23,23.89c15.09,12.4,30.53,25.12,40.66,42.18c0.81,1.36,1.49,3.02,2.37,4.34
				c0.17,0.26,0.32,0.99,0.46,1.69c-2.18,0.38-4.22,0.79-6.43,0.99c-9.83,0.87-16.87-5.5-31.56,11.22
				c-8.75,9.96-10.9,57.58-8.23,67.39h0c0.58,5.43,1.55,10.89,1.63,16.04c0.28,17.83-13.43,21.45-28.6,23.54
				c-7.28,1-14.72,2.11-22.09,1.91c-7.16-0.2-13.96-2.21-21.04-3.04c-7.53-0.88-15.48-0.76-22.45,2.59
				c-12.62,6.07-16.37,19.5-15.14,32.59c2.3,24.51,16.27,47.54,25.49,68.86h22.71c-9.18-23.28-25.17-45.11-27.22-70.59
				c-1.1-13.64,6.73-14.03,18.96-11.78c13.96,2.57,26.65,2.41,40.77,0.6c13.39-1.72,27.9-3.48,38.14-13.28
				c8.21-7.85,11.52-18.62,11.6-29.77c0.04-5.89-0.85-11.73-1.37-17.59c-0.28-8.15,1.55-50.93,1.75-52.48
				c0.98-7.69,20.16-4.91,26.17-6.23C928.29,480.99,859.58,420.2,843.99,407.19z M875.07,471.01
				C875.61,470.57,876.15,470.7,875.07,471.01L875.07,471.01z"/>
			<path class="st1" d="M464.86,651.89c21.75-13.71,35.95-29.26,42.21-46.21c6.65-18,2.54-37.49-13.33-63.2
				c-6.51-10.55-14.11-20.85-21.46-30.81c-6.23-8.45-12.68-17.18-18.59-26.22c-15.65-23.91-24.8-48.22-27.99-74.31
				c-6-49.13-4.73-87.77,20.11-128.55c11.64-19.12,27.06-34.92,44.57-45.7c3.96-2.44,11.54-7.31,20.38-11.07
				c7.02-2.99,12.18-4.58,15.55-6.52c0.01-1.64,0.01-3.28,0.02-4.93c-39.63-0.14-79.26-0.27-118.9-0.41
				c-0.19,55.22-0.38,110.43-0.57,165.65c-0.02,4.81-0.03,9.62-0.05,14.43c-37.4-0.13-74.81-0.26-112.21-0.38l-67.87-0.23h0
				c-0.11,32.2-0.22,64.4-0.33,96.6h-0.04v22.37h19.5c48.7,0.17,97.4,0.33,146.11,0.5c4.81,0.02,9.62,0.03,14.43,0.05
				c-0.13,37.4-0.26,74.81-0.38,112.21l-0.23,67.87l0,0c15.44,0.05,32.84,0.11,50.51,0.16
				C452.55,679.28,453.17,659.26,464.86,651.89z"/>
		</g>
		<text transform="matrix(1 0 0 1 90.9887 866.0216)"><tspan x="0" y="0" class="st0 st2 st3">Med</tspan><tspan x="257.83" y="0" class="st1 st2 st3">Mix</tspan><tspan x="464.9" y="0" class="st0 st2 st3"> Hospital </tspan></text>
	</g>
</g>
</svg>
