<?xml version="1.0" encoding="utf-8"?>
<!-- Generator: Adobe Illustrator 23.0.1, SVG Export Plug-In . SVG Version: 6.00 Build 0)  -->
<svg version="1.1" xmlns="http://www.w3.org/2000/svg" xmlns:xlink="http://www.w3.org/1999/xlink" x="0px" y="0px"
	 viewBox="0 0 1122 1122" style="enable-background:new 0 0 1122 1122;" xml:space="preserve">
<style type="text/css">
	.st0{fill:#416FAB;}
	.st1{fill:#CE1B75;}
	.st2{font-family:'MyriadPro-Regular';}
	.st3{font-size:72px;}
</style>
<g id="BG_1_">
</g>
<g id="Object">
	<g>
		<path class="st0" d="M708.7,433.51c-1.17-0.98-2.83-2.11-3.69-3.38c-1.57-2.31-1.02-1.06-0.08-3.42c0.88-2.22,2.06-3.95,2.56-6.42
			c1.34-6.53,2.16-14.01,1.6-20.62c-0.63-7.39-2.81-14.36-5.38-21.28c-2.27-6.11-4.35-12.67-8.03-18.11
			c-6.97-10.3-18.27-16.65-29.7-20.87c-15.64-5.77-32.12-9.11-48.69-10.62c-17.04-1.55-34.98-1.09-52.04,0.71
			c-7.57,0.8-15.17,2.94-22.34,5.95l0.16,11.69c-2.28,1.31,0,0-4.31,1.83c-3.7,1.58-7.9,3.36-9.33,4.24
			c-7.79,4.79-14.68,11.88-19.93,20.51c-11.44,18.79-11.97,37.13-9.09,60.62c1.47,12.05,5.74,23.33,13.04,34.49
			c2.93,4.48,6.21,8.92,9.38,13.22c3.96,5.36,8.05,10.91,11.67,16.77c6.25,10.12,13.86,25.47,7.83,41.77
			c-4.04,10.94-12.78,20.72-25.98,29.07c-1.55,1.96-1.05,10.97,0.75,13.02l0.03,0.11c8.54,0.03,16.9,0.05,24.38,0.08h0.57
			c0.03-10.06,0.07-20.98,0.1-32.1c1.07-1.58,2.04-3.18,2.86-4.76c6.74-13,5.1-26.73-1.13-39.57c-0.5-1.04-1.03-2.05-1.58-3.06
			c0.01-2.35,0.02-4.67,0.02-6.93c0.01-2.51,0.02-5.02,0.03-7.53c19.52,0.07,39.04,0.13,58.56,0.2c11.81,0.04,23.61,0.08,35.42,0.12
			c0.07-20.68,0.14-41.37,0.21-62.05c-28.82-0.1-57.64-0.2-86.45-0.3c-2.51-0.01-5.02-0.02-7.53-0.03
			c0.07-19.52,0.13-39.04,0.2-58.56c0.02-6.97,0.05-13.94,0.07-20.91c9.64-5.32,19.12-8.78,31.01-9.02
			c16.42-0.33,33.15,0.13,49.46,2.08c14.87,1.78,30.81,5.22,44.45,11.61c11.19,5.25,18.73,12.06,23.19,23.68
			c2.52,6.56,5.21,13.18,6.55,20.11c1.26,6.49,0.55,13.19-0.38,19.68c-0.71,4.96-5.08,8.73-4.6,13.8c0.51,5.28,5.16,9.32,8.99,12.47
			c7.88,6.47,15.93,13.11,21.22,22.01c0.42,0.71,0.78,1.57,1.24,2.27c0.09,0.13,0.17,0.52,0.24,0.88c-1.14,0.2-2.2,0.41-3.36,0.52
			c-5.13,0.45-8.81-2.87-16.47,5.86c-4.57,5.2-5.69,30.05-4.3,35.17h0c0.3,2.84,0.81,5.68,0.85,8.37
			c0.15,9.31-7.01,11.2-14.92,12.29c-3.8,0.52-7.68,1.1-11.53,1c-3.74-0.1-7.29-1.15-10.98-1.59c-3.93-0.46-8.08-0.4-11.71,1.35
			c-6.59,3.17-8.54,10.18-7.9,17.01c1.2,12.79,8.49,24.81,13.31,35.94h11.85c-4.79-12.15-13.14-23.55-14.21-36.84
			c-0.57-7.12,3.51-7.32,9.9-6.15c7.29,1.34,13.91,1.26,21.28,0.31c6.99-0.9,14.56-1.82,19.91-6.93c4.28-4.1,6.01-9.72,6.05-15.54
			c0.02-3.08-0.44-6.12-0.71-9.18c-0.15-4.26,0.81-26.58,0.91-27.39c0.51-4.01,10.52-2.56,13.66-3.25
			C752.69,472.03,716.83,440.3,708.7,433.51z M724.91,466.82C725.2,466.59,725.48,466.66,724.91,466.82L724.91,466.82z"/>
		<path class="st1" d="M510.82,561.22c11.35-7.16,18.76-15.27,22.03-24.12c3.47-9.39,1.32-19.57-6.96-32.99
			c-3.4-5.51-7.36-10.88-11.2-16.08c-3.25-4.41-6.62-8.97-9.7-13.69c-8.17-12.48-12.94-25.17-14.61-38.78
			c-3.13-25.64-2.47-45.81,10.49-67.09c6.08-9.98,14.12-18.23,23.26-23.85c2.07-1.27,6.02-3.81,10.64-5.78
			c3.66-1.56,6.36-2.39,8.12-3.4c0-0.86,0.01-1.71,0.01-2.57c-20.68-0.07-41.37-0.14-62.05-0.21c-0.1,28.82-0.2,57.64-0.3,86.45
			c-0.01,2.51-0.02,5.02-0.03,7.53c-19.52-0.07-39.04-0.13-58.56-0.2l-35.42-0.12h0c-0.06,16.8-0.11,33.61-0.17,50.41h-0.02v11.67
			h10.18c25.42,0.09,50.84,0.17,76.25,0.26c2.51,0.01,5.02,0.02,7.53,0.03c-0.07,19.52-0.13,39.04-0.2,58.56l-0.12,35.42l0,0
			c8.06,0.03,17.14,0.05,26.36,0.08C504.4,575.52,504.72,565.07,510.82,561.22z"/>
	</g>
	<text transform="matrix(1 0 0 1 1191.9683 1683.7798)" class="st2" style="font-size:12px;">MedStar Hospital Center</text>
	<text transform="matrix(1 0 0 1 1191.9683 1683.7798)" class="st0 st2" style="font-size:12px;">MedStar Hospital Center</text>
	<text transform="matrix(1 0 0 1 215.0764 672.9794)"><tspan x="0" y="0" class="st0 st2 st3">Med</tspan><tspan x="134.57" y="0" class="st1 st2 st3">Mix</tspan><tspan x="242.64" y="0" class="st0 st2 st3"> Hospital Center</tspan></text>
</g>
</svg>
