<svg version="1.2" xmlns="http://www.w3.org/2000/svg" viewBox="0 0 1500 1000" width="750" height="500">
	<title>2995664-ai</title>
	<style>
		.s0 { fill: #dbf6ff } 
		.s1 { fill: #bcdfeb } 
		.s2 { fill: #fafafa } 
		.s3 { fill: #d9d9d9 } 
		.s4 { fill: #b0b0b0 } 
		.s5 { fill: none;stroke: #52bfde;stroke-width: 5.1;stroke-dasharray: 15 } 
		.s6 { fill: #429c9b } 
		.s7 { fill: none;stroke: #57babd;stroke-width: 4 } 
		.s8 { fill: none;stroke: #57babd;stroke-width: 3.2 } 
		.s9 { fill: none;stroke: #61a9b8;stroke-width: 5.1 } 
		.s10 { fill: #61a9b8 } 
		.s11 { fill: none;stroke: #85cce0;stroke-width: 5.1 } 
		.s12 { fill: none;stroke: #85cce0;stroke-width: 3.8 } 
		.s13 { fill: #101439 } 
		.s14 { fill: #1c2363 } 
		.s15 { fill: #dce8f4 } 
		.s16 { fill: #a6afb8 } 
		.s17 { fill: #fc6047 } 
		.s18 { fill: #b7fc47 } 
		.s19 { fill: #c3ced9 } 
		.s20 { fill: #a7b1ba } 
		.s21 { fill: #e0edfa } 
		.s22 { fill: #cedae6 } 
		.s23 { fill: #ffffff } 
		.s24 { fill: #ee8f23 } 
		.s25 { fill: #dbdbdb } 
		.s26 { fill: #ffac42 } 
		.s27 { fill: #ffbe6e } 
		.s28 { fill: #fc6d5f } 
		.s29 { fill: none;stroke: #fafafa;stroke-linejoin: round;stroke-width: 7.6 } 
	</style>
	<g id="BACKGROUND">
	</g>
	<g id="OBJECTS">
		<g id="&lt;Group&gt;">
			<g id="&lt;Group&gt;">
				<g id="&lt;Group&gt;">
					<g id="&lt;Group&gt;">
						<path id="&lt;Path&gt;" class="s0" d="m1042.8 73.9c21.7-6.9 45-8.3 67.8-7 32.9 1.9 67 10.1 91.1 32.4 15.2 14.1 25.3 32.7 37.5 49.4 35.5 48.5 90.3 83.2 114.2 138.4 20.4 47.1 12.7 106.3-22.4 143.7-35.2 37.5-97.2 48.1-140.7 20.9-41.9-26.2-60.3-78.2-98.5-109.3-27.3-22.3-62.6-32.3-92.3-51.3-30.3-19.5-55-50.1-60.6-85.7-4.6-29.6 6-61.7 29.1-81.2 22.5-19 46.3-41.1 74.8-50.3z"/>
						<path id="&lt;Path&gt;" class="s1" d="m1232.3 436.1c-37.7 6-74.6-3.7-112.3-10.7-36.2-6.7-72.2-19.2-100.9-42.8-13.2-10.9-24.9-24.3-30-40.6-7.4-23.1-0.7-48.1-0.7-72.5-0.1-28.5-7.2-56-27-77-12.1-12.8-26.1-24.1-35.6-38.9-19.7-30.9-4.4-72.3 26.5-89.8 28.1-15.9 63.9-9.6 93.1 4.2 29.2 13.8 54.9 34.4 84.2 47.9 32.2 14.8 67.3 20.7 102.8 24 27.1 2.6 54.8-0.6 76.9 15.3 15.8 11.4 27 28.5 33.5 46.8 12.3 34.8 9.9 75.7 4.2 111.6-3.8 24-11.4 47.9-25.4 67.8-17.1 24.5-43.3 42.2-71.9 50.7-5.9 1.7-11.7 3-17.4 4z"/>
						<path id="&lt;Path&gt;" class="s0" d="m1172.9 899.2h-877.1c-66.3-50.6-112.3-122.7-124.7-205-5.2-34.3-2.2-74.9 25.7-95.4 42.9-31.5 107.4 8.2 155.9-13.8 31.2-14.2 46.6-51.1 46.9-85.4 0.4-34.3-11.2-67.5-19.9-100.7-8.7-33.2-14.4-69-2.7-101.3 11.7-32.2 46.3-58.4 79.5-49.9 28.5 7.4 46.6 36.2 73.9 47.2 28.4 11.4 61.3 1 86.6-16.3 25.2-17.4 45.2-41.2 68.8-60.7 41.4-34.3 96-55.3 149.2-47.3 53.1 8 102.3 49.2 110.6 102.3 6.8 43.4-11.5 93.6 15.1 128.6 30.1 39.5 92.8 28.4 136.2 52.3 35.4 19.5 54.2 64.8 43.2 103.6-11.2 39.6-49.4 72.9-43.2 113.6 4.5 29.2 30.4 49.4 48.6 72.6 35 44.7 50.9 103.9 27.4 155.6z"/>
						<path id="&lt;Path&gt;" class="s1" d="m1131.7 899.2h-751.5c-22.8-20.8-48.5-40-61.4-68.1-13-28-13-64.5 8.4-86.9 25.7-27 68.8-23.3 105-32.2 41.8-10.3 79.8-43.9 85.2-86.6 6.9-55.1-39.3-105.5-36.4-161 2.2-43.7 39.4-83 82.9-87.8 29.4-3.2 60 7.6 88.4-0.6 26.4-7.7 45.4-30.1 68.3-45.2 26.9-17.7 61.2-25.4 92.2-16.6 31 8.8 57.2 35.6 61.3 67.5 4.5 34-14 72.6 5.6 100.7 14.6 20.9 43.7 25 69.2 24.1 25.5-0.8 52.7-4.2 75.1 8 20.9 11.3 33.3 34.8 35.6 58.4 2.3 23.6-4.3 47.3-14 69-8.5 18.9-19.4 36.8-25.8 56.5-6.4 19.7-7.7 42.4 2.7 60.3 10.9 18.9 32.2 28.7 49.5 41.9 30.7 23.5 57.4 60.1 59.7 98.6z"/>
						<g id="&lt;Group&gt;">
							<path id="&lt;Path&gt;" class="s2" d="m1204.7 227.1l-92.5 52.2-43.4-110.4z"/>
							<path id="&lt;Path&gt;" class="s3" d="m1177.3 242.5l-23.2 13.1-85.3-86.7z"/>
							<path id="&lt;Path&gt;" class="s3" d="m1177.3 242.5l-16.1 40-7.1-26.9z"/>
							<path id="&lt;Path&gt;" class="s4" d="m1161.2 282.5l-20-19.6 12.9-7.3z"/>
						</g>
						<path id="&lt;Path&gt;" class="s5" d="m501.1 865c-97.9-25.8-183.3-95.7-227.9-186.5-18.4-37.5-30.2-79.1-27.5-120.8 2.8-41.7 21.5-83.3 54.9-108.3 33.5-25 82.2-30.4 117.6-8.2 34.2 21.4 50.5 62.5 80.1 89.9 35.4 32.8 91.6 42.4 134.3 19.9 42.7-22.5 66.7-77.1 51.1-122.7-14.4-42.3-55.2-68.5-90.6-95.7-35.4-27.2-70.6-65.4-65.5-109.8 4.4-38.1 37.9-66.8 73.3-81.6 67.7-28.5 155-15.8 201.1 41.3 49.7 61.5 40.1 151.2 17.8 227-22.4 75.7-55.4 152.5-44.3 230.7 9.3 65 49.6 123.4 103 161.6 53.5 38.1 119.1 57 184.6 61 65.4 4 135.6-8.2 184-52.3 48.4-44.2 64.7-126.7 21.9-176.3-22.1-25.7-55.2-38.7-87-50.5-31.8-11.8-64.9-24.2-88-49-23-24.9-31.9-66.5-10.3-92.6 25.1-30.2 92-33.5 115.6-64.9 16.9-22.3-2.8-65.4-22-86.6"/>
						<g id="&lt;Group&gt;">
							<path id="&lt;Path&gt;" class="s6" d="m446.6 749.2c-42.3-27.8-80-62.5-111.1-102.4-13.1-16.7-25.1-34.5-33-54.2-7.9-19.7-11.6-41.4-7.7-62.3 2.8-14.9 10.9-30.5 25.4-35.3 11.3-3.7 24 0.2 33.4 7.4 9.4 7.3 16 17.6 21.8 27.9 22.5 40 36.3 84.1 53 126.8 8 20.5 16.7 40.8 27.3 60.1 5.2 9.6 11 18.9 17.3 27.9 5.7 8.1 16.1 16.8 19.7 25.6-8.3 6.5-38.4-16.5-46.1-21.5z"/>
							<path id="&lt;Path&gt;" class="s7" d="m327.5 517.7c20.7 87.6 69.3 168.5 137 227.9"/>
						</g>
						<g id="&lt;Group&gt;">
							<path id="&lt;Path&gt;" class="s6" d="m971 761.9c3.7-6.6 12.8-12.4 18.2-18.2 5.9-6.5 11.4-13.3 16.5-20.3 10.4-14.2 19.4-29.4 27.8-44.8 17.6-32.1 33.1-65.5 55-94.8 5.6-7.6 11.9-15.1 20.1-19.9 8.2-4.7 18.7-6.5 27.2-2.4 10.9 5.3 15.8 18.4 16.4 30.5 1 16.9-4.2 33.8-12.5 48.5-8.2 14.8-19.6 27.6-31.6 39.5-28.7 28.4-62.2 52-98.5 69.6-6.6 3.2-32.8 18.3-38.6 12.3z"/>
							<path id="&lt;Path&gt;" class="s8" d="m1127.6 578.7c-25.3 67.2-72.1 126.2-131.7 166.2"/>
						</g>
						<g id="&lt;Group&gt;">
							<path id="&lt;Path&gt;" class="s9" d="m464.9 691.8c22.7-112.1-1.5-233.1-65.7-327.8"/>
							<path id="&lt;Path&gt;" class="s10" d="m405.9 375.1c-18.3-6-34.3-18.7-44.3-35.2-10-16.5-13.8-36.7-10.6-55.7 19.4 5.2 37.7 17.3 48.1 34.6 10.3 17.2 11.4 36.7 6.8 56.3z"/>
							<g id="&lt;Group&gt;">
								<g id="&lt;Group&gt;">
									<path id="&lt;Path&gt;" class="s10" d="m426.4 411.4c-4.2-14.3-3.1-30 3-43.6 6.2-13.6 17.3-24.8 30.8-31.1 5.2 14.7 5.5 31.6-1 45.7-6.4 14.2-18.3 23.3-32.8 29z"/>
									<path id="&lt;Path&gt;" class="s10" d="m387.6 427.8c-15.6-0.1-30.8-7.5-41.9-18.3 11.3-9.6 26.2-15 41.1-14.9 14.9 0.1 29.7 5.7 40.9 15.5-11.2 10.7-24.6 17.7-40.1 17.7z"/>
								</g>
								<g id="&lt;Group&gt;">
									<path id="&lt;Path&gt;" class="s10" d="m449.5 469c-1.7-14.8 2.2-30.1 10.6-42.4 8.4-12.3 21.3-21.4 35.7-25.2 2.6 15.3-0.1 32-8.9 44.8-8.8 12.8-22.2 19.8-37.4 22.8z"/>
									<path id="&lt;Path&gt;" class="s10" d="m408.4 478.3c-15.3-2.7-29-12.6-38-25.2 12.8-7.5 28.4-10.3 43-7.6 14.7 2.7 28.3 10.8 37.6 22.4-12.9 8.7-27.3 13.2-42.6 10.4z"/>
								</g>
								<g id="&lt;Group&gt;">
									<path id="&lt;Path&gt;" class="s10" d="m464.8 526.6c-0.4-14.8 4.8-29.8 14.2-41.3 9.5-11.5 23.1-19.5 37.8-22 1.2 15.5-2.9 31.9-12.8 43.9-9.9 11.9-23.8 17.7-39.2 19.4z"/>
									<path id="&lt;Path&gt;" class="s10" d="m423.1 532.4c-15-4.1-27.8-15.2-35.8-28.5 13.5-6.4 29.3-7.8 43.6-3.8 14.4 4 27.2 13.2 35.5 25.6-13.6 7.5-28.3 10.7-43.3 6.7z"/>
								</g>
								<g id="&lt;Group&gt;">
									<path id="&lt;Path&gt;" class="s10" d="m473.6 590.1c2-14.8 9.4-28.8 20.5-38.7 11.1-9.9 25.9-15.6 40.8-15.9-1.2 15.5-7.8 31.1-19.5 41.4-11.6 10.3-26.2 13.8-41.8 13.2z"/>
									<path id="&lt;Path&gt;" class="s10" d="m431.5 589.2c-14.1-6.3-25.1-19.3-30.8-33.7 14.2-4.2 30-3.1 43.6 3.1 13.6 6.1 24.8 17.2 31.1 30.7-14.7 5.3-29.7 6.3-43.9-0.1z"/>
								</g>
							</g>
						</g>
						<g id="&lt;Group&gt;">
							<path id="&lt;Path&gt;" class="s9" d="m994.4 730.5c-24.6-111.8-2.4-233.1 60.2-328.9"/>
							<path id="&lt;Path&gt;" class="s10" d="m1054 356.4c10.1-17.4 28.1-29.8 47.5-35.4 3.5 19 0 39.2-9.7 55.9-9.7 16.6-25.5 29.6-43.7 35.9-4.9-19.5-4.2-39 5.9-56.4z"/>
							<g id="&lt;Group&gt;">
								<g id="&lt;Group&gt;">
									<path id="&lt;Path&gt;" class="s10" d="m994.9 421c-6.7-14-6.7-30.9-1.7-45.6 13.6 6 24.9 17 31.3 30.5 6.3 13.5 7.7 29.2 3.7 43.6-14.5-5.5-26.6-14.4-33.3-28.5z"/>
									<path id="&lt;Path&gt;" class="s10" d="m1026.9 448.2c11.1-10 25.8-15.9 40.6-16.2 14.9-0.4 29.9 4.8 41.4 14.2-11 11-26.1 18.6-41.6 19-15.6 0.3-29-6.5-40.4-17z"/>
								</g>
								<g id="&lt;Group&gt;">
									<path id="&lt;Path&gt;" class="s10" d="m968.3 485.3c-9-12.7-11.9-29.3-9.6-44.7 14.4 3.6 27.5 12.5 36.1 24.6 8.6 12.2 12.7 27.4 11.3 42.3-15.3-2.9-28.7-9.6-37.8-22.2z"/>
									<path id="&lt;Path&gt;" class="s10" d="m1004.6 506.4c9.1-11.8 22.6-20.1 37.2-23 14.5-3 30.2-0.5 43.2 6.8-8.9 12.8-22.5 22.9-37.7 25.9-15.3 3-29.7-1.3-42.7-9.7z"/>
								</g>
								<g id="&lt;Group&gt;">
									<path id="&lt;Path&gt;" class="s10" d="m952.2 546.5c-10.1-11.8-14.5-28.2-13.5-43.7 14.7 2.3 28.5 10.1 38.1 21.4 9.7 11.4 15.1 26.2 15 41.1-15.5-1.4-29.5-7-39.6-18.8z"/>
									<path id="&lt;Path&gt;" class="s10" d="m990.2 564.4c8-12.5 20.7-22 35-26.2 14.3-4.2 30.1-3.1 43.6 3.1-7.7 13.4-20.3 24.7-35.2 29-15 4.4-29.7 1.3-43.4-5.9z"/>
								</g>
								<g id="&lt;Group&gt;">
									<path id="&lt;Path&gt;" class="s10" d="m942 616.4c-11.8-10.1-18.7-25.5-20.2-41 14.9 0 29.8 5.5 41 15.2 11.3 9.7 19 23.6 21.2 38.3-15.5 0.9-30.2-2.4-42-12.5z"/>
									<path id="&lt;Path&gt;" class="s10" d="m982.2 628.2c6.1-13.6 17.1-24.9 30.6-31.3 13.4-6.4 29.2-7.7 43.6-3.8-5.6 14.6-16.3 27.6-30.4 34.2-14 6.6-29.1 5.9-43.8 0.9z"/>
								</g>
							</g>
						</g>
						<g id="&lt;Group&gt;">
							<path id="&lt;Path&gt;" class="s10" d="m481.9 793.4c11.4 18.8 19.6 39.2 22.6 61.1 1 7 1.4 14.2-0.8 20.9-2.1 6.7-7.9 17.8-14.8 19.1-41.7 8-85.2 5.6-126.1-6-9.8-20.3-21.5-38.5-32.3-59.1-9.2 11.9-13 26-16.7 40.1-18.3-9.2-35.5-20.4-51.2-33.4-8.9-7.5-17.3-15.5-25.1-24.1 1.9-23 2-46.9 4.6-69.6-14.9 6.1-26.5 16.2-38.9 23.4-14.9-25.2-25.9-52.9-32.3-81.5 5.8-12.1 10.3-25.1 15.2-37-7.5 1.1-12.9 7-19.9 9.2-1.3-10.8-1.9-21.6-1.8-32.5 26.8 1.8 53.6 6.2 79.8 12.9 1.6 12.8 2.8 25.4 2.6 37.4 8.8-9 14.4-20.1 20.9-30.7 28.3 9 55.8 20.7 81.9 34.9-1.7 15.5-2.8 29.7-4.9 46q17.6-14 35.3-28.1c12.8 8.3 25.2 17.1 37.1 26.6 18.2 14.5 35.5 31 50 49.3-5.4 11.6-13.7 22.1-19.9 33.4 10.1-6 22.5-9.4 34.7-12.3z"/>
							<path id="&lt;Path&gt;" class="s11" d="m458.9 873.3c-96-56.5-183.9-127-259.8-208.5"/>
						</g>
						<g id="&lt;Group&gt;">
							<path id="&lt;Path&gt;" class="s10" d="m1014.8 828.3c-5.8-7.7-13.1-14.6-18.3-22.7 8.8-15.2 19.9-29.3 31.9-42 7.8-8.4 16.1-16.3 24.8-23.8q14.6 8.6 29.3 17.1c-3.3-11.9-5.7-22.3-8.6-33.7 17.9-13.3 37.1-25 57.2-34.7 6 7.2 11.3 14.9 18.8 20.7-1.3-9-1.8-18.5-2-28.2 18.8-7.8 38.2-13.9 58-18.1 1.2 8.1 1.9 16.2 2.1 24.3-5.4-0.8-10.1-4.6-15.7-4.6 4.9 8.3 9.6 17.5 15.2 25.9-1.7 22-6.9 43.7-15.3 64.1-10-4.1-19.7-10.3-31.5-13.3 4.4 16.7 7 34.4 10.9 51.3-4.9 7.2-10.3 14.1-16.1 20.6-10.3 11.4-22 21.6-34.6 30.4-4.2-10.2-8.6-20.2-16.7-28.1-5.8 16.5-12.6 31.3-17.7 47.5-29.2 12.9-61.3 19.4-93.2 17.9-5.3-0.3-10.8-7.9-13.1-12.6-2.3-4.8-2.8-10.2-2.8-15.5-0.1-16.7 3.8-32.7 10.3-47.9 9.4 0.8 19 2.1 27.1 5.4z"/>
							<path id="&lt;Path&gt;" class="s12" d="m1013.3 879.8c65.5-52.3 123.3-114.1 171.2-182.9"/>
						</g>
						<g id="&lt;Group&gt;">
							<g id="&lt;Group&gt;">
								<rect id="&lt;Path&gt;" class="s13" x="427.5" y="498.5" width="600.5" height="400.7" rx="21.6"></rect>
								<circle id="&lt;Path&gt;" class="s14" cx="1002.7" cy="698.8" r="18.3"/>
								<path id="&lt;Path&gt;" class="s14" d="m440.3 766.6c-3.2 0-5.8-2.6-5.8-5.8v-123.9c0-3.2 2.6-5.8 5.8-5.8 3.2 0 5.8 2.6 5.8 5.8v123.9c0 3.2-2.6 5.8-5.8 5.8z"/>
								<g id="&lt;Group&gt;">
									<path id="&lt;Path&gt;" class="s15" d="m977.4 513.3v371.1h-523.1v-371.1z"/>
									<g id="&lt;Group&gt;">
										<path id="&lt;Path&gt;" class="s16" d="m977.4 538.2h-523.1v-24.9h523.1z"/>
										<g id="&lt;Group&gt;">
											<path id="&lt;Path&gt;" class="s17" d="m469.5 535.2h-6.6v-8.4h6.6z"/>
											<path id="&lt;Path&gt;" class="s17" d="m478.1 535.2h-6.6v-14.3h6.6z"/>
											<path id="&lt;Path&gt;" class="s17" d="m487.2 535.2h-6.6v-18.3h6.6z"/>
										</g>
										<g id="&lt;Group&gt;">
											<path id="&lt;Path&gt;" class="s15" d="m937.6 516.6h27.2c1 0 1.8 0.8 1.8 1.8v14.7c0 1-0.8 1.8-1.8 1.8h-27.2c-1 0-1.8-0.8-1.8-1.8v-1.2c0-0.9-0.8-1.7-1.7-1.7h-2c-0.9 0-1.7-0.8-1.7-1.8v-5.3c0-1 0.8-1.8 1.7-1.8h2c0.9 0 1.7-0.7 1.7-1.7v-1.2c0-1 0.8-1.8 1.8-1.8z"/>
											<rect id="&lt;Path&gt;" class="s18" x="959.4" y="517.5" width="6.2" height="16.4" rx=".6"></rect>
											<rect id="&lt;Path&gt;" class="s18" x="951.9" y="517.5" width="6.2" height="16.4" rx=".6"></rect>
											<rect id="&lt;Path&gt;" class="s18" x="944.3" y="517.5" width="6.2" height="16.4" rx=".6"></rect>
										</g>
										<circle id="&lt;Path&gt;" class="s15" cx="915.1" cy="525.8" r="7"/>
									</g>
								</g>
								<path id="&lt;Path&gt;" class="s19" d="m944.3 855.8h-456.9v-289.6h456.9z"/>
								<path id="&lt;Path&gt;" class="s20" d="m944.3 591.2h-456.9v-25h456.9z"/>
								<g id="&lt;Group&gt;">
									<path id="&lt;Path&gt;" class="s21" d="m935.1 616h-299.2v-11.9h299.2z"/>
									<path id="&lt;Path&gt;" class="s21" d="m801 638.6h-165.1v-11.8h165.1z"/>
									<path id="&lt;Path&gt;" class="s21" d="m724.7 661.2h-88.8v-11.8h88.8z"/>
								</g>
								<g id="&lt;Group&gt;">
									<path id="&lt;Path&gt;" class="s21" d="m935.1 700.4h-299.2v-11.8h299.2z"/>
									<path id="&lt;Path&gt;" class="s21" d="m801 723.1h-165.1v-11.9h165.1z"/>
									<path id="&lt;Path&gt;" class="s21" d="m724.7 745.7h-88.8v-11.9h88.8z"/>
								</g>
								<g id="&lt;Group&gt;">
									<path id="&lt;Path&gt;" class="s21" d="m935.1 782.9h-299.2v-11.9h299.2z"/>
									<path id="&lt;Path&gt;" class="s21" d="m801 805.5h-165.1v-11.9h165.1z"/>
									<path id="&lt;Path&gt;" class="s21" d="m724.7 828.1h-88.8v-11.9h88.8z"/>
								</g>
								<g id="&lt;Group&gt;">
									<path id="&lt;Path&gt;" class="s21" d="m621.3 669.5h-116v-65.4h116z"/>
									<path id="&lt;Path&gt;" class="s22" d="m505.3 669.5l58-32.7 58 32.7z"/>
									<path id="&lt;Path&gt;" class="s22" d="m621.3 604.1l-58 32.7-58-32.7z"/>
								</g>
								<g id="&lt;Group&gt;">
									<path id="&lt;Path&gt;" class="s21" d="m621.3 753.5h-116v-65.3h116z"/>
									<path id="&lt;Path&gt;" class="s22" d="m505.3 753.5l58-32.7 58 32.7z"/>
									<path id="&lt;Path&gt;" class="s22" d="m621.3 688.2l-58 32.6-58-32.6z"/>
								</g>
								<g id="&lt;Group&gt;">
									<path id="&lt;Path&gt;" class="s21" d="m621.3 837.5h-116v-65.3h116z"/>
									<path id="&lt;Path&gt;" class="s22" d="m505.3 837.5l58-32.6 58 32.6z"/>
									<path id="&lt;Path&gt;" class="s22" d="m621.3 772.2l-58 32.7-58-32.7z"/>
								</g>
								<g id="&lt;Group&gt;" style="opacity: .4">
									<path id="&lt;Path&gt;" class="s23" d="m641.2 513.3l-186.9 186.9v-163.3l23.6-23.6z"/>
									<path id="&lt;Path&gt;" class="s23" d="m754.7 513.3l-300.4 300.4v-83.6l216.8-216.8z"/>
								</g>
								<g id="&lt;Group&gt;" style="opacity: .4">
									<path id="&lt;Path&gt;" class="s23" d="m977.4 553.7v163.3l-167.4 167.4h-163.3z"/>
									<path id="&lt;Path&gt;" class="s23" d="m977.4 746.9v83.6l-54 53.9h-83.5z"/>
								</g>
							</g>
							<g id="&lt;Group&gt;">
								<path id="&lt;Path&gt;" class="s24" d="m542.5 503.1l155.1-120.2c9.8-7.6 23.5-7.6 33.3 0l155.1 120.2v201.4h-343.5z"/>
								<g id="&lt;Group&gt;">
									<path id="&lt;Path&gt;" class="s2" d="m846.3 686.7h-264v-290.3h264z"/>
									<path id="&lt;Path&gt;" class="s25" d="m830.4 422.7h-232.2v-8.9h232.2z"/>
									<path id="&lt;Path&gt;" class="s25" d="m795.5 440.5h-197.3v-8.9h197.3z"/>
									<path id="&lt;Path&gt;" class="s25" d="m763.5 458.3h-165.3v-8.9h165.3z"/>
									<path id="&lt;Path&gt;" class="s25" d="m763.5 492.4h-165.3v-8.8h165.3z"/>
									<path id="&lt;Path&gt;" class="s25" d="m720.8 509.5h-122.6v-8.8h122.6z"/>
									<path id="&lt;Path&gt;" class="s25" d="m836.9 545.3h-122.6v-8.8h122.6z"/>
									<path id="&lt;Path&gt;" class="s25" d="m836.9 562.7h-99.7v-8.8h99.7z"/>
								</g>
								<g id="&lt;Group&gt;">
									<path id="&lt;Path&gt;" class="s26" d="m542.5 704.5v-201.3l171.8 100.7z"/>
									<path id="&lt;Path&gt;" class="s26" d="m714.3 603.9l171.7-100.7v201.3z"/>
									<path id="&lt;Path&gt;" class="s27" d="m730.9 584.3l155.1 120.2h-343.5l155.1-120.2c9.8-7.6 23.5-7.6 33.3 0z"/>
								</g>
								<g id="&lt;Group&gt;">
									<circle id="&lt;Path&gt;" class="s28" cx="886" cy="503.2" r="26.9"/>
									<g id="&lt;Group&gt;">
										<path id="&lt;Compound Path&gt;" class="s23" d="m880 489.6v25.9h-7.4v-20.2h-4.8v-5.7z"/>
										<path id="&lt;Compound Path&gt;" class="s23" d="m901.6 501.3q2.6 2.2 2.6 5.9 0 2.4-1.2 4.4-1.3 2-3.8 3.2-2.5 1.2-6.3 1.2-2.7 0-5.4-0.6-2.7-0.7-4.6-1.9l2.6-5.5q1.6 1 3.5 1.6 1.8 0.5 3.7 0.5 1.9 0 3-0.7 1.2-0.7 1.2-2 0-1.3-1.2-2-1.1-0.6-3.9-0.6h-7l1.3-15.2h16.5v5.7h-10.4l-0.4 3.8h1.8q5.4 0 8 2.2z"/>
									</g>
								</g>
							</g>
						</g>
					</g>
					<g id="&lt;Group&gt;">
						<g id="&lt;Group&gt;">
							<g id="&lt;Group&gt;">
								<path id="&lt;Compound Path&gt;" fill-rule="evenodd" class="s1" d="m443.3 264.5q6.7 0.3 12.1 3.8 5.4 3.5 8.3 9.6 2.1 4.5 2.2 8.4 0.1 3.9-1.5 6.7-1.7 2.9-4.9 4.4-2.7 1.3-5.1 1.1-2.4-0.2-4.3-1.9-0.4 5.5-6 8.1-3 1.5-6.3 1.1-3.3-0.4-6.2-2.5-2.8-2.1-4.6-5.8-1.7-3.7-1.6-7.3 0.1-3.5 2-6.3 1.8-2.7 4.8-4.2 4.4-2.1 8.3-0.4l-1.2-2.5 8.1-3.8 7.3 15.2q0.7 1.6 1.7 2 0.9 0.4 1.9-0.1 3.1-1.5-0.5-9.2-2.3-4.7-6.3-7.4-4-2.6-9-2.8-5-0.1-10.3 2.4-5.3 2.5-8.3 6.7-3 4.2-3.3 9.2-0.4 5 2 10 2.4 5 6.5 8 4.1 2.9 9.2 3.2 5 0.3 10.3-2.1 5.3-2.6 8.9-7l4.4 4.5q-1.8 2.2-4.6 4.3-2.9 2.2-6.1 3.7-7.2 3.4-14.2 3.1-6.9-0.4-12.4-4.2-5.6-3.8-8.7-10.4-3.1-6.5-2.5-13.1 0.6-6.7 4.7-12.3 4.2-5.7 11.5-9.1 6.9-3.3 13.7-3.1zm2.5 29.2q0.7-2.1-0.6-4.9-1.3-2.7-3.4-3.5-2.1-0.8-4.3 0.2-2.2 1-2.8 3.2-0.6 2.1 0.7 4.8 1.2 2.7 3.3 3.6 2.1 0.9 4.3-0.2 2.2-1 2.8-3.2z"/>
							</g>
						</g>
						<g id="&lt;Group&gt;">
							<g id="&lt;Group&gt;">
								<path id="&lt;Compound Path&gt;" fill-rule="evenodd" class="s1" d="m899 275.1l-2.6 8.4 7.4 1.3-1.4 7.7-8.3-1.6-2.8 8.6-8-1.5 2.7-8.6-7.2-1.3-2.8 8.6-8-1.5 2.7-8.6-7.4-1.4 1.4-7.6 8.4 1.6 2.5-8.4-7.4-1.3 1.4-7.7 8.4 1.6 2.7-8.6 8.1 1.5-2.8 8.6 7.3 1.3 2.7-8.6 8.1 1.5-2.8 8.6 7.5 1.3-1.4 7.7zm-8-1.5l-7.3-1.3-2.6 8.3 7.3 1.3z"/>
							</g>
						</g>
						<g id="&lt;Group&gt;">
							<path id="&lt;Path&gt;" class="s27" d="m513.4 789.8h-99.6c-30.2 0-54.7-24.5-54.7-54.7 0-30.2 24.5-54.7 54.7-54.7h44.9c30.2 0 54.7 24.5 54.7 54.7z"/>
							<path id="&lt;Compound Path&gt;" fill-rule="evenodd" class="s2" d="m477.6 735.1c0 22.8-18.6 41.4-41.4 41.4-22.8 0-41.3-18.6-41.3-41.4 0-22.8 18.5-41.4 41.3-41.4 22.8 0 41.4 18.6 41.4 41.4zm-76.9 5.8q5.2 1.8 10.2 3.1c-1-7.3-0.6-14.3 0.5-20.5-4.9 1.3-8.4 2.7-10.3 3.5-0.6 2.6-0.9 5.3-0.9 8.1 0 2 0.2 3.9 0.5 5.8zm15.6 4.4c15.5 3.3 28.4 2.7 38 1.1 1.2-8.5 0.5-16.7-0.9-23.9-15-2.8-27.4-2-36.6-0.3-1.4 6.8-2 14.7-0.5 23.1zm43.5-0.1c5.9-1.4 10-3.1 11.9-4 0.3-2 0.6-4 0.6-6.1 0-2.7-0.4-5.3-0.9-7.7q-6.4-2.3-12.4-3.7c1.1 6.6 1.6 13.9 0.8 21.5zm-6.8-42c1.5 3.6 3.3 8.7 4.8 14.7q5.6 1.3 11.6 3.2c-3.2-7.7-9.1-14-16.4-17.9zm-16.8-4.1c-3.9 0-7.6 0.6-11.1 1.7-1.2 2.1-4.4 7.7-6.8 15.7 8.9-1.5 20.3-1.9 33.8 0.3-2.4-8.5-5.4-14.7-6.3-16.4-3-0.9-6.2-1.3-9.6-1.3zm-32.8 21.2c2.4-0.9 5.5-1.9 9.2-2.7 1.4-5.2 3.1-9.7 4.7-13.1-6.1 3.8-10.9 9.3-13.9 15.8zm15.2 46.2c-3.2-5.6-5.4-11.2-6.7-16.7q-4.7-1.1-9.6-2.7c2.9 8.3 8.8 15.2 16.3 19.4zm17.6 4.6c2.9 0 5.6-0.3 8.3-1 4.3-5.8 7-11.9 8.6-18-4.3 0.6-9.1 1-14.4 1-6.3 0-13.4-0.6-21-2.1 1.8 6.3 4.9 12.6 9.6 19 2.9 0.7 5.9 1.1 8.9 1.1zm33.7-23.4c-2.7 1.1-6.5 2.3-11.1 3.3-1.1 5.4-3 10.8-6 16 7.8-4 14-10.9 17.1-19.3z"/>
						</g>
						<g id="&lt;Group&gt;">
							<g id="&lt;Group&gt;">
								<path id="&lt;Path&gt;" class="s27" d="m905.1 802.6c0-30.2 24.5-54.7 54.7-54.7h44.9c30.2 0 54.7 24.5 54.7 54.7 0 30.3-24.5 54.8-54.7 54.8h-99.6z"/>
							</g>
							<path id="&lt;Path&gt;" class="s29" d="m982.2 839.3q-46.2-22-40.9-52.4c0-15.5 24.6-28.8 40.9-15.4 16.4-13.4 41-0.1 41 15.4q5.3 30.4-41 52.4z"/>
						</g>
						<path id="&lt;Path&gt;" class="s1" d="m880 139.8c-2.5 2.7-5.1 4.1-7.6 5.1q-0.9 0.4-1.9 0.6-0.2 1-0.6 1.9c-1 2.5-2.3 5-5.1 7.6-2.7-2.6-4-5.1-5-7.6q-0.4-1-0.6-1.9-1-0.3-1.9-0.6c-2.5-1-5.1-2.4-7.6-5.1 2.5-2.7 5.1-4 7.6-5q0.9-0.4 1.9-0.6 0.2-1 0.6-1.9c1-2.6 2.4-5.1 5-7.6 2.7 2.5 4.1 5 5.1 7.6q0.3 0.9 0.6 1.8 1 0.3 1.9 0.7c2.5 1 5.1 2.3 7.6 5z"/>
						<path id="&lt;Path&gt;" class="s1" d="m199.3 563c-2.5 2.7-5.1 4.1-7.6 5.1q-0.9 0.3-1.9 0.6-0.2 0.9-0.6 1.9c-1 2.5-2.4 5-5.1 7.5-2.7-2.5-4-5-5-7.5q-0.4-1-0.6-1.9-1-0.3-1.9-0.6c-2.5-1.1-5.1-2.4-7.6-5.1 2.5-2.7 5.1-4 7.6-5q0.9-0.4 1.9-0.7 0.2-0.9 0.6-1.9c1-2.5 2.4-5 5-7.5 2.7 2.5 4.1 5 5.1 7.5q0.3 1 0.6 1.9 1 0.3 1.9 0.6c2.5 1.1 5.1 2.4 7.6 5.1z"/>
						<path id="&lt;Path&gt;" class="s1" d="m932.1 440.5c-2.5 2.7-5 4-7.5 5.1q-1 0.3-1.9 0.6-0.3 0.9-0.6 1.9c-1 2.5-2.4 5-5.1 7.5-2.7-2.5-4-5-5.1-7.5q-0.3-1-0.6-1.9-0.9-0.3-1.9-0.7c-2.5-1-5-2.3-7.5-5 2.5-2.7 5-4 7.5-5.1q1-0.3 1.9-0.6 0.3-0.9 0.7-1.9c1-2.5 2.3-5 5-7.5 2.7 2.5 4 5 5.1 7.5q0.3 1 0.6 1.9 0.9 0.3 1.9 0.6c2.5 1 5 2.4 7.5 5.1z"/>
						<path id="&lt;Path&gt;" class="s0" d="m1191.6 176.5c-1.3 1.3-2.5 2-3.8 2.5q-0.5 0.2-0.9 0.3-0.2 0.5-0.3 1c-0.5 1.2-1.2 2.5-2.6 3.8-1.3-1.3-2-2.6-2.5-3.8q-0.2-0.5-0.3-1-0.5-0.1-1-0.3c-1.2-0.5-2.5-1.2-3.8-2.5 1.3-1.4 2.6-2 3.8-2.5q0.5-0.2 1-0.4 0.1-0.4 0.3-0.9c0.5-1.3 1.2-2.5 2.5-3.8 1.4 1.3 2 2.5 2.6 3.8q0.1 0.5 0.3 0.9 0.4 0.2 0.9 0.3c1.3 0.6 2.5 1.2 3.8 2.6z"/>
						<path id="&lt;Path&gt;" class="s0" d="m1269.5 401.6c-1.2 1.4-2.5 2.1-3.8 2.6q-0.4 0.2-0.9 0.3-0.1 0.5-0.3 0.9c-0.5 1.3-1.2 2.6-2.6 3.8-1.3-1.2-2-2.5-2.5-3.8q-0.2-0.4-0.3-0.9-0.5-0.1-1-0.3c-1.2-0.5-2.5-1.2-3.7-2.6 1.2-1.3 2.5-2 3.7-2.5q0.5-0.2 1-0.3 0.1-0.5 0.3-0.9c0.5-1.3 1.2-2.6 2.5-3.8 1.4 1.2 2.1 2.5 2.6 3.8q0.1 0.4 0.3 0.9 0.5 0.1 0.9 0.3c1.3 0.5 2.6 1.2 3.8 2.5z"/>
						<path id="&lt;Path&gt;" class="s0" d="m1266.6 396.4c-1.3 1.3-2.6 2-3.8 2.5q-0.5 0.2-1 0.3-0.1 0.5-0.3 1c-0.5 1.2-1.2 2.5-2.5 3.8-1.4-1.3-2.1-2.6-2.6-3.8q-0.2-0.5-0.3-1-0.5-0.1-0.9-0.3c-1.3-0.5-2.6-1.2-3.8-2.5 1.2-1.4 2.5-2.1 3.8-2.6q0.5-0.1 0.9-0.3 0.2-0.4 0.3-0.9c0.5-1.3 1.2-2.6 2.6-3.8 1.3 1.2 2 2.5 2.5 3.8q0.2 0.4 0.3 0.9 0.5 0.1 1 0.3c1.2 0.5 2.5 1.2 3.8 2.6z"/>
						<path id="&lt;Path&gt;" class="s1" d="m353.3 465.2c-1.3 1.3-2.6 2-3.8 2.5q-0.5 0.2-1 0.3-0.1 0.5-0.3 1c-0.5 1.2-1.2 2.5-2.5 3.8-1.4-1.3-2-2.6-2.6-3.8q-0.1-0.5-0.3-1-0.4-0.1-0.9-0.3c-1.3-0.5-2.5-1.2-3.8-2.5 1.3-1.4 2.5-2 3.8-2.6q0.5-0.1 0.9-0.3 0.2-0.4 0.4-0.9c0.5-1.3 1.1-2.5 2.5-3.8 1.3 1.3 2 2.5 2.5 3.8q0.2 0.5 0.3 0.9 0.5 0.2 1 0.3c1.2 0.5 2.5 1.2 3.8 2.6z"/>
						<path id="&lt;Path&gt;" class="s1" d="m214.2 865c-1.2 1.3-2.5 2-3.8 2.5q-0.4 0.2-0.9 0.3-0.1 0.5-0.3 1c-0.5 1.2-1.2 2.5-2.6 3.7-1.3-1.2-2-2.5-2.5-3.7q-0.2-0.5-0.3-1-0.5-0.1-1-0.3c-1.2-0.5-2.5-1.2-3.7-2.5 1.2-1.4 2.5-2.1 3.7-2.6q0.5-0.1 1-0.3 0.1-0.5 0.3-0.9c0.5-1.3 1.2-2.6 2.5-3.8 1.4 1.2 2.1 2.5 2.6 3.8q0.1 0.4 0.3 0.9 0.5 0.1 0.9 0.3c1.3 0.5 2.6 1.2 3.8 2.6z"/>
						<path id="&lt;Path&gt;" class="s1" d="m752.3 264.5c-1.2 1.4-2.5 2-3.7 2.5q-0.5 0.2-1 0.3-0.1 0.5-0.3 1c-0.5 1.3-1.2 2.5-2.5 3.8-1.4-1.3-2.1-2.5-2.6-3.8q-0.2-0.5-0.3-1-0.5-0.1-0.9-0.3c-1.3-0.5-2.6-1.2-3.8-2.5 1.2-1.3 2.5-2 3.8-2.5q0.4-0.2 0.9-0.3 0.1-0.5 0.3-1c0.5-1.3 1.2-2.5 2.6-3.8 1.3 1.3 2 2.5 2.5 3.8q0.2 0.5 0.3 1 0.5 0.1 1 0.3c1.2 0.5 2.5 1.1 3.7 2.5z"/>
						<path id="&lt;Path&gt;" class="s1" d="m385 135.8c-1.2 1.3-2.5 2-3.7 2.5q-0.5 0.2-1 0.3-0.1 0.5-0.3 1c-0.5 1.2-1.2 2.5-2.5 3.8-1.4-1.3-2.1-2.6-2.6-3.8q-0.2-0.5-0.3-1-0.5-0.1-0.9-0.3c-1.3-0.5-2.6-1.2-3.8-2.5 1.2-1.4 2.5-2 3.8-2.6q0.4-0.1 0.9-0.3 0.1-0.4 0.3-0.9c0.5-1.3 1.2-2.5 2.6-3.8 1.3 1.3 2 2.5 2.5 3.8q0.2 0.5 0.3 0.9 0.5 0.2 1 0.3c1.2 0.5 2.5 1.2 3.7 2.6z"/>
						<path id="&lt;Path&gt;" class="s1" d="m1170 476.8c-1.3 1.3-2.6 2-3.8 2.5q-0.5 0.2-1 0.3-0.1 0.5-0.3 0.9c-0.5 1.3-1.2 2.6-2.5 3.8-1.4-1.2-2.1-2.5-2.6-3.8q-0.2-0.4-0.3-0.9-0.5-0.1-0.9-0.3c-1.3-0.5-2.6-1.2-3.8-2.5 1.2-1.4 2.5-2.1 3.8-2.6q0.5-0.2 0.9-0.3 0.2-0.5 0.3-0.9c0.5-1.3 1.2-2.6 2.6-3.8 1.3 1.2 2 2.5 2.5 3.8q0.2 0.4 0.3 0.9 0.5 0.1 1 0.3c1.2 0.5 2.5 1.2 3.8 2.6z"/>
						<path id="&lt;Path&gt;" class="s0" d="m794.6 344.3c-1.2 1.4-2.5 2-3.8 2.5q-0.4 0.2-0.9 0.3-0.1 0.5-0.3 1c-0.5 1.3-1.2 2.5-2.6 3.8-1.3-1.3-2-2.5-2.5-3.8q-0.2-0.5-0.3-1-0.5-0.1-0.9-0.3c-1.3-0.5-2.6-1.2-3.8-2.5 1.2-1.3 2.5-2 3.8-2.5q0.4-0.2 0.9-0.3 0.1-0.5 0.3-1c0.5-1.3 1.2-2.5 2.5-3.8 1.4 1.3 2.1 2.5 2.6 3.8q0.2 0.5 0.3 1 0.5 0.1 0.9 0.3c1.3 0.5 2.6 1.1 3.8 2.5z"/>
						<path id="&lt;Path&gt;" class="s1" d="m654.5 196.2c-2.2 2.3-4.4 3.5-6.6 4.4q-0.9 0.3-1.7 0.5-0.2 0.9-0.5 1.7c-0.9 2.2-2.1 4.4-4.5 6.7-2.4-2.3-3.5-4.5-4.4-6.7q-0.4-0.8-0.6-1.7-0.8-0.2-1.6-0.5c-2.3-0.9-4.5-2.1-6.7-4.4 2.2-2.4 4.4-3.6 6.7-4.5q0.8-0.3 1.6-0.5 0.3-0.9 0.6-1.7c0.9-2.2 2-4.4 4.4-6.7 2.4 2.3 3.5 4.5 4.4 6.7q0.4 0.8 0.6 1.7 0.8 0.2 1.7 0.5c2.2 0.9 4.4 2.1 6.6 4.5z"/>
						<path id="&lt;Path&gt;" class="s1" d="m315 357.6c-2.2 2.4-4.5 3.6-6.7 4.5q-0.8 0.3-1.6 0.5-0.3 0.8-0.6 1.7c-0.9 2.2-2.1 4.4-4.4 6.6-2.4-2.2-3.6-4.4-4.5-6.6q-0.3-0.9-0.5-1.7-0.9-0.2-1.7-0.5c-2.2-0.9-4.4-2.1-6.6-4.5 2.2-2.3 4.4-3.5 6.6-4.4q0.9-0.3 1.7-0.6 0.2-0.8 0.5-1.6c0.9-2.2 2.1-4.5 4.5-6.7 2.3 2.2 3.5 4.5 4.4 6.7q0.3 0.8 0.5 1.6 0.9 0.3 1.7 0.6c2.2 0.9 4.5 2 6.7 4.4z"/>
						<path id="&lt;Path&gt;" class="s0" d="m1032.6 303.9c-2.2 2.4-4.4 3.6-6.6 4.5q-0.9 0.3-1.7 0.5-0.2 0.8-0.5 1.7c-0.9 2.2-2.1 4.4-4.5 6.6-2.4-2.2-3.6-4.4-4.5-6.6q-0.3-0.9-0.5-1.7-0.8-0.2-1.7-0.6c-2.2-0.9-4.4-2-6.6-4.4 2.2-2.4 4.4-3.5 6.6-4.4q0.9-0.3 1.7-0.6 0.2-0.8 0.6-1.6c0.9-2.3 2-4.5 4.4-6.7 2.4 2.2 3.5 4.4 4.4 6.7q0.3 0.8 0.6 1.6 0.8 0.2 1.7 0.6c2.2 0.8 4.4 2 6.6 4.4z"/>
						<path id="&lt;Path&gt;" class="s0" d="m1365 229.2c-2.2 2.4-4.5 3.6-6.7 4.4q-0.8 0.4-1.6 0.6-0.3 0.8-0.6 1.6c-0.9 2.3-2 4.5-4.4 6.7-2.4-2.2-3.6-4.4-4.5-6.7q-0.3-0.8-0.5-1.6-0.8-0.3-1.7-0.6c-2.2-0.9-4.4-2-6.6-4.4 2.2-2.4 4.4-3.5 6.6-4.4q0.9-0.4 1.7-0.6 0.2-0.8 0.5-1.7c0.9-2.2 2.1-4.4 4.5-6.6 2.3 2.2 3.5 4.4 4.4 6.6q0.3 0.9 0.6 1.7 0.8 0.2 1.6 0.5c2.2 0.9 4.5 2.1 6.7 4.5z"/>
						<path id="&lt;Path&gt;" class="s0" d="m1016.3 126.5c-2.3 2.4-4.5 3.6-6.7 4.5q-0.8 0.3-1.7 0.5-0.2 0.9-0.5 1.7c-0.9 2.2-2.1 4.4-4.4 6.6-2.4-2.2-3.6-4.4-4.5-6.6q-0.3-0.9-0.5-1.7-0.9-0.2-1.7-0.5c-2.2-0.9-4.4-2.1-6.6-4.5 2.2-2.3 4.4-3.5 6.6-4.4q0.8-0.3 1.7-0.6 0.2-0.8 0.5-1.6c0.9-2.2 2.1-4.5 4.5-6.7 2.3 2.2 3.5 4.5 4.4 6.7q0.3 0.8 0.5 1.6 0.9 0.3 1.7 0.6c2.2 0.9 4.4 2.1 6.7 4.4z"/>
					</g>
				</g>
			</g>
		</g>
	</g>
	<g id="DESIGNED BY FREEPIK">
		<g id="&lt;Group&gt;">
			<g id="&lt;Group&gt;">
			</g>
		</g>
	</g>
</svg>