<?xml version="1.0" encoding="utf-8"?>
<!-- Generator: Adobe Illustrator 23.0.1, SVG Export Plug-In . SVG Version: 6.00 Build 0)  -->
<svg version="1.1" xmlns="http://www.w3.org/2000/svg" xmlns:xlink="http://www.w3.org/1999/xlink" x="0px" y="0px"
	 viewBox="0 0 500 500" style="enable-background:new 0 0 500 500;" xml:space="preserve">
<style type="text/css">
	.st0{opacity:0.43;fill:#BDBDBD;}
	.st1{fill:#E67549;}
	.st2{fill:#FFC0AC;}
	.st3{fill:#FF8A65;}
	.st4{fill:#E87348;}
	.st5{fill:#C7B79E;}
	.st6{fill:#E3D4BF;}
	.st7{fill:#B0BEC5;}
	.st8{fill:#90A4AE;}
	.st9{fill:#F28F4E;}
	.st10{fill:#FFAB91;}
	.st11{fill:#383838;}
	.st12{fill:#2F3A40;}
	.st13{fill:#4D4D4D;}
	.st14{fill:#37474F;}
	.st15{fill:#FFA264;}
	.st16{fill:#FFFFFF;}
	.st17{fill:#263238;}
	.st18{fill:#FFCCBC;}
	.st19{opacity:0.65;fill:url(#SVGID_1_);}
	.st20{fill:#B71C1C;}
	.st21{fill:#821C1C;}
	.st22{fill:#FAFAFA;}
	.st23{fill:#EBECF7;}
	.st24{fill:#E0E2F3;}
	.st25{fill:#E0E0E0;}
	.st26{fill:#C0C0C0;}
	.st27{fill:#3E2723;}
	.st28{fill:#5D4037;}
	.st29{fill:#D4D4D4;}
	.st30{fill:#F5F5F5;}
	.st31{fill:#4DB6AC;}
	.st32{fill:#00897B;}
	.st33{fill:#26A69A;}
	.st34{opacity:0.65;fill:url(#SVGID_2_);}
	.st35{fill:#ECEFF1;}
	.st36{fill:#212121;}
	.st37{fill:#FFA165;}
	.st38{fill:#CFD8DC;}
	.st39{fill:#80CBC4;}
</style>
<g id="BACKGROUND">
</g>
<g id="OBJECTS">
	<path class="st0" d="M450.95,415.62H65.14c-2.22,0-4.03,1.8-4.03,4.03v5.84c0,2.23,1.8,4.03,4.03,4.03h385.81
		c2.22,0,4.03-1.8,4.03-4.03v-5.84C454.98,417.42,453.18,415.62,450.95,415.62z"/>
	<g>
		<g>
			<path class="st1" d="M218.57,284.79l0.25,127.84c0,1.75,1.21,3.17,2.7,3.17c1.49,0,2.69-1.43,2.69-3.18l-0.25-127.84
				L218.57,284.79z"/>
			<path class="st1" d="M331.22,284.57l0.25,127.84c0,1.75,1.21,3.17,2.7,3.17c1.49,0,2.69-1.43,2.69-3.18l-0.25-127.84
				L331.22,284.57z"/>
		</g>
		<g>
			<path class="st2" d="M219.99,183.11c-1.24,0.59-1.95,1.65-2.94,2.58c-0.41,0.39-0.85,0.77-1.29,1.12
				c0.17-0.27,0.33-0.54,0.49-0.8c1.54-2.58,3.66-6.18,2.86-9.15c-0.37-1.37-2.21-1.28-2.99-0.34c-0.96,1.15-1.12,2.48-1.63,3.83
				c-0.55,1.45-1.26,2.84-2.08,4.18c-0.15,0.24-0.31,0.48-0.47,0.71c0.11-0.37,0.22-0.75,0.32-1.11c0.75-2.69,1.76-6.46,0.44-9.06
				c-0.61-1.2-2.14-0.76-2.6,0.27c-0.56,1.26-0.41,2.52-0.55,3.87c-0.15,1.46-0.45,2.89-0.86,4.29c-0.39,1.35-0.99,2.61-1.45,3.91
				c-0.3,0.4-0.65,0.81-1.01,1.25c-0.02-0.39,0.04-0.85,0.16-1.52c0.35-1.87,0.53-4.65-1.6-5.53c-0.68-0.28-1.44-0.32-2.17-0.31
				c-2.02,0.05-0.17,3.06-0.12,4.08c0.11,2.11-0.86,4.15-0.97,6.29c-0.07,1.5,0.34,3.26,1.21,4.68c-0.32,1.42-0.5,2.86-0.51,4.28
				c-0.01,0.67,0,1.42,0.08,2.11c0.95,0.85,1.92,1.67,2.91,2.47c0.8-0.3,1.28-1.42,2.04-1.76c1.1-0.5,0.84-0.52,1.94-0.71
				c2.33-0.41,6.4-2.02,6.35-5.03c-0.01-0.46,0.13-1.88,0.58-3.17c2.33-0.62,5.37-1.53,6.68-3.57c0.64-0.99-0.37-1.95-1.35-1.85
				c-1.19,0.13-2.08,0.8-3.16,1.29c-0.76,0.35-1.53,0.63-2.32,0.88c-0.03-0.03-0.07-0.06-0.11-0.09c0.02-0.01,0.04-0.03,0.06-0.04
				c2.32-1.56,5.54-3.76,6.23-6.59C222.46,183.29,221.01,182.63,219.99,183.11z"/>
			<path class="st3" d="M211.57,194.02c-0.26-0.57-0.59-1.1-1.02-1.57c-0.97-1.06-2.74-1.52-3.12-3.05
				c-0.06-0.24-0.47-0.17-0.44,0.08c0.21,1.46,1.15,1.93,2.22,2.79c1.92,1.54,2.47,3.81,2.09,6.17c-0.03,0.19,0.25,0.31,0.33,0.12
				C212.28,197.1,212.23,195.48,211.57,194.02z"/>
			<path class="st3" d="M214.17,193.54c-0.95,0.15-1.84,0.55-2.77,0.78c-0.53,0.13-0.2,1,0.34,0.71c0.82-0.44,1.73-0.73,2.51-1.24
				C214.35,193.72,214.3,193.52,214.17,193.54z"/>
			<path class="st3" d="M215.33,191.69c-1.25-1.8-3.57-3.17-5.44-4.24c-0.15-0.09-0.33,0.16-0.18,0.26
				c0.93,0.64,1.84,1.32,2.71,2.04c0.87,0.72,1.63,1.61,2.56,2.24C215.18,192.13,215.5,191.93,215.33,191.69z"/>
		</g>
		<path class="st4" d="M200.39,213.07c-0.89-0.34-1.74-0.79-2.53-1.32c-0.79-0.53-1.52-1.14-2.18-1.83
			c-0.58-0.6-0.97-1.32-1.69-1.74c-0.11-0.06-0.25,0.05-0.24,0.16c0.18,1.72,2.42,3.43,3.73,4.33c1.29,0.88,3.49,2.26,5.12,1.84
			c0.23-0.06,0.28-0.4,0.1-0.54C202.02,213.45,201.19,213.37,200.39,213.07z"/>
		<g>
			<g>
				<path class="st5" d="M94.09,271.18l-35.69,0.07c-2.57,0.01-4.66-2.07-4.66-4.64l-0.06-32.49c-0.01-2.57,2.07-4.66,4.64-4.66
					l35.69-0.07c2.57-0.01,4.66,2.07,4.66,4.64l0.06,32.49C98.74,269.09,96.66,271.18,94.09,271.18z"/>
				<path class="st6" d="M61.14,271.25L61.14,271.25c-4.08,0.01-7.39-3.29-7.4-7.37l-0.05-27.02c-0.01-4.08,3.29-7.39,7.37-7.4l0,0
					c4.08-0.01,7.39,3.29,7.4,7.37l0.05,27.02C68.51,267.93,65.22,271.24,61.14,271.25z"/>
			</g>
			<g>
				<g>
					
						<rect x="110.16" y="362.12" transform="matrix(1 -1.967987e-03 1.967987e-03 1 -0.7736 0.2255)" class="st7" width="8.1" height="62.14"/>
					
						<rect x="110.08" y="340.7" transform="matrix(1 -1.963347e-03 1.963347e-03 1 -0.6897 0.2247)" class="st8" width="8.1" height="21.43"/>
				</g>
				<g>
					<path class="st5" d="M140.89,345.71l-54.78,0.11c-4.3,0.01-7.79-3.47-7.8-7.77l0-2.13c-0.01-4.3,3.47-7.79,7.77-7.8l54.78-0.11
						c4.3-0.01,7.79,3.47,7.8,7.77l0,2.13C148.67,342.21,145.19,345.7,140.89,345.71z"/>
					<path class="st6" d="M119.8,345.75l-33.69,0.07c-4.3,0.01-7.79-3.47-7.8-7.77l0-2.13c-0.01-4.3,3.47-7.79,7.77-7.8l33.69-0.07
						c4.3-0.01,7.79,3.47,7.8,7.77l0,2.13C127.58,342.25,124.1,345.75,119.8,345.75z"/>
				</g>
				<path class="st8" d="M129.14,416.24l-30.08,0.06c-4.63,0.01-8.37,3.77-8.36,8.39v0l46.83-0.09l0,0
					C137.53,419.98,133.77,416.23,129.14,416.24z"/>
			</g>
			<path class="st9" d="M114.75,210.02c-0.9-4.14-1.36-10.14,1.19-13.92c3.63-5.37,10.38-2.59,14.43,0.64
				c7.7,6.15,14.64,13.18,21.57,20.18c4.76,4.82,9.52,9.64,14.29,14.46c0.61,0.62,1.29,1.27,2.15,1.42c0.83,0.14,1.66-0.22,2.5-0.27
				c0.84-0.06,1.88,0.43,1.83,1.27c6.76-10.58,18.03-26.55,26.32-35.98c0.54-0.61,1.13-1.25,1.93-1.42c0.96-0.2,1.9,0.36,2.72,0.89
				c2.37,1.53,3.32,2.22,4.32,2.93c2.38,1.69,3.19,4.87,1.89,7.48c-7.87,15.84-19.59,35.29-28.64,49.19
				c-2.12,3.25-5.14,8.1-9.37,8.63c-6.3,0.79-13.04-7.93-17.49-11.34c-8.26-6.33-16.29-12.99-23.7-20.31
				c-5.1-5.04-10.12-10.42-13.5-16.8C116.26,215.34,115.36,212.8,114.75,210.02z"/>
			<path class="st4" d="M168.26,235.31c-0.88,2.98-0.7,6.07,0.65,8.88c0.21,0.43,0.92,0.21,0.72-0.25c-1.13-2.62-1.3-5.6-0.28-8.28
				C169.65,234.89,168.5,234.5,168.26,235.31z"/>
			<path class="st4" d="M170.21,236.69c0.87,2.11,2.2,3.9,4.01,5.3c0.3,0.23,0.67-0.2,0.38-0.44c-1.66-1.39-2.86-3.09-3.59-5.13
				C170.82,235.9,170.01,236.19,170.21,236.69z"/>
			<path class="st4" d="M173.03,236.16c0.02,1.34,1.36,2.31,2.56,2.57c0.35,0.08,0.44-0.46,0.1-0.55c-1.19-0.3-1.69-1.17-2.24-2.17
				C173.33,235.79,173.02,235.95,173.03,236.16z"/>
			<path class="st4" d="M193.77,236.34c-4.42,5.84-8.21,12.23-12.24,18.34c-1.74,2.64-3.35,5.68-5.67,7.87
				c-3.24,3.06-6.99,2.39-10.42,0.19c-5.72-3.68-10.79-8.72-16-13.08c-5.78-4.84-11.48-9.82-17.66-14.15
				c-0.14-0.1-0.29,0.08-0.17,0.2c6.21,6.13,13.13,11.53,19.84,17.1c3.36,2.79,6.69,5.61,10.06,8.38c2.09,1.72,4.32,3.52,6.96,4.3
				c5.49,1.63,9.08-2.46,11.81-6.65c4.75-7.28,9.83-14.55,14.03-22.16C194.48,236.37,193.99,236.05,193.77,236.34z"/>
			<path class="st4" d="M136.41,201.15c-0.13-0.1-0.35,0.06-0.23,0.21c4.55,5.69,10.16,10.59,15.34,15.71
				c5.45,5.39,10.74,11.05,16.44,16.17c0.53,0.47,1.15-0.32,0.7-0.82c-5.07-5.49-10.65-10.56-15.98-15.8
				C147.38,211.41,142.28,205.71,136.41,201.15z"/>
			<path class="st4" d="M183.29,218.17c-3.06,2.19-8.81,11.4-10.81,14.56c-1.48-1.01-3.58-1.43-4.77,0.16
				c-0.06,0.09-0.01,0.22,0.11,0.21c1.72-0.12,2.98-0.51,4.46,0.8c0.19,0.17,0.59,0.18,0.74-0.06c2.16-3.3,7.59-11.7,10.12-14.69
				C183.48,218.75,183.73,217.86,183.29,218.17z"/>
			<g>
				<polygon class="st10" points="171.27,394.78 171.29,407.18 180.64,407.16 182.62,394.75 				"/>
				<path class="st11" d="M203.78,304.99c-7.86-5.97-31.07-6.97-40.31-7.99c-2.13-0.24-30.21,2.09-30.68,0.5
					c-0.96-3.2-0.78-6.26-0.91-9.53c-5.04,2.37-19.52-1.17-28.62-1.6c-1.56-0.07-2.78-0.65-3.67-1.51c-0.04,0-0.07,0-0.11,0
					c-2.76,9.19-1.39,25.5,4.25,33.32c5.45,7.55,15.06,9.67,23.86,9.89c9.35,0.23,18.69-0.51,28-1.24
					c4.52-0.35,21.84-0.97,21.84-0.97c-15.23,23.74-7.19,28.21-7.18,40.8c0.01,7.67,0.07,24.33-0.09,28.72
					c5.22,1.16,8.57,1.49,13.98,0.39C184.14,395.76,208.49,308.56,203.78,304.99z"/>
				<path class="st12" d="M171.29,407.18c0,0-4.48,3.3-4.46,13.01l39.59-0.08c0,0-0.46-5.38-6.44-6.19
					c-5.98-0.81-18.75-10.51-18.75-10.51l-1.12,1.3c-1.23,1.43-3,2.27-4.88,2.34L171.29,407.18z"/>
			</g>
			<g>
				<polygon class="st2" points="152.03,398.8 152.05,411.2 161.4,411.18 163.38,398.78 				"/>
				<path class="st13" d="M183.92,311.58c-7.86-5.97-31.07-6.97-40.31-7.99c-2.13-0.24-15.44,0.22-15.92-1.37
					c-0.96-3.2-0.78-6.26-0.91-9.53c-5.04,2.37-10.71,3.36-16.29,3.38c-9.14,0.03-18-2.68-27.1-3.11c-1.56-0.07-2.78-0.65-3.67-1.51
					c-0.04,0-0.07,0-0.11,0c-2.76,9.19-1.39,25.5,4.25,33.32c5.45,7.55,15.06,9.67,23.86,9.89c9.35,0.23,18.69-0.51,28-1.24
					c4.52-0.35,21.84-0.97,21.84-0.97c-15.23,23.74-7.19,28.21-7.18,40.8c0.01,7.67,0.07,24.33-0.09,28.72
					c5.22,1.16,8.57,1.49,13.98,0.39C164.29,402.36,188.63,315.16,183.92,311.58z"/>
				<path class="st14" d="M152.05,411.2c0,0-4.48,3.3-4.46,13.01l39.59-0.08c0,0-0.46-5.38-6.44-6.19
					c-5.98-0.81-18.75-10.51-18.75-10.51l-1.12,1.3c-1.23,1.43-3,2.27-4.88,2.34L152.05,411.2z"/>
			</g>
			<g>
				<path class="st15" d="M111.13,179.87c-3.15,0.68-5.48,4.87-7.38,7.15c-4.42,5.32-8.34,10.44-11.83,16.38
					c-5.31,9.05-8.84,18.38-11.37,28.61c-3.93,15.9-4.31,33.63-4.27,50c0.01,6.09,0.17,11.06,6.22,13.83
					c9.47,4.35,23.03,5.11,33.1,3.5c6.25-1,9.87-3.16,14.9-6.68c6.26-4.38,4.34-13.19,4.33-20.5c-0.02-9.07-2.28-27.93,0.84-36.47
					c4.81-13.18,4.34-15.64,5.16-27.8c0.6-8.8-2.56-17.32-8.54-21.19C128.58,184.33,117.22,178.98,111.13,179.87z"/>
				<path class="st4" d="M131.38,192.89c-0.06-0.37-0.68-0.28-0.65,0.09c0.64,9.03,0.33,17.84-1.04,26.8
					c-1.32,8.67-3.28,17.23-4.91,25.84c-1.53,8.06-2.81,16.23-2.94,24.45c-0.13,8.71,2.9,18.67-1.12,26.84
					c-0.25,0.51,0.52,0.95,0.76,0.44c3.62-7.57,1.3-16.08,1.2-24.09c-0.12-9.4,1.31-18.72,3.08-27.93
					C129.02,228.33,134.25,210.32,131.38,192.89z"/>
				<path class="st16" d="M134.7,204.88c-0.32-0.2-0.68-0.27-1.06-0.11c-0.4,0.17-0.72,0.59-0.7,1.04c0.02,0.4,0.22,0.78,0.57,0.98
					c0.42,0.25,0.86,0.17,1.23-0.08C135.56,206.42,135.54,205.15,134.7,204.88z"/>
				<path class="st16" d="M131.74,229.87c-0.1,0-0.2-0.01-0.3-0.01c-0.55-0.02-1.08,0.51-1.06,1.06c0.03,0.55,0.47,1.09,1.06,1.06
					c0.1,0,0.2-0.01,0.3-0.01c0.55-0.03,1.07-0.46,1.04-1.05C132.76,230.33,132.33,229.9,131.74,229.87z"/>
				<path class="st16" d="M127.66,279.42c-0.57,0-1.12,0.51-1.09,1.1c0.03,0.59,0.48,1.1,1.1,1.09c0.57,0,1.12-0.51,1.1-1.1
					C128.73,279.92,128.27,279.42,127.66,279.42z"/>
			</g>
			<g>
				<path class="st9" d="M117.54,182.64c-0.36-3.03,1.59-5.57,2.04-8.31c4.07-0.23,10.94,3.71,14.67,5.69
					c5.23,2.77,3.81,6.56,3.8,12.33C133.39,192.95,120.72,187.42,117.54,182.64z"/>
				<g>
					<path class="st2" d="M134.98,165.79c-0.17-0.62-0.52-1.17-0.87-1.71c-3.04-4.71-16.3-23.31-23.08-18.65
						c-0.08,0.06-0.16,0.12-0.24,0.18c2.72,11.54,3.27,23.33,3.21,35.16c6.69,2.72,12.89,6.65,18.17,11.58l2.83-23.9
						C135.12,167.57,135.22,166.65,134.98,165.79z"/>
					<path class="st10" d="M133.36,182.43l1.66-13.98c0.11-0.89,0.21-1.8-0.04-2.66c-0.17-0.62-0.52-1.17-0.87-1.71
						c-3.04-4.71-16.3-23.31-23.08-18.65c-0.08,0.06-0.16,0.12-0.24,0.18c1.3,5.52,2.1,11.1,2.58,16.71
						C119.46,169.09,125.95,176.49,133.36,182.43z"/>
					<path class="st2" d="M113.38,162.33c0.52,6.12,0.66,12.28,0.63,18.44c6.69,2.72,10.79,11.94,18.17,11.58l1.18-9.92
						C125.95,176.49,119.46,169.09,113.38,162.33z"/>
				</g>
				<g>
					<path class="st14" d="M155.72,107.35c2.28-4.31,3.35-9.41,2.14-14.13c-1.21-4.72-4.97-8.9-9.75-9.84
						c-1.5-0.29-3.03-0.27-4.56-0.23c0.76,0.03,1.51,0.09,2.26,0.24c4.78,0.94,8.54,5.12,9.75,9.84c1.21,4.72,0.13,9.82-2.14,14.13
						c0.88-0.32,1.49,0.9,1.59,1.83c0.4,3.81-0.29,7.89-2.7,10.86c-1.81,2.23-4.41,3.66-6.95,5.01
						c-7.64,4.04-15.41,7.88-23.51,10.91c-3.94,1.47-8.34,2.24-12.14,3.99c-0.75,0.35-1.59,1.08-2.46,1.52
						c0.23,0.15,0.45,0.26,0.68,0.31c1.43,0.29,2.87-1.27,4.08-1.83c3.8-1.76,8.2-2.52,12.14-3.99c8.1-3.03,15.87-6.86,23.51-10.91
						c2.54-1.35,5.14-2.77,6.95-5.01c2.41-2.97,3.1-7.05,2.7-10.86C157.21,108.25,156.6,107.04,155.72,107.35z"/>
					<path class="st14" d="M128.22,90.81c-0.87-0.03-1.75-0.09-2.61-0.14c-2.05-0.12-4.12-0.2-6.18-0.15
						c1.3,0.02,2.59,0.08,3.88,0.15C124.94,90.77,126.59,90.89,128.22,90.81z"/>
					<path class="st17" d="M121.85,135.96c8.1-3.03,15.87-6.86,23.51-10.91c2.54-1.35,5.14-2.77,6.95-5.01
						c2.41-2.98,3.1-7.05,2.7-10.86c-0.1-0.93-0.71-2.15-1.59-1.83c2.28-4.31,3.35-9.41,2.14-14.13c-1.21-4.72-4.97-8.91-9.75-9.84
						c-0.75-0.15-1.5-0.21-2.26-0.24c-0.87-0.03-1.75-0.01-2.62,0.01c-0.71,0.02-1.45,0.05-2.07,0.39c-1.1,0.61-1.49,1.96-2.11,3.06
						c-1.23,2.15-3.62,3.42-6.04,3.91c-0.82,0.17-1.65,0.25-2.49,0.29c-1.63,0.07-3.28-0.04-4.91-0.13
						c-1.29-0.07-2.59-0.13-3.88-0.15c-3.1-0.06-6.2,0.1-9.21,0.82c-4.27,1.02-8.39,3.26-10.87,6.88
						c-2.48,3.62-3.01,8.72-0.61,12.39c-2.29,1.42-3.61,4.07-3.93,6.74c-0.33,2.67,0.23,5.37,1.03,7.94
						c1.37,4.45,3.47,8.67,6.17,12.47c0.79,1.11,2.2,3.72,3.64,4.02c0.54,0.11,1.08-0.05,1.62-0.31c0.87-0.44,1.71-1.17,2.46-1.52
						C113.51,138.2,117.91,137.44,121.85,135.96z"/>
				</g>
				<g>
					<path class="st18" d="M107.45,145.71c-0.05,0.01-0.1,0.01-0.15,0.01c0.12,0.01,0.25,0.01,0.38-0.01
						c0.33-0.04,1.47-0.71,1.84-1.4c-0.07-0.2-0.13-0.39-0.2-0.6C109.58,144.54,107.87,145.67,107.45,145.71z"/>
					<path class="st18" d="M109.26,139.24c0.43,0.29,0.86,0.45,1.24,0.39c-0.3-0.04-0.62-0.18-0.94-0.39
						c-0.5-0.33-0.07-2.4-0.81-2.88c-0.98-0.66-2.17-0.99-3.31-0.97c1.05,0.01,2.14,0.34,3.04,0.97
						C109.19,136.84,108.78,138.91,109.26,139.24z"/>
					<path class="st18" d="M155.04,131.01c-0.73-4.47-1.73-8.9-2.87-13.28c-0.83-3.22-1.46-6.56-2.7-9.66
						c-1.9-4.75-5.06-7.49-9.74-7.16c3.78,0.27,6.39,2.92,8.03,7.17c1.2,3.1,1.79,6.44,2.6,9.66c1.1,4.38,2.07,8.81,2.77,13.28
						c1.37,8.7,1.71,17.67-0.06,26.35c-0.41,2.04-1.9,7.92-3.2,9.52c-2.04,2.54-5.41,3.3-8.67,3.4c3.81,0.08,8.02-0.49,10.45-3.4
						c1.34-1.6,2.88-7.48,3.32-9.52C156.81,148.68,156.45,139.71,155.04,131.01z"/>
					<path class="st2" d="M149.87,166.88c1.29-1.6,2.78-7.47,3.2-9.52c1.78-8.67,1.43-17.64,0.06-26.35
						c-0.7-4.47-1.67-8.9-2.77-13.28c-0.81-3.22-1.41-6.56-2.6-9.66c-1.65-4.25-4.26-6.9-8.03-7.17c-1.1-0.08-2.3,0.05-3.61,0.4
						c-4.04,1.08-8.24,2.02-11.87,4.22c-2.86,1.74-6.82,4.54-7.45,8.21c-0.31,1.83,0.22,3.7,0.2,5.55
						c-0.02,1.86-5.29,6.36-5.31,7.52c-0.04,2.88-0.09,5.76-0.13,8.64c-0.02,0.96,0.2,2.79-0.28,3.6c-0.21,0.36-0.48,0.54-0.78,0.59
						c-0.38,0.06-0.81-0.1-1.24-0.39c-0.48-0.33-0.07-2.4-0.78-2.88c-0.9-0.63-1.99-0.96-3.04-0.97c-1.84-0.02-3.57,0.96-4.03,3.06
						c-0.04,0.14-0.06,0.28-0.08,0.43c-0.05,0.36-0.05,0.73,0,1.09c0.14,1.21,0.76,2.37,1.65,3.18c1.35,1.23,2.6,2.67,4.3,2.58
						c0.01,0.01,0.01,0.01,0.02,0c0.05,0,0.1,0,0.15-0.01c0.42-0.04,2.14-1.17,1.87-1.99c0.07,0.2,0.13,0.4,0.2,0.6
						c0.11-0.2,0.16-0.41,0.09-0.6c2.34,6.96,5.09,13.26,11.38,17.04c6.29,3.78,12.71,9.33,20.04,9.52l0.17,0
						C144.46,170.17,147.83,169.41,149.87,166.88z"/>
				</g>
				<path class="st14" d="M134.41,125.95c-0.93-0.39-2.1,0.11-2.35,1.13c-0.26,1.05,0.32,2.17,1.45,2.32
					c0.51,0.07,1.04-0.08,1.41-0.45c0.09-0.09,0.2-0.25,0.27-0.36c0.08-0.14,0.14-0.28,0.18-0.43c0.04-0.13,0-0.04-0.12,0.26
					C135.73,127.49,135.4,126.36,134.41,125.95z"/>
				<path class="st14" d="M152.03,122.93c-0.93-0.39-2.1,0.11-2.35,1.13c-0.26,1.05,0.32,2.17,1.45,2.32
					c0.51,0.07,1.04-0.08,1.41-0.45c0.09-0.09,0.2-0.25,0.27-0.36c0.08-0.14,0.14-0.28,0.18-0.43c0.04-0.13,0-0.04-0.12,0.26
					C153.35,124.47,153.02,123.34,152.03,122.93z"/>
				<path class="st14" d="M135.33,114.41c-2.77-1.2-6.66,0.8-8.88,2.56c-0.84,0.67-0.89,2.16,0.05,1.58
					c1.27-0.79,3.4-1.44,4.84-1.78c1.32-0.32,2.71-0.16,4-0.58C136.18,115.91,136.07,114.73,135.33,114.41z"/>
				<path class="st14" d="M151.01,113.62c-1.19-1.41-3.64-1.57-5.41-0.94c-1.42,0.51-0.92,2.24,0.65,2c1.39-0.22,2.71,0.03,4.1-0.07
					C150.87,114.58,151.38,114.06,151.01,113.62z"/>
				<g>
					<path class="st2" d="M159.08,139.63c0.31,0.47,0.61,0.97,0.69,1.52c0.15,0.96-0.42,1.93-1.22,2.58
						c-0.8,0.66-1.81,1.06-2.8,1.45c-1.59,0.62-4.41,1.93-5.95,1.23c-1.26-0.58-1.6-1.82-1.53-2.95c0.25-4.02-1.52-8.67-1.14-12.64
						c0.04-0.43,0.1-0.87,0.36-1.23C149.07,127.49,158.07,138.08,159.08,139.63z"/>
					
						<radialGradient id="SVGID_1_" cx="152.2127" cy="141.8436" r="11.0938" gradientTransform="matrix(0.8761 -1.700000e-03 2.000000e-03 1 26.9388 0.6389)" gradientUnits="userSpaceOnUse">
						<stop  offset="0" style="stop-color:#FF8A65"/>
						<stop  offset="1" style="stop-color:#FF8864;stop-opacity:0"/>
					</radialGradient>
					<path class="st19" d="M158.25,139.63c0.27,0.47,0.54,0.97,0.61,1.52c0.13,0.96-0.37,1.93-1.07,2.58
						c-0.7,0.66-1.59,1.06-2.46,1.45c-1.39,0.62-3.86,1.93-5.21,1.23c-1.1-0.58-1.4-1.82-1.34-2.95c0.21-4.02-1.33-8.67-1-12.64
						c0.04-0.43,0.08-0.87,0.32-1.23C149.47,127.49,157.36,138.09,158.25,139.63z"/>
					<path class="st3" d="M159.6,139.89c-0.98-1.8-2.74-3.38-4.12-4.87c-1.56-1.67-3.17-3.4-4.99-4.78
						c-0.16-0.12-0.33,0.13-0.2,0.26c2.43,2.52,5.02,4.79,7.24,7.52c0.59,0.73,1.33,1.43,1.68,2.31c0.47,1.16-0.05,2.28-0.93,3.09
						c-1.2,1.09-3.04,1.54-4.45,2.34c-0.12,0.07-0.01,0.23,0.1,0.18c1.72-0.77,3.71-0.97,5.05-2.43
						C159.9,142.49,160.28,141.15,159.6,139.89z"/>
					<path class="st3" d="M153.38,144.37c-1.02-0.06-2.12,0.36-3,0.86c-0.13,0.08-0.1,0.28,0.04,0.32c0.2,0.06,0.39,0.12,0.6,0.17
						c0.12,0.03,0.2-0.14,0.09-0.21c-0.07-0.04-0.13-0.07-0.2-0.1c0.83-0.3,1.66-0.47,2.51-0.73
						C153.6,144.63,153.56,144.38,153.38,144.37z"/>
					<path class="st3" d="M149.91,146.14c-0.37-0.38-0.79-0.54-1.04-1.05c-0.25-0.52-0.21-1-0.16-1.55c0.01-0.1-0.13-0.11-0.17-0.05
						c-0.37,0.49-0.3,1.22-0.07,1.76c0.21,0.5,0.73,1.18,1.34,1.15C149.93,146.4,150,146.24,149.91,146.14z"/>
				</g>
				<path class="st3" d="M107.74,141.58c-0.29-0.02-0.53,0.04-0.77-0.16c-0.3-0.26-0.29-0.67-0.3-1.04
					c-0.01-0.43,0.49-1.29,0.41-1.72c-0.13-0.71-1-0.96-1.76-1.08c-0.77-0.12-1.5,0.41-1.79,1.1c-0.39,0.93-0.09,1.85,0.42,2.65
					c0.06,0.1,0.23,0.06,0.23-0.06c-0.04-0.77-0.43-2.82,0.86-2.8c1.02,0.02,0.64,1.78,0.7,2.4c0.06,0.61,0.33,1.17,0.88,1.48
					c0.48,0.28,1.15,0.32,1.45-0.22C108.2,141.88,108.02,141.59,107.74,141.58z"/>
				<path class="st14" d="M108.15,141.14c-0.03-0.02-0.06-0.05-0.09-0.07c-0.05-0.04-0.13-0.03-0.18,0
					c-0.33,0.09-0.57-0.09-0.72-0.55c0.06-0.23,0.16-0.44,0.31-0.62c0.09-0.2,0.17-0.32,0.21-0.54c0.08-0.42-0.04-0.84-0.27-1.2
					c-0.49-0.76-1.44-1.1-2.32-1.03c-0.89,0.07-1.58,0.53-1.9,1.37c-0.27,0.7-0.29,1.87,0.27,2.43c0.1,0.1,0.28,0,0.25-0.14
					c-0.16-0.58-0.41-1.01-0.15-1.63c0.19-0.46,0.53-0.8,0.97-1.03c0.5-0.26,1.11-0.29,1.62-0.04c0.77,0.39,0.76,0.9,0.42,1.55
					c-0.6,1.14,0.08,2.5,1.48,2.23C108.44,141.82,108.4,141.33,108.15,141.14z"/>
				<path class="st3" d="M107.14,143.09c-0.25,0.01-0.42,0.21-0.67,0.21c-0.26,0.01-0.44-0.12-0.65-0.26
					c-0.11-0.07-0.29,0.02-0.27,0.16c0.04,0.42,0.46,0.69,0.85,0.74c0.38,0.04,1.01-0.11,1-0.59
					C107.4,143.21,107.28,143.08,107.14,143.09z"/>
				<path class="st3" d="M134.3,131.3c-0.47-0.02-0.89,0.06-1.35-0.08c-0.49-0.15-0.81-0.45-1.19-0.77
					c-0.19-0.16-0.55-0.02-0.46,0.27c0.37,1.15,2.13,1.92,3.2,1.31C134.84,131.83,134.68,131.31,134.3,131.3z"/>
				<path class="st3" d="M153.29,126.97c-0.35,0.16-0.67,0.46-0.92,0.75c-0.22,0.26,0.07,0.74,0.4,0.51
					c0.34-0.24,0.67-0.53,0.89-0.9C153.8,127.09,153.52,126.86,153.29,126.97z"/>
				<path class="st20" d="M138.27,153.12c0.16,0.34,0.34,0.67,0.55,0.99c0.63,0.95,1.49,1.75,2.46,2.32
					c0.98,0.57,2.03,0.95,3.12,1.21c0.63,0.15,1.29,0.23,1.93,0.29C145.29,154.78,141.28,152.64,138.27,153.12z"/>
				<path class="st21" d="M148.75,152.12c0.05-0.14,0.09-0.27,0.12-0.41c-0.82-0.06-1.63-0.17-2.43-0.31
					c-1.56-0.27-3.1-0.69-4.54-1.29c-1.44-0.61-2.79-1.47-3.73-2.68l-0.5-0.64l-0.11,0.81c-0.14,1.1-0.17,2.23,0.01,3.35
					c0,0.02,0.01,0.03,0.01,0.05h0.01c0.12,0.73,0.35,1.44,0.67,2.11c3.01-0.48,7.02,1.66,8.06,4.8c0.46,0.04,0.91,0.06,1.35,0.07
					c0.3,0.02,0.61,0.04,0.9,0.09c-0.02-0.16-0.04-0.32-0.05-0.49c-0.11-1.16-0.17-2.72-0.17-3.62c0-0.34,0.01-0.59,0.02-0.68
					C148.43,152.96,148.61,152.54,148.75,152.12z"/>
				<g>
					<path class="st22" d="M150.33,151.79c-0.01,0.12-0.02,0.23-0.02,0.35c-0.04,0.44-0.06,0.88-0.09,1.33
						c-0.01,0.14-0.03,0.3-0.13,0.4c-0.1,0.1-0.25,0.11-0.39,0.11c-0.44,0.02-0.89,0.01-1.33,0c-1.23-0.05-2.46-0.21-3.66-0.46
						c-1.43-0.3-2.82-0.71-4.2-1.19c-0.64-0.22-1.39-0.44-2.05-0.77c-0.3-0.15-0.59-0.33-0.84-0.55h-0.01
						c0-0.02-0.01-0.03-0.01-0.05c-0.18-1.12-0.15-2.25-0.01-3.35l0.11-0.81l0.5,0.64c0.94,1.21,2.29,2.06,3.73,2.68
						c1.44,0.6,2.98,1.02,4.54,1.29c0.8,0.14,1.61,0.24,2.43,0.31C149.36,151.75,149.84,151.78,150.33,151.79z"/>
					<path class="st3" d="M151.79,151.83c0,0.02,0-0.02,0,0.04c0,0.04-0.02,0.09-0.05,0.11c-0.02,0.01-0.04,0.02-0.05,0.03
						c-0.08,0.04-0.13,0.04-0.18,0.05c-0.11,0.02-0.21,0.03-0.31,0.04c-0.3,0.02-0.6,0.04-0.9,0.04c-0.51,0.01-1.03,0-1.55-0.02
						c-0.8-0.04-1.6-0.12-2.39-0.23c-1.6-0.22-3.19-0.57-4.71-1.2c-1.26-0.52-2.49-1.24-3.48-2.24c-0.06,1.05,0.01,2.11,0.26,3.11
						c0.19,0.77,0.5,1.5,0.94,2.17c1.11,1.78,3.1,2.81,5.15,3.32c1.03,0.28,2.07,0.39,3.18,0.46c0.26,0.02,0.53,0.05,0.81,0.09
						c0.28,0.05,0.57,0.12,0.85,0.23c0.53,0.2,1.08,0.57,1.32,1.13c0.5,1.1-0.04,2.52-1.15,2.93c-1.07,0.41-2.2,0.26-3.26,0.05
						c0.54,0.06,1.08,0.1,1.62,0.08c0.54-0.02,1.08-0.1,1.55-0.33c0.98-0.41,1.32-1.69,0.89-2.57c-0.21-0.44-0.65-0.72-1.13-0.88
						c-0.21-0.07-0.42-0.12-0.65-0.15c-0.29-0.05-0.6-0.08-0.9-0.09c-1.06-0.03-2.21-0.1-3.28-0.36c-1.08-0.26-2.14-0.65-3.12-1.21
						c-0.98-0.57-1.83-1.37-2.46-2.32c-0.62-0.93-1.04-2.01-1.22-3.1h-0.01c0-0.02-0.01-0.03-0.01-0.05
						c-0.18-1.12-0.15-2.25-0.01-3.35l0.11-0.81l0.5,0.64c0.94,1.21,2.29,2.06,3.73,2.68c1.44,0.6,2.98,1.02,4.54,1.29
						c0.8,0.14,1.61,0.24,2.43,0.31c0.48,0.04,0.97,0.06,1.45,0.07c0.28,0.01,0.57,0.01,0.85,0c0.1-0.01,0.2-0.01,0.29-0.02
						l0.02-0.01l-0.16-0.56c-0.11-0.39-0.2-0.79-0.27-1.18c-0.13-0.8-0.13-1.61-0.06-2.41c0,0.8,0.06,1.6,0.23,2.38
						c0.08,0.39,0.19,0.76,0.32,1.14l0.2,0.57l0.02,0.08L151.79,151.83z"/>
				</g>
				<path class="st3" d="M147.68,161.96c-2.1-0.85-4.85-0.19-6.81,0.73c-0.31,0.15-0.09,0.64,0.23,0.55c1.1-0.3,2.22-0.5,3.37-0.52
					c1.04-0.02,2.05,0.21,3.08,0.21C148.15,162.94,148.17,162.16,147.68,161.96z"/>
				<path class="st3" d="M139.48,145.3c-1.15-0.95-3.37-0.39-3.98,0.96c-0.1,0.22,0.14,0.41,0.33,0.25c0.49-0.4,0.95-0.75,1.59-0.87
					c0.61-0.12,1.17,0.05,1.77,0.17C139.45,145.87,139.73,145.51,139.48,145.3z"/>
				<path class="st15" d="M109.14,182.66c-0.36-3.03,1.59-5.57,2.04-8.31c4.07-0.23,10.94,3.71,14.67,5.69
					c5.23,2.77,3.81,6.56,3.8,12.33C124.98,192.97,112.32,187.43,109.14,182.66z"/>
				<path class="st4" d="M127.6,185.85c-0.05-0.48-0.69-0.74-0.96-0.26c-1.21,2.14-2.33,4.39-3.3,6.65
					c-0.18,0.42,0.37,0.76,0.62,0.36c1.02-1.64,1.99-3.36,2.88-5.1c0.28,2.22,0.18,4.44,0.22,6.68c0.01,0.43,0.72,0.57,0.79,0.11
					C128.29,191.47,127.9,188.65,127.6,185.85z"/>
				<path class="st4" d="M123.58,191.72c-1.36-1.41-3.64-2.08-5.3-3.12c-1.93-1.22-3.69-2.67-5.51-4.04
					c-0.38-0.29-0.76,0.31-0.48,0.62c1.54,1.77,3.42,3.17,5.42,4.39c1.64,1,3.78,2.49,5.76,2.41
					C123.6,191.98,123.67,191.82,123.58,191.72z"/>
				<path class="st4" d="M135.75,185.57c-0.52,1.1-0.89,2.25-1.29,3.4c-0.44,1.25-1.03,2.54-1.22,3.86
					c-0.08,0.56,0.67,0.99,0.98,0.41c0.58-1.07,0.86-2.29,1.22-3.44c0.4-1.28,0.86-2.56,1.12-3.88
					C136.66,185.45,135.98,185.09,135.75,185.57z"/>
			</g>
			<g>
				<g>
					<path class="st23" d="M200.09,262.02c3.33-17.52,10.54-34.49,20.29-49.42c-9.49-0.51-25.71,0.16-35.17,1.07
						c-12.26,16.44-13.74,35.02-17.69,55.14C177.94,265.36,189.11,262.49,200.09,262.02z"/>
					<path class="st24" d="M213.87,223.58c-15.84,9.75-32.92,20.08-44,35.28c-0.21,0.77-0.43,1.54-0.63,2.32
						c10.16-7.18,21.67-9.93,33.64-10.76C205.57,241.14,209.3,232.12,213.87,223.58z"/>
				</g>
				<g>
					<path class="st2" d="M184.69,243.66c-0.42-2.13-2.12-3.94-4.22-4.5c-2.26-0.6-4.29,0.29-5.9,1.82
						c-2.16,2.05-2.68,2.84-5.62,3.92c-3.42,1.26-6.67,3.49-9.01,6.3c-0.43,0.52-0.9,1.1-1.27,1.69c0.2,1.26,0.43,2.51,0.69,3.75
						c0.81,0.27,1.89-0.29,2.69-0.08c1.17,0.31,1.49,1.12,2.47,1.66c2.07,1.16,3.79,1.87,5.65-0.5c0.46-0.58,0.8-1.24,1.33-1.76
						c1.3-1.29,3.32-1.4,5.15-1.44c0.5-1.25,0.25-2.67-0.1-3.98c-0.35-1.3-0.79-2.63-0.66-3.97c0.13-1.34,1.05-2.73,2.39-2.88
						c0.39-0.04,0.82,0.04,1.08,0.34c0.18,0.21,0.24,0.49,0.31,0.75c0.42,1.51,1.85,2.98,3.36,2.56
						C184.45,246.93,184.98,245.11,184.69,243.66z"/>
					<path class="st2" d="M185.49,249.59c-0.42-2.13-2.12-3.94-4.22-4.5c-2.26-0.6-4.29,0.29-5.9,1.82
						c-1.07,1.02-1.74,1.72-2.5,2.31l3.87,2.93c0.24-1.23,1.1-2.39,2.33-2.53c0.39-0.04,0.82,0.04,1.08,0.34
						c0.18,0.21,0.24,0.49,0.31,0.75c0.42,1.51,1.85,2.98,3.36,2.56C185.25,252.86,185.77,251.04,185.49,249.59z"/>
					<path class="st2" d="M182.77,258.67c1.13-1.41,1.36-3.48,0.59-5.11c-0.84-1.76-2.5-2.57-4.34-2.77
						c-1.22-0.13-2.03-0.18-2.82-0.34l0.22,4.04c0.91-0.51,2.12-0.59,2.87,0.11c0.24,0.22,0.42,0.54,0.37,0.87
						c-0.04,0.23-0.18,0.42-0.31,0.6c-0.73,1.08-0.89,2.78,0.19,3.52C180.56,260.29,182,259.64,182.77,258.67z"/>
					<path class="st2" d="M175.7,260.3c1.33-0.55,2.3-1.89,2.39-3.33c0.1-1.55-0.74-2.76-1.95-3.61c-0.8-0.57-1.35-0.91-1.83-1.33
						l-1.42,2.9c0.83,0,1.7,0.41,1.95,1.19c0.08,0.25,0.08,0.54-0.08,0.75c-0.11,0.14-0.29,0.22-0.45,0.3
						c-0.93,0.47-1.7,1.59-1.24,2.52C173.53,260.56,174.79,260.67,175.7,260.3z"/>
				</g>
				<path class="st15" d="M93.67,191.02c2.55-3.38,6.8-7.64,11.33-8.17c6.43-0.75,8.74,6.18,8.92,11.36
					c0.36,9.85-0.44,19.69-1.24,29.51c-0.55,6.75-1.1,13.51-1.65,20.26c-0.07,0.87-0.13,1.81,0.32,2.55
					c0.43,0.72,1.25,1.12,1.84,1.72c0.59,0.6,0.89,1.7,0.23,2.22c12.43-1.77,31.89-3.63,44.44-3.5c0.81,0.01,1.69,0.04,2.33,0.54
					c0.78,0.6,0.97,1.67,1.1,2.65c0.38,2.8,0.48,3.97,0.6,5.18c0.26,2.91-1.61,5.59-4.44,6.31c-17.14,4.36-39.54,8.15-55.97,10.35
					c-3.84,0.51-9.49,1.38-12.66-1.48c-4.71-4.26-2.49-15.05-2.8-20.66c-0.58-10.39-0.77-20.82-0.05-31.21
					c0.49-7.16,1.3-14.46,3.94-21.19C90.62,195.64,91.96,193.3,93.67,191.02z"/>
				<path class="st4" d="M109.38,248.09c-2.83,1.28-5.06,3.43-6.31,6.29c-0.19,0.44,0.44,0.83,0.66,0.38
					c1.25-2.56,3.4-4.63,6.1-5.61C110.6,248.87,110.15,247.75,109.38,248.09z"/>
				<path class="st4" d="M109.61,250.47c-1.04,2.03-1.52,4.21-1.41,6.49c0.02,0.37,0.59,0.38,0.58,0c-0.03-2.16,0.48-4.19,1.55-6.07
					C110.6,250.42,109.85,249.99,109.61,250.47z"/>
				<path class="st4" d="M111.84,252.26c-1,0.89-0.87,2.54-0.28,3.62c0.17,0.32,0.64,0.04,0.48-0.28c-0.55-1.1-0.22-2.04,0.19-3.11
					C112.32,252.25,112,252.12,111.84,252.26z"/>
				<path class="st4" d="M147.19,257.95c-0.32-0.89-0.53-1.83-0.65-2.77c-0.12-0.95-0.13-1.9-0.04-2.85
					c0.08-0.83,0.37-1.59,0.21-2.42c-0.02-0.12-0.2-0.16-0.28-0.07c-1.19,1.26-1.03,4.07-0.85,5.65c0.18,1.55,0.57,4.12,1.94,5.08
					c0.19,0.14,0.48-0.05,0.47-0.27C147.97,259.44,147.48,258.76,147.19,257.95z"/>
				<path class="st4" d="M125.22,268.1c-7.31,0.46-14.62,1.74-21.89,2.67c-3.13,0.4-6.49,1.16-9.66,0.83
					c-4.43-0.47-6.37-3.74-6.94-7.78c-0.94-6.74-0.42-13.87-0.51-20.66c-0.1-7.54-0.04-15.11-0.78-22.62
					c-0.02-0.17-0.25-0.17-0.26,0c-0.6,8.7-0.18,17.47-0.04,26.19c0.07,4.36,0.11,8.73,0.2,13.09c0.05,2.7,0.15,5.57,1.27,8.08
					c2.34,5.23,7.79,5.28,12.74,4.62c8.62-1.14,17.44-2.03,25.95-3.8C125.66,268.66,125.59,268.08,125.22,268.1z"/>
				<path class="st4" d="M114.52,201.67c-0.01-0.17-0.28-0.23-0.31-0.04c-1.35,7.16-1.41,14.61-1.91,21.87
					c-0.53,7.65-1.38,15.34-1.54,23.01c-0.02,0.71,1,0.67,1.07,0c0.86-7.42,1.07-14.96,1.57-22.42
					C113.89,216.67,114.89,209.1,114.52,201.67z"/>
				<path class="st4" d="M132.17,248.31c-3.66-0.9-14.39,0.75-18.09,1.29c-0.2-1.78-1.26-3.65-3.23-3.52
					c-0.11,0.01-0.17,0.13-0.09,0.22c1.21,1.22,2.33,1.92,2.3,3.9c0,0.26,0.25,0.56,0.53,0.53c3.91-0.52,13.82-1.87,17.74-1.9
					C131.85,248.83,132.69,248.44,132.17,248.31z"/>
			</g>
		</g>
		<g>
			<g>
				<path class="st5" d="M414.67,269.27l35.69-0.07c2.57-0.01,4.65-2.09,4.64-4.66l-0.06-32.49c-0.01-2.57-2.09-4.65-4.66-4.64
					l-35.69,0.07c-2.57,0.01-4.65,2.09-4.64,4.66l0.06,32.49C410.01,267.19,412.1,269.27,414.67,269.27z"/>
				<path class="st6" d="M447.62,269.2L447.62,269.2c4.08-0.01,7.38-3.32,7.37-7.4l-0.05-27.02c-0.01-4.08-3.32-7.38-7.4-7.37h0
					c-4.08,0.01-7.38,3.32-7.37,7.4l0.05,27.02C440.23,265.91,443.54,269.21,447.62,269.2z"/>
			</g>
			<g>
				<path class="st2" d="M319.9,253.5c-2-2.39-4.76-4.27-7.68-5.33c-0.53-0.19-0.97-0.38-1.35-0.56c-0.26-0.49-0.62-1.25-0.85-1.67
					c-0.56-1.03-1.43-1.8-2.66-1.87c-1.14-0.06-2.29,0.57-2.84,1.57c-0.03,0.05-0.05,0.1-0.07,0.15c-0.42,0.02-0.84,0.13-1.25,0.33
					c-0.91,0.46-1.57,1.37-1.78,2.37c-1.62,0.58-2.9,2.03-3.22,3.72c-0.23,1.21,0.2,2.72,1.37,3.09c-0.76,1.59-0.68,3.59,0.41,5.03
					c0.43,0.57,1.12,0.95,1.83,0.92c1.67-0.08,2.14-2.05,1.69-3.46c-0.07-0.22-0.16-0.45-0.13-0.68c0.04-0.33,0.31-0.59,0.61-0.74
					c0.39-0.2,1.01-0.31,1.64-0.32c0.13,0.03,2.92,0.63,3.26,0.77c1.09,0.47,1.96,1.32,2.94,1.98c-0.03,0.04-0.06,0.09-0.1,0.13
					c-0.24,0.24-0.57,0.41-0.9,0.35c-0.23-0.05-0.42-0.2-0.61-0.34c-1.08-0.78-2.81-1-3.59,0.08c-0.74,1.02-0.12,2.51,0.84,3.32
					c1.4,1.19,3.5,1.5,5.19,0.76c1.59-0.69,2.46-2.05,2.83-3.62c0.7-0.25,1.36-0.67,2.02-1.11c0.29-0.19,2.93-0.32,2.91-0.25
					c0.22-1.06,0.41-2.12,0.58-3.19C320.67,254.43,320.27,253.94,319.9,253.5z M304.99,248.44c0.65-0.06,1.23,0.4,1.54,0.98
					l-0.14,0.15c-0.54-0.44-1.12-0.8-1.74-1.04C304.76,248.49,304.88,248.46,304.99,248.44z M307.73,246.7
					c0.31,0.14,0.53,0.42,0.65,0.74l-0.04,0.04c-0.37-0.24-0.82-0.54-1.2-0.79C307.31,246.59,307.54,246.62,307.73,246.7z
					 M302.58,252.79c0.04-0.1,0.08-0.2,0.15-0.28c0.21-0.26,0.58-0.33,0.91-0.29c0.36,0.04,0.69,0.19,0.97,0.41
					C303.91,252.57,303.23,252.62,302.58,252.79z"/>
				<path class="st25" d="M377.86,185.09c-6.08-0.68-15.94,7.11-17.18,22.61c-0.74,9.28,0.5,10.36,1.29,19.63
					c0.55,6.38,1.09,12.76,1.64,19.14c0.07,0.82,0.13,1.71-0.29,2.42c-0.41,0.68-1.17,1.06-1.73,1.63c-0.56,0.57-0.84,1.61-0.21,2.1
					c-11.76-1.63-30.15-3.31-42.02-3.14c-0.77,0.01-1.6,0.05-2.2,0.52c-0.73,0.57-0.91,1.59-1.03,2.51
					c-0.35,2.65-0.44,3.75-0.54,4.9c-0.24,2.75,1.54,5.28,4.22,5.95c16.22,4.06,37.4,7.56,52.94,9.58
					c3.63,0.47,8.98,1.27,11.96-1.45c4.43-4.05,2.3-14.24,2.57-19.54c0.51-9.82,0.65-19.68-0.07-29.5
					C386.71,215.69,382.15,185.57,377.86,185.09z"/>
				<path class="st7" d="M365.19,250.36c2.68,1.2,4.79,3.22,5.99,5.92c0.18,0.41-0.41,0.79-0.62,0.36c-1.2-2.42-3.23-4.37-5.79-5.28
					C364.03,251.1,364.46,250.04,365.19,250.36z"/>
				<path class="st7" d="M364.98,252.6c0.99,1.92,1.46,3.97,1.35,6.13c-0.02,0.35-0.55,0.36-0.55,0c0.02-2.04-0.47-3.96-1.49-5.73
					C364.04,252.56,364.75,252.15,364.98,252.6z"/>
				<path class="st7" d="M362.88,254.31c0.95,0.84,0.83,2.4,0.28,3.42c-0.16,0.3-0.6,0.04-0.45-0.26c0.51-1.04,0.2-1.93-0.19-2.94
					C362.42,254.3,362.73,254.18,362.88,254.31z"/>
				<path class="st7" d="M329.49,259.82c0.3-0.85,0.5-1.73,0.6-2.62c0.11-0.89,0.11-1.79,0.03-2.69c-0.08-0.79-0.35-1.5-0.21-2.29
					c0.02-0.12,0.19-0.15,0.26-0.07c1.13,1.19,0.99,3.84,0.82,5.34c-0.16,1.47-0.52,3.9-1.82,4.81c-0.18,0.13-0.46-0.04-0.45-0.26
					C328.76,261.23,329.21,260.59,329.49,259.82z"/>
				<path class="st7" d="M350.29,269.33c6.91,0.41,13.83,1.59,20.7,2.44c2.96,0.37,6.14,1.08,9.13,0.75
					c4.19-0.46,6.01-3.56,6.53-7.38c0.86-6.37,0.35-13.11,0.4-19.53c0.06-7.12-0.02-14.28,0.66-21.38c0.01-0.16,0.24-0.16,0.25,0
					c0.6,8.22,0.24,16.52,0.13,24.75c-0.05,4.13-0.07,8.25-0.14,12.38c-0.04,2.55-0.12,5.26-1.17,7.64
					c-2.19,4.95-7.34,5.02-12.02,4.42c-8.15-1.05-16.49-1.86-24.54-3.5C349.87,269.86,349.94,269.31,350.29,269.33z"/>
				<path class="st7" d="M360.16,206.5c0.01-0.16,0.26-0.21,0.29-0.04c1.3,6.76,1.38,13.81,1.89,20.66
					c0.53,7.22,1.36,14.5,1.54,21.74c0.02,0.67-0.94,0.63-1.01,0c-0.84-7.01-1.06-14.14-1.57-21.18
					C360.8,220.68,359.84,213.52,360.16,206.5z"/>
				<path class="st7" d="M343.65,250.66c3.45-0.86,13.6,0.65,17.1,1.15c0.18-1.68,1.17-3.45,3.04-3.33c0.1,0.01,0.16,0.13,0.08,0.2
					c-1.14,1.16-2.2,1.83-2.16,3.7c0,0.24-0.23,0.53-0.5,0.5c-3.7-0.47-13.07-1.72-16.77-1.73
					C343.95,251.15,343.15,250.78,343.65,250.66z"/>
			</g>
			<g>
				<path class="st25" d="M371.21,187.53c-9.7,5.8-7.48,20.38-7.12,29.93c0.34,8.93,2.83,17.54,3.55,26.43
					c0.66,8.02,0.7,15.99,0.93,24.04c0.43,15.11,1.28,30.06,0.89,45.09c-0.25,9.58-2.17,19.96-1.14,29.48
					c0.78,7.17,9.36,6.61,15.73,6.74c5.48,0.12,10.92,0.08,16.33,0.37c2.21,0.12,7.12,0.73,9.02-0.39
					c7.22-4.28,2.62-27.67,1.99-33.91c-1.62-16.22-3.85-32.4-5.38-48.64c-1.55-16.46-3.76-33.07-6.85-49.34
					c-1.33-6.99-1.97-20.69-7.62-25.65C387.42,188.03,377.65,186.22,371.21,187.53z"/>
				<path class="st26" d="M373.79,187.53c-9.7,5.8-7.47,20.38-7.12,29.93c0.34,8.93,2.83,17.54,3.55,26.43
					c0.66,8.02,0.7,15.99,0.93,24.04c0.43,15.11,1.28,30.06,0.89,45.09c-0.25,9.58-2.17,19.96-1.14,29.48
					c0.78,7.17,9.36,6.61,15.73,6.74c5.48,0.12,10.92,0.08,16.33,0.37c2.21,0.12,7.12,0.73,9.02-0.39
					c7.22-4.28,2.62-27.67,1.99-33.91c-1.62-16.22-3.85-32.4-5.38-48.64c-1.55-16.46-3.76-33.07-6.85-49.34
					c-1.33-6.99-1.97-20.69-7.62-25.65C390,188.03,380.24,186.21,373.79,187.53z"/>
			</g>
			<g>
				<g>
					
						<rect x="400.19" y="361.55" transform="matrix(1 -1.967984e-03 1.967984e-03 1 -0.7719 0.7963)" class="st7" width="8.1" height="62.14"/>
					
						<rect x="400.11" y="340.13" transform="matrix(1 -1.975671e-03 1.975671e-03 1 -0.6924 0.7992)" class="st8" width="8.1" height="21.43"/>
				</g>
				<g>
					<path class="st5" d="M376.76,345.25l54.78-0.11c4.3-0.01,7.78-3.5,7.77-7.8l0-2.13c-0.01-4.3-3.5-7.78-7.8-7.77l-54.78,0.11
						c-4.3,0.01-7.78,3.5-7.77,7.8l0,2.13C368.97,341.78,372.46,345.26,376.76,345.25z"/>
					<path class="st6" d="M397.85,345.21l33.69-0.07c4.3-0.01,7.78-3.5,7.77-7.8l0-2.13c-0.01-4.3-3.5-7.78-7.8-7.77l-33.69,0.07
						c-4.3,0.01-7.78,3.5-7.77,7.8l0,2.13C390.06,341.74,393.55,345.22,397.85,345.21z"/>
				</g>
				<path class="st7" d="M426.19,304.48c-5.17,14.88-13.95,27.53-25.39,38.26c-0.33,0.31,0.16,0.77,0.49,0.49
					c11.83-10.08,20.5-23.92,25.24-38.65C426.6,304.35,426.27,304.26,426.19,304.48z"/>
				<path class="st7" d="M427.37,337.88c-4.15,7.24-8.8,13.5-14.36,19.71c-0.51,0.57,0.29,1.38,0.84,0.84
					c5.73-5.63,10.66-13,13.84-20.36C427.78,337.86,427.49,337.67,427.37,337.88z"/>
				<path class="st8" d="M419.33,415.67l-30.08,0.06c-4.63,0.01-8.37,3.77-8.36,8.39l0,0l46.83-0.09l0,0
					C427.71,419.41,423.95,415.66,419.33,415.67z"/>
			</g>
			<g>
				<path class="st27" d="M407.92,108.02c-0.7-0.99-1.54-1.88-2.15-2.93c-0.59-1.02-0.94-2.16-1.53-3.19
					c-3.83-6.68-13.13-9.87-20.15-11.58c-3.9-0.94-8.19-0.73-11.98-1.97c-1.09-0.35-2.05-1.4-1.97-2.49
					c-9.37,2.18-21.1,8.7-18.81,20.04c0.19,0.96,0.52,1.85,0.94,2.68c0.37,0.37,0.76,0.71,1.17,1.04c1.99,1.56,4.47,2.68,6.82,3.66
					c8.67,3.63,17.6,7.43,24.18,14.15c2.29,2.34,4.3,5.09,5.06,8.27c0.8,3.35,0.45,7.49,3.24,9.51c1.49,1.08,3.53,1.17,5.27,0.56
					c1.73-0.61,3.19-1.82,4.44-3.17c5.2-5.62,7.36-13.8,8.04-21.25C410.91,116.9,410.58,111.79,407.92,108.02z"/>
				<path class="st28" d="M370.14,85.86c0.01-0.12,0.02-0.24,0.05-0.35c-8.21,0.55-23.82,9.35-20.17,19.62
					c0.48,1.34,1.27,2.48,2.25,3.46c-0.42-0.83-0.75-1.72-0.94-2.68C349.04,94.56,360.77,88.04,370.14,85.86z"/>
			</g>
			<g>
				<path class="st2" d="M309.4,208.72c0.35,1.33,1.26,2.22,2,3.36c0.31,0.48,0.6,0.97,0.87,1.47c-0.23-0.21-0.47-0.43-0.7-0.63
					c-2.25-1.99-5.41-4.73-8.48-4.48c-1.41,0.11-1.66,1.94-0.88,2.88c0.95,1.15,2.23,1.56,3.46,2.3c1.33,0.8,2.56,1.75,3.73,2.81
					c0.21,0.19,0.41,0.39,0.62,0.6c-0.35-0.18-0.69-0.35-1.03-0.52c-2.51-1.23-6.03-2.91-8.83-2.09c-1.29,0.38-1.14,1.97-0.21,2.61
					c1.13,0.78,2.4,0.87,3.71,1.25c1.41,0.41,2.76,0.97,4.06,1.63c1.25,0.63,2.39,1.45,3.58,2.14c0.33,0.37,0.68,0.79,1.05,1.22
					c-0.39-0.05-0.83-0.2-1.46-0.44c-1.77-0.68-4.47-1.37-5.73,0.57c-0.4,0.62-0.58,1.35-0.7,2.08c-0.32,2,2.97,0.73,3.99,0.86
					c2.1,0.28,3.92,1.61,6.01,2.1c1.46,0.35,3.27,0.26,4.82-0.33c1.33,0.57,2.72,1.01,4.12,1.28c0.66,0.13,1.39,0.26,2.09,0.31
					c1.01-0.78,1.99-1.58,2.96-2.41c-0.15-0.85-1.16-1.52-1.36-2.32c-0.29-1.17-0.36-0.92-0.35-2.04c0.02-2.37-0.82-6.66-3.79-7.16
					c-0.46-0.08-1.83-0.47-3.01-1.15c-0.19-2.4-0.53-5.56-2.29-7.22c-0.85-0.81-1.99,0.01-2.06,0.99c-0.09,1.2,0.41,2.19,0.69,3.34
					c0.2,0.81,0.34,1.62,0.44,2.44c-0.03,0.03-0.07,0.06-0.1,0.09c-0.01-0.02-0.02-0.04-0.03-0.07c-1.11-2.57-2.69-6.13-5.35-7.33
					C310.03,206.32,309.11,207.63,309.4,208.72z"/>
				<path class="st3" d="M318.59,218.99c-0.61,0.15-1.19,0.38-1.73,0.71c-1.22,0.76-2,2.42-3.56,2.51c-0.25,0.01-0.25,0.43,0,0.44
					c1.48,0.06,2.11-0.78,3.15-1.67c1.86-1.6,4.2-1.73,6.45-0.93c0.18,0.06,0.35-0.19,0.18-0.3
					C321.74,218.86,320.14,218.61,318.59,218.99z"/>
				<path class="st3" d="M318.59,216.35c-0.02,0.96,0.2,1.91,0.26,2.86c0.03,0.54,0.94,0.38,0.76-0.21
					c-0.28-0.88-0.41-1.83-0.76-2.69C318.8,216.2,318.6,216.21,318.59,216.35z"/>
				<path class="st3" d="M316.98,214.87c-1.99,0.9-3.77,2.93-5.16,4.57c-0.11,0.13,0.09,0.35,0.22,0.22c0.8-0.8,1.64-1.57,2.5-2.29
					c0.86-0.72,1.89-1.31,2.67-2.11C317.39,215.1,317.24,214.75,316.98,214.87z"/>
			</g>
			<g>
				<polygon class="st10" points="337.98,394.45 338.01,406.85 328.66,406.87 326.63,394.47 				"/>
				<path class="st11" d="M305.12,304.79c7.83-6,31.04-7.09,40.28-8.15c2.13-0.24,30.22,1.97,30.69,0.38
					c0.94-3.21,0.76-6.26,0.87-9.53c5.05,2.35,19.52-1.24,28.61-1.71c1.55-0.08,2.77-0.66,3.66-1.52c0.04,0,0.07,0,0.11,0
					c2.8,9.18,1.49,25.5-4.12,33.34c-5.42,7.57-15.02,9.73-23.82,9.98c-9.35,0.27-18.69-0.43-28.01-1.13
					c-4.52-0.34-21.84-0.88-21.84-0.88c15.33,23.68,7.3,28.18,7.34,40.77c0.02,7.67,0.03,24.33,0.21,28.72
					c-5.21,1.18-8.56,1.52-13.98,0.44C325.11,395.49,300.42,308.38,305.12,304.79z"/>
				<path class="st29" d="M338.01,406.85c0,0,4.49,3.28,4.51,12.99l-39.59,0.08c0,0,0.44-5.38,6.41-6.21
					c5.97-0.83,18.71-10.59,18.71-10.59l1.12,1.29c1.23,1.42,3.01,2.26,4.89,2.32L338.01,406.85z"/>
			</g>
			<g>
				<polygon class="st2" points="357.24,398.39 357.26,410.79 347.91,410.81 345.88,398.42 				"/>
				<path class="st13" d="M325,311.3c7.83-6,31.04-7.09,40.28-8.15c2.13-0.24,15.44,0.16,15.91-1.43c0.94-3.21,0.76-6.26,0.87-9.53
					c5.05,2.35,10.73,3.32,16.3,3.32c9.14-0.01,17.99-2.75,27.09-3.22c1.55-0.08,2.77-0.66,3.66-1.52c0.04,0,0.08,0,0.11,0
					c2.8,9.18,1.49,25.5-4.12,33.34c-5.42,7.57-15.02,9.73-23.82,9.98c-9.35,0.27-18.69-0.43-28.01-1.13
					c-4.52-0.34-21.84-0.88-21.84-0.88c15.32,23.68,7.3,28.18,7.34,40.77c0.02,7.67,0.03,24.33,0.21,28.72
					c-5.21,1.18-8.56,1.52-13.98,0.44C344.99,402,320.31,314.9,325,311.3z"/>
				<path class="st30" d="M357.26,410.79c0,0,4.49,3.28,4.51,12.99l-39.59,0.08c0,0,0.44-5.38,6.41-6.21
					c5.97-0.83,18.71-10.59,18.71-10.59l1.12,1.29c1.23,1.42,3.01,2.26,4.89,2.32L357.26,410.79z"/>
			</g>
			<g>
				<path class="st31" d="M397.28,179.3c3.16,0.67,5.5,4.85,7.41,7.12c4.44,5.3,8.38,10.41,11.89,16.34
					c5.35,9.03,8.92,18.34,11.48,28.56c3.99,15.88,4.44,33.61,4.47,49.99c0.01,6.09-0.12,11.06-6.16,13.86
					c-9.45,4.38-23.01,5.2-33.08,3.63c-6.26-0.98-9.88-3.13-14.92-6.62c-6.28-4.36-4.4-13.17-4.41-20.49
					c-0.02-9.07,2.17-27.94-0.98-36.47c-4.86-13.16-4.4-15.62-5.27-27.78c-0.63-8.8,2.49-17.33,8.46-21.22
					C379.84,183.84,391.18,178.44,397.28,179.3z"/>
				<path class="st32" d="M377.08,192.41c0.06-0.37,0.68-0.28,0.65,0.09c-0.6,9.03-0.26,17.84,1.15,26.79
					c1.36,8.67,3.35,17.21,5.02,25.82c1.56,8.06,2.88,16.22,3.04,24.44c0.17,8.71-2.83,18.68,1.23,26.83
					c0.25,0.51-0.51,0.95-0.76,0.44c-3.65-7.56-1.36-16.07-1.29-24.09c0.08-9.4-1.39-18.72-3.19-27.91
					C379.58,227.84,374.27,209.84,377.08,192.41z"/>
				<path class="st16" d="M373.8,204.41c0.32-0.2,0.68-0.27,1.06-0.11c0.4,0.17,0.72,0.59,0.7,1.04c-0.02,0.4-0.21,0.78-0.56,0.98
					c-0.42,0.25-0.86,0.17-1.24-0.07C372.95,205.95,372.96,204.68,373.8,204.41z"/>
				<path class="st16" d="M376.86,229.39c0.1,0,0.2-0.01,0.3-0.01c0.55-0.03,1.09,0.5,1.06,1.06c-0.02,0.55-0.46,1.09-1.06,1.06
					c-0.1,0-0.2-0.01-0.3-0.01c-0.55-0.02-1.07-0.46-1.05-1.04C375.84,229.85,376.27,229.42,376.86,229.39z"/>
				<path class="st16" d="M381.14,278.92c0.57,0,1.12,0.5,1.1,1.09c-0.03,0.59-0.48,1.1-1.09,1.1c-0.57,0-1.12-0.5-1.1-1.1
					C380.07,279.43,380.52,278.93,381.14,278.92z"/>
			</g>
			<g>
				<path class="st33" d="M390.87,182.1c0.35-3.03-1.61-5.57-2.07-8.3c-4.07-0.22-10.92,3.75-14.65,5.75
					c-5.22,2.79-3.79,6.58-3.76,12.34C375.06,192.47,387.71,186.89,390.87,182.1z"/>
				<g>
					<path class="st2" d="M373.37,165.32c0.17-0.62,0.51-1.17,0.86-1.71c3.02-4.72,16.21-23.37,23-18.74
						c0.08,0.06,0.16,0.12,0.24,0.18c-2.67,11.55-3.18,23.34-3.07,35.17c-6.68,2.75-12.86,6.7-18.13,11.65l-2.93-23.89
						C373.24,167.1,373.13,166.18,373.37,165.32z"/>
					<path class="st10" d="M375.06,181.96l-1.71-13.97c-0.11-0.89-0.22-1.8,0.02-2.66c0.17-0.62,0.51-1.17,0.86-1.71
						c3.02-4.72,16.21-23.37,23-18.74c0.08,0.06,0.16,0.12,0.24,0.18c-1.28,5.52-2.06,11.11-2.51,16.72
						C388.9,168.56,382.44,175.99,375.06,181.96z"/>
					<path class="st2" d="M394.95,161.78c-0.5,6.12-0.61,12.28-0.55,18.45c-6.68,2.75-10.74,11.99-18.13,11.65l-1.22-9.92
						C382.44,175.99,388.9,168.56,394.95,161.78z"/>
				</g>
				<g>
					<path class="st18" d="M400.82,145.13c0.05,0.01,0.1,0.01,0.15,0.01c-0.12,0.01-0.25,0.01-0.38-0.01
						c-0.33-0.04-1.47-0.7-1.85-1.39c0.07-0.2,0.13-0.39,0.2-0.6C398.68,143.97,400.4,145.09,400.82,145.13z"/>
					<path class="st18" d="M398.98,138.67c-0.43,0.29-0.85,0.46-1.24,0.4c0.3-0.04,0.62-0.19,0.94-0.4c0.5-0.33,0.06-2.4,0.8-2.89
						c0.98-0.67,2.17-1,3.3-0.99c-1.05,0.01-2.14,0.35-3.04,0.99C399.04,136.27,399.46,138.34,398.98,138.67z"/>
					<path class="st18" d="M353.17,130.62c0.71-4.48,1.7-8.91,2.82-13.29c0.82-3.22,1.43-6.56,2.66-9.67
						c1.88-4.75,5.03-7.51,9.71-7.2c-3.78,0.28-6.38,2.94-8.01,7.2c-1.18,3.1-1.77,6.45-2.56,9.67c-1.08,4.39-2.03,8.82-2.72,13.29
						c-1.33,8.71-1.64,17.68,0.17,26.35c0.42,2.04,1.93,7.91,3.23,9.51c2.05,2.53,5.59,3.28,8.85,3.36
						c-3.22,1.22-8.35,2.2-10.79-0.7c-1.35-1.6-2.75-10.13-3.2-12.17C351.47,148.3,351.79,139.33,353.17,130.62z"/>
					<path class="st2" d="M358.48,166.47c-1.3-1.6-2.81-7.46-3.23-9.51c-1.81-8.67-1.5-17.64-0.17-26.35
						c0.68-4.48,1.64-8.91,2.72-13.29c0.79-3.22,1.38-6.56,2.56-9.67c1.63-4.26,4.23-6.92,8.01-7.2c1.1-0.08,2.3,0.04,3.61,0.38
						c4.05,1.06,8.24,1.99,11.89,4.17c2.87,1.73,6.84,4.51,7.48,8.18c0.32,1.83-0.2,3.7-0.17,5.55c0.03,1.86,5.31,6.34,5.34,7.49
						c0.05,2.88,0.11,5.76,0.17,8.64c0.02,0.96-0.19,2.79,0.29,3.6c0.22,0.36,0.48,0.54,0.78,0.59c0.38,0.06,0.81-0.1,1.24-0.4
						c0.48-0.33,0.06-2.4,0.77-2.89c0.9-0.64,1.99-0.97,3.04-0.99c1.84-0.03,3.58,0.94,4.05,3.04c0.04,0.14,0.06,0.28,0.08,0.43
						c0.05,0.36,0.05,0.73,0.01,1.09c-0.14,1.21-0.75,2.37-1.64,3.19c-1.35,1.24-2.59,2.68-4.29,2.6c-0.01,0.01-0.01,0.01-0.02,0
						c-0.05,0-0.1,0-0.15-0.01c-0.42-0.04-2.14-1.16-1.88-1.99c-0.07,0.2-0.13,0.4-0.2,0.6c-0.11-0.2-0.16-0.41-0.1-0.6
						c-2.31,6.97-5.04,13.28-11.31,17.08c-6.27,3.8-20,9.6-20,9.6l-0.17,0C363.9,169.74,360.53,169,358.48,166.47z"/>
				</g>
				<path class="st14" d="M373.78,125.48c0.93-0.39,2.1,0.1,2.36,1.13c0.26,1.05-0.31,2.18-1.44,2.33
					c-0.51,0.07-1.04-0.07-1.41-0.45c-0.09-0.09-0.2-0.25-0.27-0.36c-0.08-0.14-0.14-0.28-0.18-0.43c-0.04-0.13,0-0.04,0.12,0.26
					C372.47,127.03,372.79,125.9,373.78,125.48z"/>
				<path class="st14" d="M356.15,122.52c0.93-0.39,2.1,0.1,2.36,1.13c0.26,1.05-0.31,2.18-1.44,2.33
					c-0.51,0.07-1.04-0.07-1.41-0.45c-0.09-0.09-0.2-0.25-0.27-0.36c-0.08-0.14-0.14-0.28-0.18-0.43c-0.04-0.13,0-0.04,0.12,0.26
					C354.83,124.08,355.16,122.94,356.15,122.52z"/>
				<path class="st14" d="M372.82,113.95c2.76-1.21,6.66,0.77,8.89,2.53c0.84,0.66,0.89,2.16-0.04,1.58
					c-1.28-0.79-3.41-1.42-4.84-1.77c-1.32-0.32-2.71-0.15-4-0.57C371.97,115.45,372.08,114.27,372.82,113.95z"/>
				<path class="st14" d="M357.13,113.22c1.18-1.41,3.63-1.59,5.4-0.96c1.42,0.5,0.92,2.24-0.64,2c-1.39-0.21-2.71,0.04-4.1-0.05
					C357.28,114.17,356.76,113.66,357.13,113.22z"/>
				<g>
					<path class="st2" d="M347.93,140.39c-0.22,0.53-0.42,1.08-0.37,1.63c0.09,0.97,0.98,1.78,2.05,2.25
						c1.07,0.46,2.3,0.63,3.51,0.79c1.93,0.26,5.43,0.91,6.96-0.12c1.25-0.84,1.3-2.13,0.92-3.22c-1.35-3.87-0.62-8.79-2.09-12.58
						c-0.16-0.41-0.34-0.83-0.73-1.12C355.85,126.33,348.65,138.66,347.93,140.39z"/>
					
						<radialGradient id="SVGID_2_" cx="236.434" cy="150.5266" r="11.0934" gradientTransform="matrix(-0.9766 0.1928 0.264 0.9758 538.1186 -49.211)" gradientUnits="userSpaceOnUse">
						<stop  offset="0" style="stop-color:#FF8A65"/>
						<stop  offset="1" style="stop-color:#FF8864;stop-opacity:0"/>
					</radialGradient>
					<path class="st34" d="M348.86,140.21c-0.18,0.52-0.34,1.07-0.27,1.61c0.11,0.97,0.92,1.8,1.88,2.28
						c0.96,0.48,2.05,0.68,3.12,0.87c1.71,0.3,4.82,1.03,6.13,0.04c1.08-0.81,1.08-2.08,0.71-3.18c-1.31-3.87-0.82-8.75-2.25-12.55
						c-0.15-0.41-0.33-0.83-0.68-1.13C355.41,126.42,349.44,138.51,348.86,140.21z"/>
					<path class="st3" d="M347.43,140.76c0.61-1.97,2.15-3.91,3.3-5.66c1.29-1.97,2.63-4.02,4.29-5.77c0.14-0.15,0.4,0.05,0.3,0.21
						c-2.04,2.99-4.32,5.79-6.06,8.94c-0.46,0.84-1.1,1.69-1.26,2.62c-0.21,1.23,0.66,2.22,1.86,2.8c1.63,0.8,3.8,0.83,5.58,1.3
						c0.15,0.04,0.08,0.22-0.07,0.2c-2.12-0.37-4.39-0.13-6.28-1.25C347.77,143.36,347,142.14,347.43,140.76z"/>
					<path class="st3" d="M355.54,143.76c1.12-0.28,2.46-0.12,3.57,0.17c0.17,0.05,0.18,0.25,0.04,0.32
						c-0.21,0.11-0.41,0.21-0.62,0.3c-0.13,0.05-0.27-0.09-0.15-0.18c0.06-0.05,0.13-0.09,0.2-0.14c-1-0.1-1.97-0.09-2.99-0.15
						C355.37,144.05,355.35,143.8,355.54,143.76z"/>
					<path class="st3" d="M359.89,144.71c0.31-0.45,0.74-0.71,0.88-1.26c0.15-0.56-0.03-1.02-0.24-1.55
						c-0.04-0.1,0.11-0.14,0.18-0.08c0.54,0.39,0.66,1.13,0.55,1.7c-0.11,0.53-0.5,1.32-1.18,1.42
						C359.93,144.97,359.81,144.83,359.89,144.71z"/>
				</g>
				<path class="st3" d="M400.52,141c0.29-0.02,0.53,0.04,0.77-0.17c0.3-0.26,0.29-0.67,0.3-1.04c0.01-0.43-0.5-1.29-0.42-1.72
					c0.12-0.71,0.99-0.97,1.76-1.09c0.77-0.12,1.5,0.41,1.8,1.1c0.4,0.93,0.1,1.85-0.41,2.65c-0.06,0.1-0.23,0.07-0.23-0.06
					c0.04-0.77,0.42-2.82-0.87-2.79c-1.02,0.02-0.63,1.78-0.69,2.41c-0.06,0.61-0.33,1.17-0.87,1.49c-0.48,0.28-1.15,0.32-1.45-0.21
					C400.05,141.31,400.23,141.02,400.52,141z"/>
				<path class="st14" d="M400.1,140.57c0.03-0.02,0.06-0.05,0.09-0.07c0.05-0.04,0.13-0.03,0.18,0c0.33,0.09,0.57-0.09,0.72-0.55
					c-0.06-0.23-0.16-0.44-0.31-0.62c-0.09-0.19-0.18-0.32-0.22-0.54c-0.08-0.41,0.04-0.84,0.26-1.2c0.49-0.77,1.43-1.1,2.31-1.04
					c0.89,0.07,1.58,0.53,1.91,1.37c0.27,0.7,0.3,1.87-0.26,2.43c-0.1,0.1-0.28,0-0.25-0.14c0.16-0.58,0.4-1.01,0.14-1.63
					c-0.19-0.46-0.54-0.8-0.98-1.02c-0.5-0.26-1.11-0.29-1.62-0.03c-0.77,0.39-0.76,0.9-0.42,1.56c0.6,1.14-0.07,2.5-1.47,2.23
					C399.82,141.25,399.85,140.76,400.1,140.57z"/>
				<path class="st3" d="M401.12,142.51c0.25,0.01,0.42,0.21,0.67,0.21c0.26,0,0.44-0.12,0.65-0.26c0.11-0.07,0.29,0.02,0.27,0.16
					c-0.04,0.42-0.46,0.69-0.85,0.74c-0.38,0.04-1.01-0.1-1-0.59C400.86,142.63,400.97,142.5,401.12,142.51z"/>
				<path class="st3" d="M373.91,130.83c0.47-0.02,0.89,0.05,1.35-0.09c0.49-0.15,0.81-0.46,1.19-0.77
					c0.19-0.16,0.55-0.02,0.46,0.26c-0.37,1.15-2.12,1.93-3.2,1.32C373.37,131.36,373.53,130.84,373.91,130.83z"/>
				<path class="st3" d="M354.91,126.57c0.35,0.16,0.67,0.45,0.92,0.75c0.22,0.26-0.07,0.74-0.39,0.51
					c-0.34-0.23-0.68-0.53-0.89-0.89C354.39,126.69,354.68,126.46,354.91,126.57z"/>
				<g>
					<path class="st20" d="M372.54,153.08c-0.24,0.33-0.49,0.64-0.79,0.94c-0.9,0.89-2.1,1.62-3.44,2.1
						c-1.34,0.48-2.78,0.77-4.24,0.94c-0.85,0.09-1.73,0.12-2.6,0.12C363.05,154.14,368.54,152.35,372.54,153.08z"/>
					<path class="st21" d="M358.58,151.18c-0.05-0.14-0.1-0.28-0.13-0.42c1.1,0.01,2.19-0.03,3.27-0.1c2.1-0.14,4.18-0.42,6.15-0.9
						c1.96-0.49,3.82-1.23,5.15-2.35l0.71-0.59l0.09,0.81c0.12,1.11,0.09,2.24-0.23,3.34c0,0.02-0.01,0.03-0.01,0.05l-0.01,0
						c-0.21,0.71-0.56,1.41-1.03,2.05c-4-0.73-9.49,1.06-11.08,4.1c-0.61,0-1.22-0.02-1.81-0.04c-0.41-0.01-0.82-0.01-1.21,0.02
						c0.04-0.15,0.07-0.31,0.1-0.48c0.22-1.15,0.39-2.7,0.45-3.6c0.02-0.34,0.02-0.59,0.01-0.68
						C358.96,152.04,358.75,151.61,358.58,151.18z"/>
					<g>
						<path class="st22" d="M356.5,150.71c0.01,0.12,0.01,0.23,0.01,0.35c0.02,0.44,0.03,0.89,0.04,1.33
							c0.01,0.14,0.02,0.3,0.15,0.41c0.13,0.1,0.33,0.13,0.52,0.15c0.59,0.06,1.19,0.09,1.78,0.11c1.65,0.06,3.3,0,4.93-0.15
							c1.93-0.17,3.82-0.47,5.69-0.82c0.87-0.16,1.88-0.32,2.79-0.59c0.42-0.13,0.81-0.28,1.16-0.47l0.01,0
							c0-0.02,0.01-0.03,0.01-0.05c0.31-1.11,0.35-2.23,0.23-3.34l-0.09-0.81l-0.71,0.59c-1.33,1.12-3.2,1.86-5.15,2.35
							c-1.97,0.48-4.05,0.76-6.15,0.9c-1.08,0.07-2.17,0.1-3.27,0.1C357.8,150.76,357.15,150.75,356.5,150.71z"/>
						<path class="st3" d="M354.54,150.63c0,0.02,0-0.02,0,0.04c0,0.04,0.03,0.09,0.06,0.12c0.02,0.01,0.05,0.02,0.07,0.03
							c0.11,0.04,0.17,0.05,0.24,0.06c0.14,0.03,0.28,0.05,0.41,0.07c0.4,0.04,0.8,0.09,1.2,0.12c0.69,0.06,1.38,0.09,2.07,0.11
							c1.07,0.03,2.14,0.02,3.21-0.02c2.15-0.09,4.3-0.3,6.37-0.8c1.72-0.41,3.41-1.02,4.8-1.94c0.02,1.06-0.15,2.1-0.55,3.08
							c-0.31,0.75-0.76,1.46-1.4,2.09c-1.6,1.68-4.32,2.54-7.1,2.87c-1.4,0.19-2.8,0.21-4.28,0.18c-0.35,0-0.71,0.01-1.08,0.02
							c-0.38,0.03-0.77,0.08-1.15,0.15c-0.72,0.15-1.48,0.47-1.84,1.02c-0.74,1.05-0.1,2.52,1.35,3.02c1.4,0.5,2.93,0.44,4.35,0.33
							c-0.72,0.02-1.45,0.01-2.17-0.06c-0.72-0.07-1.44-0.2-2.05-0.46c-1.28-0.5-1.66-1.8-1.03-2.64c0.31-0.42,0.91-0.66,1.56-0.78
							c0.28-0.05,0.58-0.08,0.87-0.09c0.39-0.03,0.8-0.02,1.21-0.02c1.42,0.06,2.96,0.09,4.41-0.07c1.46-0.17,2.9-0.46,4.24-0.94
							c1.34-0.49,2.54-1.21,3.44-2.1c0.89-0.88,1.51-1.91,1.83-2.99l0.01,0c0-0.02,0.01-0.03,0.01-0.05
							c0.31-1.11,0.35-2.23,0.23-3.34l-0.09-0.81l-0.71,0.59c-1.33,1.12-3.2,1.86-5.15,2.35c-1.97,0.48-4.05,0.76-6.15,0.9
							c-1.08,0.07-2.17,0.1-3.27,0.1c-0.65,0-1.3-0.02-1.95-0.05c-0.38-0.01-0.76-0.04-1.14-0.07c-0.14-0.01-0.26-0.02-0.39-0.04
							l-0.03-0.01l0.25-0.54c0.18-0.38,0.32-0.77,0.43-1.16c0.22-0.79,0.27-1.6,0.24-2.4c-0.04,0.8-0.19,1.59-0.45,2.35
							c-0.14,0.38-0.31,0.75-0.51,1.11l-0.31,0.55l-0.04,0.08L354.54,150.63z"/>
					</g>
				</g>
				<path class="st31" d="M399.27,182.09c0.35-3.03-1.61-5.57-2.07-8.3c-4.07-0.22-10.92,3.75-14.65,5.75
					c-5.22,2.79-3.79,6.58-3.76,12.34C383.47,192.46,396.11,186.88,399.27,182.09z"/>
				<path class="st32" d="M380.83,185.35c0.05-0.48,0.69-0.74,0.96-0.26c1.21,2.13,2.35,4.38,3.33,6.63
					c0.18,0.41-0.37,0.77-0.62,0.36c-1.03-1.64-2-3.36-2.9-5.09c-0.27,2.22-0.16,4.44-0.19,6.68c-0.01,0.43-0.71,0.57-0.79,0.11
					C380.16,190.98,380.54,188.15,380.83,185.35z"/>
				<path class="st32" d="M384.87,191.21c1.35-1.42,3.63-2.09,5.29-3.14c1.92-1.22,3.68-2.68,5.49-4.06
					c0.38-0.29,0.76,0.3,0.48,0.62c-1.54,1.78-3.4,3.18-5.4,4.41c-1.63,1.01-3.77,2.5-5.75,2.43
					C384.85,191.46,384.78,191.3,384.87,191.21z"/>
				<path class="st32" d="M372.67,185.1c0.52,1.1,0.9,2.25,1.3,3.39c0.44,1.25,1.04,2.54,1.24,3.85c0.08,0.56-0.66,1-0.98,0.42
					c-0.58-1.06-0.87-2.29-1.23-3.44c-0.41-1.28-0.87-2.56-1.14-3.88C371.77,184.99,372.45,184.62,372.67,185.1z"/>
			</g>
			<path class="st35" d="M404.2,181.98c-5.11-0.83-14.41,6.53-17.17,11.04c-4.88,7.97-0.99,26.31,0.89,39.6
				c2.59,18.37,5.65,36.46,6.59,54.95c0.82,16.01,2.77,33.11,1.24,49.23c-0.69,7.29-2.37,14.42-2.7,21.59
				c-0.33,7.2,3.61,6.21,9.97,6.75c10.09,0.85,26.26-15.3,33.01-25.07c3.26-4.71,6.46-11.2,6.21-16.29
				c-0.46-9.01-4.86,0.07-5.36-8.92c-1.08-19.36-1.24-31.05-3.01-50.37c-1.71-18.63-3.68-38.71-10.95-56.08
				c-3.45-8.24-7.53-18.5-14.48-24.42C407.13,182.85,405.69,182.22,404.2,181.98z"/>
			<g>
				<path class="st35" d="M411.47,198.63c-0.79-4.16-2.71-9.86-6.54-12.34c-5.44-3.52-10.57,1.67-13.03,6.23
					c-4.68,8.67-8.32,17.85-11.96,27.01c-2.5,6.3-5,12.6-7.49,18.89c-0.32,0.81-0.69,1.68-1.42,2.15c-0.71,0.46-1.61,0.45-2.41,0.73
					c-0.8,0.28-1.56,1.13-1.19,1.89c-10.36-7.1-26.98-17.38-38.29-22.82c-0.73-0.35-1.53-0.71-2.33-0.55
					c-0.96,0.19-1.61,1.07-2.16,1.89c-1.58,2.34-2.19,3.34-2.83,4.38c-1.53,2.49-1.03,5.72,1.19,7.62
					c13.44,11.51,31.84,24.82,45.59,34.07c3.22,2.16,7.9,5.44,12,4.28c6.11-1.74,8.9-12.39,11.66-17.28
					c5.12-9.06,9.91-18.33,13.87-27.96c2.73-6.63,5.24-13.55,5.86-20.75C412.16,204.12,412.01,201.43,411.47,198.63z"/>
				<path class="st7" d="M372.12,242.84c1.97,2.4,3.02,5.32,2.87,8.43c-0.02,0.48-0.76,0.55-0.76,0.05
					c0.01-2.85-0.99-5.66-2.98-7.73C370.67,242.99,371.58,242.19,372.12,242.84z"/>
				<path class="st7" d="M370.86,244.87c0.03,2.28-0.5,4.45-1.61,6.44c-0.18,0.33-0.69,0.08-0.52-0.26c0.98-1.92,1.43-3.97,1.3-6.12
					C369.99,244.38,370.86,244.33,370.86,244.87z"/>
				<path class="st7" d="M368.06,245.48c0.5,1.24-0.35,2.66-1.35,3.37c-0.29,0.21-0.59-0.25-0.3-0.46c0.98-0.74,1.1-1.74,1.21-2.87
					C367.64,245.26,367.98,245.29,368.06,245.48z"/>
				<path class="st7" d="M333.85,234.93c0.68-0.66,1.29-1.4,1.81-2.2c0.52-0.8,0.95-1.65,1.3-2.54c0.3-0.78,0.38-1.59,0.88-2.27
					c0.07-0.1,0.25-0.05,0.28,0.06c0.51,1.66-0.88,4.1-1.74,5.44c-0.84,1.31-2.33,3.44-4,3.7c-0.23,0.04-0.41-0.26-0.3-0.45
					C332.49,235.92,333.23,235.53,333.85,234.93z"/>
				<path class="st7" d="M349.05,253.76c6.35,3.65,12.34,8.04,18.44,12.09c2.63,1.75,5.3,3.92,8.29,5.02
					c4.18,1.54,7.37-0.53,9.66-3.9c3.82-5.62,6.52-12.25,9.61-18.3c3.43-6.71,6.73-13.53,10.72-19.93c0.09-0.14,0.3-0.04,0.23,0.12
					c-3.32,8.07-7.57,15.75-11.57,23.5c-2,3.88-3.97,7.78-5.98,11.65c-1.25,2.4-2.6,4.93-4.72,6.68c-4.41,3.65-9.32,1.28-13.47-1.5
					c-7.22-4.84-14.73-9.55-21.58-14.9C348.4,254.07,348.73,253.58,349.05,253.76z"/>
				<path class="st7" d="M388.07,198.94c0.08-0.15,0.35-0.08,0.3,0.1c-1.96,7.01-5.21,13.72-7.97,20.45
					c-2.91,7.09-5.56,14.37-8.81,21.31c-0.3,0.64-1.19,0.16-0.96-0.48c2.52-7.03,5.67-13.89,8.52-20.79
					C381.99,212.67,384.45,205.44,388.07,198.94z"/>
				<path class="st7" d="M351.58,232.94c3.68,0.81,12.57,7.04,15.64,9.17c0.97-1.5,2.74-2.71,4.45-1.72
					c0.09,0.05,0.09,0.2-0.02,0.23c-1.63,0.56-2.94,0.69-3.79,2.48c-0.11,0.23-0.47,0.4-0.71,0.24c-3.28-2.2-11.56-7.8-15.06-9.56
					C351.64,233.55,351.06,232.83,351.58,232.94z"/>
			</g>
			<path class="st7" d="M422.49,287.28c-6.28-0.01-13.02,0.01-19.23,0.99c-0.51,0.08-0.33,0.8,0.12,0.84
				c6.21,0.59,12.89,0.17,19.11-0.23C423.52,288.82,423.53,287.28,422.49,287.28z"/>
			<path class="st7" d="M415.16,296.45c-1.42-1.69-3.56-2.07-5.62-2.53c-1.39-0.31-2.81-0.65-3.95-1.53
				c-1.28-0.99-1.22-2.13-2.01-3.29c-0.04-0.05-0.11-0.07-0.16-0.02c-1.3,1.4,0.56,3.65,1.76,4.49c2.8,1.94,6.55,1.73,9.49,3.54
				C415.08,297.37,415.45,296.8,415.16,296.45z"/>
			<path class="st7" d="M423.04,287.41c-0.45-0.1-0.99,0.42-0.66,0.87c0.78,1.05,1.3,2.3,0.32,3.45c-0.96,1.12-2.76,1.37-4.07,1.87
				c-1.62,0.61-3.11,1.52-3.54,3.3c-0.09,0.38,0.46,0.53,0.59,0.16c1.15-3.45,5.84-2.53,7.89-5.09
				C424.57,290.69,425.24,287.89,423.04,287.41z"/>
			<path class="st36" d="M352.84,120.49c-0.53,0.28-1.01,0.65-1.42,1.14c-1.91,2.3-2.64,6.1-0.55,8.5c2.79,3.2,7.54,1.39,10.03-1.21
				c2.33-2.43,2.24-5.62-0.58-7.58C358.29,119.93,355.12,119.3,352.84,120.49z M357.88,129.3c-2.61,1.46-6.22,1.07-6.59-2.43
				c-0.46-4.29,3.21-6.61,7.16-5.2c1.75,0.62,3.35,1.94,2.78,4.05C360.84,127.16,359.1,128.61,357.88,129.3z"/>
			<path class="st36" d="M370.38,122.26c-1.31,0.67-2.38,1.79-2.97,3.46c0,0.01,0,0.01,0,0.02c-1.43,2.75-1.69,6.05,0.5,8.56
				c3.48,3.99,9.42,1.73,12.53-1.51c2.76-2.88,2.89-6.71-0.38-9.22C377.4,121.51,373.3,120.76,370.38,122.26z M376.66,133.25
				c-3.26,1.82-7.77,1.34-8.24-3.04c-0.19-1.73,0.22-4.42,1.65-5.57c2.06-1.66,4.89-1.79,7.3-0.93c2.18,0.78,4.18,2.43,3.48,5.07
				C380.37,130.58,378.19,132.4,376.66,133.25z"/>
			<path class="st36" d="M368.29,126c-0.38-1.21-1.37-2.02-2.61-2.28c-0.91-0.19-3.31-0.23-3.63,0.91c-0.02,0.06,0,0.12,0.04,0.16
				c0.59,0.59,1.56,0.09,2.29,0.05c1.13-0.07,2.44,0.25,2.84,1.45C367.44,126.97,368.51,126.68,368.29,126z"/>
			<path class="st36" d="M406.18,134.04c-1.87-3-6.05-3.49-9.14-4.18c-4.58-1.03-10.48-2.78-15.19-2.55
				c-0.23,0.01-0.5,1.9-0.24,1.92c3.93,0.31,8.33,0.68,12.21,1.55c4.08,0.91,8.29,1.45,11.78,3.85
				C405.96,134.87,406.4,134.39,406.18,134.04z"/>
		</g>
		<g>
			<path class="st37" d="M376.22,287.95l-197.25,0.39c-1.76,0-3.19-1.42-3.19-3.18l0,0c0-1.76,1.42-3.19,3.18-3.19l197.25-0.39
				c1.76,0,3.19,1.42,3.19,3.18l0,0C379.4,286.52,377.98,287.95,376.22,287.95z"/>
			<g>
				<path class="st37" d="M207.8,284.81l0.28,144.02c0,1.97,1.43,3.57,3.19,3.57c1.76,0,3.18-1.61,3.18-3.58l-0.28-144.02
					L207.8,284.81z"/>
				<path class="st37" d="M341.01,284.55l0.28,144.02c0,1.97,1.43,3.57,3.19,3.57c1.76,0,3.18-1.61,3.18-3.58l-0.28-144.02
					L341.01,284.55z"/>
			</g>
		</g>
		<g>
			
				<rect x="316.07" y="275.1" transform="matrix(1 -1.967255e-03 1.967255e-03 1 -0.5458 0.6475)" class="st38" width="25.62" height="5.33"/>
			
				<rect x="316.07" y="280.43" transform="matrix(1 -1.998442e-03 1.998442e-03 1 -0.5607 0.6578)" class="st33" width="25.62" height="0.9"/>
			<g>
				<path class="st38" d="M303.95,275.15l-17.97,0.04l0.01,5.33l23.78-0.05C309.51,277.48,307.01,275.15,303.95,275.15z"/>
				<path class="st38" d="M286,280.52l0,0.9l23.81-0.05l0-0.39c0-0.17-0.01-0.34-0.03-0.51L286,280.52z"/>
				<path class="st39" d="M276.08,280.53l0,0.9l23.81-0.05l0-0.39c0-0.17-0.01-0.34-0.03-0.51L276.08,280.53z"/>
				<path class="st35" d="M294.03,275.17l-17.97,0.04l0.01,5.33l23.78-0.05C299.59,277.5,297.09,275.17,294.03,275.17z"/>
				<path class="st31" d="M299.91,280.49c-0.01,0.17-0.03,0.34-0.02,0.51l0,0.39l23.81-0.05l0-0.9L299.91,280.49z"/>
				<path class="st35" d="M323.68,275.11l-17.97,0.04c-3.05,0.01-5.55,2.35-5.81,5.34l23.78-0.05L323.68,275.11z"/>
			</g>
		</g>
	</g>
</g>
<g id="DESIGNED_BY_FREEPIK">
</g>
</svg>
