<svg version="1.2" xmlns="http://www.w3.org/2000/svg" viewBox="0 0 1500 1000" width="1500" height="1000">
	<title>3641637-ai</title>
	<style>
		.s0 { fill: #1f0004 } 
		.s1 { fill: #200803 } 
		.s2 { fill: none;stroke: #ffffff;stroke-width: 2.1 } 
		.s3 { fill: #ffffff } 
		.s4 { fill: #2862b7 } 
		.s5 { fill: none;stroke: #1f0004;stroke-linecap: round;stroke-linejoin: round;stroke-width: 1 } 
		.s6 { fill: #f5b087 } 
		.s7 { fill: #e09069 } 
		.s8 { fill: #291c1c } 
		.s9 { fill: none;stroke: #ffffff;stroke-linecap: round;stroke-linejoin: round;stroke-width: 1 } 
		.s10 { fill: #8bd5ee } 
		.s11 { fill: #afe2fd } 
		.s12 { fill: none;stroke: #cfeae7;stroke-linecap: round;stroke-linejoin: round;stroke-width: 2.1 } 
		.s13 { fill: #357dd1 } 
		.s14 { fill: #241812 } 
		.s15 { fill: #255d9f } 
		.s16 { fill: #245891 } 
		.s17 { fill: #000000 } 
		.s18 { fill: none;stroke: #ffffff;stroke-width: 1.7 } 
		.s19 { fill: none;stroke: #23538a;stroke-linecap: round;stroke-linejoin: round;stroke-width: 2.1 } 
		.s20 { fill: none;stroke: #1f0004;stroke-linecap: round;stroke-linejoin: round;stroke-width: 2.1 } 
		.s21 { fill: #c7777a } 
		.s22 { fill: none;stroke: #000000;stroke-linecap: round;stroke-linejoin: round;stroke-width: 1.8 } 
		.s23 { fill: #ac555d } 
		.s24 { fill: #210702 } 
		.s25 { fill: none;stroke: #ffffff;stroke-width: 2 } 
		.s26 { fill: #101010 } 
		.s27 { fill: #5fbba6 } 
		.s28 { fill: #50ab95 } 
		.s29 { fill: #cd615a } 
		.s30 { fill: none;stroke: #5fbba6;stroke-width: 2 } 
		.s31 { fill: none;stroke: #a8d4cd;stroke-width: 3.1 } 
	</style>
	<g id="BACKGROUND">
	</g>
	<g id="OBJECTS">
		<g id="&lt;Group&gt;">
			<g id="&lt;Group&gt;">
				<g id="&lt;Group&gt;">
					<g id="&lt;Group&gt;">
						<path id="&lt;Path&gt;" class="s0" d="m884.2 902.6l-103.1 1.2 59.9-32h36.3z"/>
						<g id="&lt;Group&gt;">
							<path id="&lt;Path&gt;" class="s1" d="m852.6 916.5l-71.2 0.9-0.3-13.6 103.1-1.2 0.3 13.6-19.4 0.2c-0.1-3.5-2.8-6.4-6.2-6.4-3.5 0-6.3 2.9-6.3 6.5z"/>
						</g>
						<path id="&lt;Path&gt;" class="s2" d="m816 883.6l11.8 3.2"/>
						<path id="&lt;Path&gt;" class="s2" d="m827.6 877.6l11.9 3.3"/>
					</g>
					<path id="&lt;Path&gt;" class="s3" d="m840.3 820.7h37v51.1h-37z"/>
				</g>
				<g id="&lt;Group&gt;">
					<g id="&lt;Group&gt;">
						<path id="&lt;Path&gt;" class="s0" d="m926.9 871.8h36.2l60 32-103.1-1.2z"/>
						<g id="&lt;Group&gt;">
							<path id="&lt;Path&gt;" class="s1" d="m945.3 910c-3.4 0-6.2 2.9-6.3 6.4l-19.4-0.2 0.4-13.6 103.1 1.2-0.4 13.6-71.2-0.9c0-3.6-2.8-6.5-6.2-6.5z"/>
						</g>
						<path id="&lt;Path&gt;" class="s2" d="m988.2 883.6l-11.9 3.2"/>
						<path id="&lt;Path&gt;" class="s2" d="m976.6 877.6l-11.9 3.3"/>
					</g>
					<path id="&lt;Path&gt;" class="s3" d="m963.8 871.8h-36.9l-2.6-51.1h37z"/>
				</g>
				<g id="&lt;Group&gt;">
					<path id="&lt;Path&gt;" class="s4" d="m949.1 453.1q2.4 25.7 19.5 399h-49.9l-21.9-335.4-9 0.2-5.8 335.2h-49.8q-2.8-348.8 0.1-398.2z"/>
					<path id="&lt;Path&gt;" class="s5" d="m875.2 517h30.5"/>
				</g>
			</g>
			<g id="&lt;Group&gt;">
				<g id="&lt;Group&gt;">
					<circle id="&lt;Path&gt;" class="s6" cx="854.1" cy="163.8" r="13"/>
					<path id="&lt;Path&gt;" class="s5" d="m846.7 162q5.2-2.5 10.1 6.5"/>
				</g>
				<g id="&lt;Group&gt;">
					<circle id="&lt;Path&gt;" class="s6" cx="927.6" cy="164.1" r="13"/>
					<path id="&lt;Path&gt;" class="s5" d="m934.9 162.1q-5.2-2.4-9.9 6.7"/>
				</g>
				<path id="&lt;Path&gt;" class="s1" d="m860.2 167.9q-24.6-32.8-11.4-53.5 8.8-13.9 19.7-9.6z"/>
				<path id="&lt;Path&gt;" class="s1" d="m912.8 104.8q10.9-4.3 19.8 9.6 13.1 20.7-11.4 53.5z"/>
				<circle id="&lt;Path&gt;" class="s1" cx="890.2" cy="140" r="41.1"/>
				<g id="&lt;Group&gt;">
					<g id="&lt;Group&gt;">
						<path id="&lt;Path&gt;" class="s6" d="m909.7 235.7l-39 0.3 3.2-45.4q6.1 7.1 6.2 7.1c0.1 0 6.6 3.9 13.3 2.7q6.7-1.3 12.2-8.4z"/>
					</g>
					<path id="&lt;Path&gt;" class="s7" d="m905.6 192l2.1 24.9-31.8-17.8z"/>
					<path id="&lt;Path&gt;" class="s6" d="m926 141.4c0.1 14.7-2 27.4-4.1 36.4-2 8.9-7.8 15-16 20l-1.5 0.9c-8.6 5.3-19.7 5.4-28.5 0.4-8.9-5.1-15.1-11.8-17-21.3q-3.5-17.2-3.7-32.3-5-43.1 33.3-43.1 41.5 0 37.5 39z"/>
				</g>
				<path id="&lt;Path&gt;" class="s8" d="m921.2 185.5c-4.6 10.3-11.8 14.5-18 16q-12.9 4.9-27.7-0.8 0 0 0 0-0.3-0.1-0.5-0.2c-5.4-2-11-6.3-14.9-15q-6.2-13.7-4-24.9 3.5 18.5 13.6 16.5c5.6-1.1 8.7-2.8 11.7-3.9q8.7-3.9 17.9 0.2c2.8 1.1 5.8 2.6 11.2 3.7q10.1 2 14.9-18.2 2 12.9-4.2 26.6z"/>
				<g id="&lt;Group&gt;">
					<circle id="&lt;Path&gt;" class="s0" cx="873.9" cy="154.2" r="3.1"/>
					<circle id="&lt;Path&gt;" class="s0" cx="904.4" cy="154.3" r="3.1"/>
					<path id="&lt;Path&gt;" class="s5" d="m891.8 166.9h-4.4l0.4-10.6"/>
					<path id="&lt;Path&gt;" class="s0" d="m903.9 130.2c4.8 0.2 10 3.1 11.4 4.4 0.6 0.6 0.8 1.6 0.3 2.3-0.7 1-2 1.5-3.3 1.2-2.3-0.5-7.1-1.5-11-1.6q-5.2 0-4.3-3.4 0.7-3 6.9-2.9z"/>
					<path id="&lt;Path&gt;" class="s0" d="m881.1 133.2q0.9 3.3-4.2 3.4c-4 0.1-8.8 1.1-11.1 1.6-1.2 0.3-2.6-0.2-3.2-1.2-0.5-0.8-0.4-1.7 0.3-2.3 1.4-1.3 6.5-4.3 11.3-4.4q6.2-0.1 6.9 2.9z"/>
					<path id="&lt;Path&gt;" class="s9" d="m884.5 179.5q7.5 3 12.4-2.1"/>
				</g>
				<path id="&lt;Path&gt;" class="s1" d="m925.7 119.3q-27.6-21-64.4-6.7-17.5-21.5 9.6-29.4c27-7.9 52.3 15.6 54.8 36.1z"/>
			</g>
			<g id="&lt;Group&gt;">
				<g id="&lt;Group&gt;">
					<g id="&lt;Group&gt;">
						<g id="&lt;Group&gt;">
							<path id="&lt;Path&gt;" class="s7" d="m785.1 572l-5.4 32.5c-0.3 1.8-1.9 3.1-3.7 2.9-1.9-0.2-3.2-1.8-3.1-3.7l1-15.7z"/>
							<path id="&lt;Path&gt;" class="s6" d="m782.1 519.9c4.8-1.7 10.1 0.8 11.7 5.7l2.6 7.8q9 14.7 4.7 30.8c-2.7 10-2.8 16.8-2.5 20.5 0.1 1.9-1.1 3.7-3 4.1-2 0.5-4-0.7-4.6-2.6-1.1-3.8-2.5-10.3-2.3-17.6l-17.7 36.2c-0.8 1.6-2.8 2.3-4.3 1.3-1.1-0.6-1.6-1.9-1.4-3.1l7.4-46.3q2.7-16.6 3.5-28.3c0.3-3.8 2.3-7.1 5.9-8.5z"/>
						</g>
						<path id="&lt;Path&gt;" class="s6" d="m809.9 446.1l-16.9 85.5-16.7-3.9 6.6-93.9z"/>
					</g>
					<path id="&lt;Path&gt;" class="s3" d="m840.3 308.5l-33.3 219.8-44.3-1.2q16.4-132.5 23.7-197.9 7.1-63.1 37.6-71.6z"/>
				</g>
				<g id="&lt;Group&gt;">
					<g id="&lt;Group&gt;">
						<path id="&lt;Path&gt;" class="s10" d="m920.5 242.4l14.4 19.2v193.5h-89.6v-185.1l14.7-27.6z"/>
						<g id="&lt;Group&gt;">
							<path id="&lt;Path&gt;" class="s6" d="m909.7 235.7l-17.9 18.2-21.1-17.9z"/>
							<path id="&lt;Path&gt;" class="s11" d="m891.8 253.9l-15.9 16.1-15.9-27.6 10.7-6.4z"/>
							<path id="&lt;Path&gt;" class="s11" d="m909.7 235.7l10.8 6.7-12.8 27.6-15.9-16.1z"/>
						</g>
					</g>
					<g id="&lt;Group&gt;">
						<path id="&lt;Path&gt;" class="s3" d="m872 616.1h-53.4l5.4-358.5 36-15.2z"/>
						<path id="&lt;Path&gt;" class="s12" d="m821.3 436v-108.9"/>
						<path id="&lt;Path&gt;" class="s12" d="m865.1 402l-24.8-107.4 11.4-13.3-17-11.3 24.5-26.7"/>
					</g>
					<g id="&lt;Group&gt;">
						<path id="&lt;Path&gt;" class="s3" d="m920.5 242.4l36 15.2 10.5 358.5h-53.4z"/>
						<path id="&lt;Path&gt;" class="s12" d="m921.7 243.3l24.5 26.7-17 11.3 11.4 13.3-24.8 107.4"/>
					</g>
				</g>
				<g id="&lt;Group&gt;">
					<path id="&lt;Path&gt;" class="s3" d="m951.1 255.7q31.5 2.9 49.9 63.7c11.1 36.8 17.5 66.8 21 85.3 2.2 11.3-1.9 28.9-13.2 31.3-10.6 2.3-24.5-10.3-28-20.5l-36.6-106.8z"/>
					<g id="&lt;Group&gt;">
						<g id="&lt;Group&gt;">
							<path id="&lt;Path&gt;" class="s4" d="m920.7 363.4l20.4-43.7 83-15.4-51 81.8-13 12.3-20.1 3.6-23.8-19.2z"/>
							<path id="&lt;Path&gt;" class="s6" d="m980 417.4q-31.4 2.1-52.8-6.5l-20.8-9.1c-5.2-2.6-8.4-7.9-8.4-13.7v-4.1c0-3.2 1-6.4 2.9-9l4.2-9.2c3.1-4.2 7.6-7 12.7-7.9l5.5-0.5-2.6 6q26.9 2.9 18.3 24l26 2.7q16.8 6.3 15 27.3z"/>
						</g>
						<g id="&lt;Group&gt;">
							<path id="&lt;Path&gt;" class="s3" d="m1008.8 386.8l-2.7 49.5-58.6-4.3 9.6-45.2z"/>
							<path id="&lt;Path&gt;" class="s12" d="m975.2 386.1h26.1"/>
						</g>
					</g>
				</g>
			</g>
		</g>
		<g id="&lt;Group&gt;">
			<g id="&lt;Group&gt;">
				<g id="&lt;Group&gt;">
					<path id="&lt;Path&gt;" class="s6" d="m534.1 306.7l-8.4 92.3-28.5 3.1q-5-47.2-3.1-83.4 2-36.3 26.5-47.7z"/>
					<path id="&lt;Path&gt;" class="s13" d="m526.5 336.5h-38.3q3.6-64.7 29.7-64.9z"/>
				</g>
				<g id="&lt;Group&gt;">
					<g id="&lt;Group&gt;">
						<path id="&lt;Path&gt;" class="s6" d="m525.7 399l-9.5 136.9c-0.3 4.7-4.3 8.2-8.9 7.8-4.4-0.3-7.8-3.8-7.9-8.2l-2.2-133.4z"/>
					</g>
					<g id="&lt;Group&gt;">
						<path id="&lt;Path&gt;" class="s7" d="m499.4 574.3l-10.6 28.1c-0.6 1.6-2.3 2.4-3.9 1.9-1.6-0.5-2.6-2.2-2.1-3.8l3.7-14z"/>
						<path id="&lt;Path&gt;" class="s6" d="m506.1 527.3c4.6-0.7 8.8 2.5 9.4 7.1l0.9 7.4q5.4 14.8-1.3 28.4c-4.2 8.5-5.6 14.5-6 17.9-0.2 1.7-1.6 3.1-3.3 3.1h-0.1c-1.8 0.1-3.4-1.3-3.6-3.1-0.3-3.6-0.4-9.7 1.2-16.2l-22.4 29.2c-1 1.3-2.9 1.5-4.1 0.4-0.8-0.8-1.1-2-0.6-3.1l14.9-40q5.4-14.3 8.2-24.6c0.9-3.4 3.4-6 6.8-6.5z"/>
					</g>
				</g>
			</g>
			<g id="&lt;Group&gt;">
				<g id="&lt;Group&gt;">
					<g id="&lt;Group&gt;">
						<path id="&lt;Path&gt;" class="s14" d="m558.1 883.3q6.8 3.8 5.2 29.3l-22.3 2.6v-5.1q-48.1 7.5-59 7.3c-4.9-0.1-6.8-1.9-7.3-3.9-0.8-2.5 0.7-5.1 3-6.3l22-10.8z"/>
						<path id="&lt;Path&gt;" class="s6" d="m555 868.1l3.1 15.2q-21 9.8-37.8 16.3-16.8 6.5-20.6-3.2l35.4-25.6z"/>
					</g>
					<path id="&lt;Path&gt;" class="s6" d="m531.2 880l-3.1-88 35.4-3.4-5.4 94.7z"/>
				</g>
				<g id="&lt;Group&gt;">
					<g id="&lt;Group&gt;">
						<path id="&lt;Path&gt;" class="s14" d="m645.1 896.4l22 10.8c2.4 1.2 3.8 3.8 3 6.3-0.5 2-2.4 3.8-7.3 3.9q-10.9 0.2-59-7.3v5.1l-22.3-2.6q-1.6-25.5 5.2-29.3z"/>
						<path id="&lt;Path&gt;" class="s6" d="m609.7 870.8l35.4 25.6q-3.8 9.7-20.6 3.2-16.8-6.5-37.8-16.3l3.1-15.2z"/>
					</g>
					<path id="&lt;Path&gt;" class="s6" d="m586.7 883.3v-96.3l35.4 3.3-8.5 89.7z"/>
				</g>
				<g id="&lt;Group&gt;">
					<g id="&lt;Group&gt;">
						<path id="&lt;Path&gt;" class="s15" d="m620 398.9q33.2 48.5 22.9 116.2l-24.1 341.3h-37.9l0.2-371-5.9-0.8-12.1 371.8h-37.9q-6.6-232.2-13.6-333.7-6.9-101.5 26.2-123.8 43.8-25.3 82.2 0z"/>
						<g id="&lt;Group&gt;">
							<path id="&lt;Path&gt;" class="s5" d="m563.7 484.6l31.6 1.7"/>
						</g>
						<path id="&lt;Path&gt;" class="s16" d="m636.5 433.8q3.1 9.2 5.3 23.2l-127.4-6.4 1-5.6z"/>
					</g>
				</g>
			</g>
			<g id="&lt;Group&gt;">
				<path id="&lt;Path&gt;" class="s1" d="m638.3 203.6c0 25.7-26.2 42.4-58.4 42.4-32.3 0-58.4-16.7-58.4-42.4 0-25.7 26.1-46.5 58.4-46.5 32.2 0 58.4 20.8 58.4 46.5z"/>
				<g id="&lt;Group&gt;">
					<g id="&lt;Group&gt;">
						<path id="&lt;Path&gt;" class="s6" d="m550.1 196.2c-11.2 8.7-24.1-8.2-16.8-17.5q4.9-6.1 11.6-1z"/>
						<path id="&lt;Path&gt;" class="s5" d="m538.1 184q3.7-1.2 7.8 6.7"/>
					</g>
				</g>
				<g id="&lt;Group&gt;">
					<g id="&lt;Group&gt;">
						<path id="&lt;Path&gt;" class="s6" d="m616.2 177.7q6.6-5.1 11.5 1c7.4 9.3-5.6 26.2-16.8 17.5z"/>
						<path id="&lt;Path&gt;" class="s5" d="m622.9 184q-3.7-1.2-7.7 6.7"/>
					</g>
				</g>
				<ellipse id="&lt;Path&gt;" class="s1" cx="580.7" cy="157.1" rx="42.6" ry="41.5"/>
				<path id="&lt;Path&gt;" class="s6" d="m591.1 214.9l6.4 44.4h-34.2l4.1-43.9z"/>
				<path id="&lt;Path&gt;" class="s7" d="m591.1 214.9l2 20.6q-22.7-16.6-23.6-17.2z"/>
				<path id="&lt;Path&gt;" class="s6" d="m580.6 128.2q36.2 0 36.4 28.8 4.4 64.1-37.7 64.1-35.9 0-36.1-64.1 4.2-28.8 37.4-28.8z"/>
				<g id="&lt;Group&gt;">
					<circle id="&lt;Path&gt;" class="s17" cx="564.9" cy="177.6" r="3.1"/>
					<circle id="&lt;Path&gt;" class="s17" cx="595.6" cy="177.6" r="3.1"/>
					<path id="&lt;Path&gt;" class="s5" d="m581.7 190.4l-3.6-0.1v-5.9"/>
					<path id="&lt;Path&gt;" class="s1" d="m594.2 157.9c4.7 0.1 9.8 2.4 11.2 3.4 0.6 0.5 0.8 1.2 0.3 1.8-0.6 0.7-2 1.1-3.2 0.9-2.3-0.4-7-1.2-10.8-1.2q-5.1-0.1-4.2-2.7 0.7-2.3 6.7-2.2z"/>
					<path id="&lt;Path&gt;" class="s1" d="m572 160.2q0.9 2.6-4.2 2.6c-3.9 0.1-8.6 0.9-10.8 1.2-1.2 0.2-2.6-0.1-3.2-0.9-0.5-0.6-0.4-1.3 0.3-1.8 1.4-1 6.4-3.2 11.1-3.3q6.1-0.1 6.8 2.2z"/>
					<path id="&lt;Path&gt;" class="s3" d="m570.6 197.3h19.2q-3 6.3-10.3 6.3-7.4 0-8.9-6.3z"/>
					<g id="&lt;Group&gt;">
						<circle id="&lt;Path&gt;" class="s18" cx="561.2" cy="178.4" r="15"/>
						<circle id="&lt;Path&gt;" class="s18" cx="598.6" cy="178.4" r="15"/>
						<path id="&lt;Path&gt;" class="s18" d="m583.6 178.4q-3.4-3.1-7.5 0"/>
					</g>
				</g>
				<path id="&lt;Path&gt;" class="s1" d="m539.9 156.1q39.2 7.4 40.7-27.9-19.8-22.5-40.7 27.9z"/>
				<path id="&lt;Path&gt;" class="s1" d="m619 156.1q-39.2 7.4-40.6-27.9 19.7-22.5 40.6 27.9z"/>
			</g>
			<g id="&lt;Group&gt;">
				<g id="&lt;Group&gt;">
					<g id="&lt;Group&gt;">
						<g id="&lt;Group&gt;">
							<path id="&lt;Path&gt;" class="s4" d="m597.5 259.3l46.9 11q-13.6 87.8-19.6 112-1.7 7.1 21 62.5l-134.4 0.2c-0.6-3.3 23-58.3 22.4-62q-7.7-43.5-15.9-111.4l45.4-12.3z"/>
						</g>
					</g>
					<g id="&lt;Group&gt;">
						<g id="&lt;Group&gt;">
							<path id="&lt;Path&gt;" class="s6" d="m597.5 259.3l-17.6 37.6-16.6-37.6z"/>
							<g id="&lt;Group&gt;">
								<path id="&lt;Path&gt;" class="s19" d="m579.9 296.9l-28.9-26.6 11.6-10.3"/>
								<path id="&lt;Path&gt;" class="s19" d="m598.3 260.5l11 9.8-29.4 26.6"/>
							</g>
						</g>
						<g id="&lt;Group&gt;">
							<g id="&lt;Group&gt;">
								<path id="&lt;Path&gt;" class="s20" d="m613.6 263.1q12.7 8.5 6.8 50.1"/>
								<g id="&lt;Group&gt;">
									<circle id="&lt;Path&gt;" class="s0" cx="620.4" cy="316.7" r="9.6"/>
									<circle id="&lt;Path&gt;" class="s10" cx="620.4" cy="316.7" r="5.3"/>
								</g>
							</g>
							<g id="&lt;Group&gt;">
								<path id="&lt;Path&gt;" class="s20" d="m545.9 264q-11.8 14.1-3.6 43.3"/>
								<g id="&lt;Group&gt;">
									<path id="&lt;Path&gt;" class="s10" d="m538.6 343.2q0.9-0.4 1.9-0.8c2.8 6.8 6 14.4 7.9 18.8 0.9 2.2 3.4 3.2 5.6 2.3l1.8-0.7c0.5-0.2 1.1 0 1.3 0.5 0.2 0.6 0 1.2-0.5 1.4l-1.8 0.7q-1.2 0.5-2.4 0.5c-2.5 0-4.9-1.5-5.9-3.9-1.9-4.4-5.1-12-7.9-18.8z"/>
									<path id="&lt;Path&gt;" class="s10" d="m575.7 356.7l-2.9 1.2c-0.5 0.2-1.1 0-1.3-0.6-0.2-0.5 0-1.1 0.6-1.3l2.8-1.2c1.1-0.5 1.9-1.3 2.4-2.4 0.4-1 0.4-2.2 0-3.3l-8-19q1-0.4 1.9-0.8l8 19c1.3 3.3-0.2 7-3.5 8.4z"/>
									<path id="&lt;Path&gt;" class="s0" d="m571.2 329.3q-0.9 0.4-1.9 0.8l-5.5-13.2c-1.6-3.9-4.6-6.9-8.5-8.5-3.9-1.6-8.1-1.6-12 0-8 3.4-11.7 12.5-8.4 20.5 0.9 2.4 3.1 7.7 5.6 13.5q-1 0.4-1.9 0.8c-2.4-5.8-4.7-11.1-5.6-13.5-3.8-9 0.5-19.4 9.5-23.2 4.4-1.8 9.2-1.8 13.6 0 4.4 1.8 7.8 5.2 9.6 9.6z"/>
									<path id="&lt;Path&gt;" class="s0" d="m560.3 362c0.8 1.8-0.1 3.8-1.8 4.6-1.8 0.7-3.9-0.1-4.6-1.9-0.7-1.8 0.1-3.8 1.9-4.6 1.7-0.7 3.8 0.1 4.5 1.9z"/>
									<path id="&lt;Path&gt;" class="s0" d="m573.7 356.4c0.7 1.8-0.1 3.8-1.9 4.6-1.8 0.7-3.8-0.1-4.6-1.9-0.7-1.8 0.1-3.8 1.9-4.5 1.8-0.8 3.8 0.1 4.6 1.8z"/>
								</g>
							</g>
						</g>
					</g>
				</g>
				<g id="&lt;Group&gt;">
					<g id="&lt;Group&gt;">
						<g id="&lt;Group&gt;">
							<path id="&lt;Path&gt;" class="s6" d="m655 289.3l16.9 6.5q14.9 33.1 30 70.9l-27.7 7.5-33.6-50.1z"/>
						</g>
						<path id="&lt;Path&gt;" class="s13" d="m644.4 270.3q26.7 6.3 37.6 50.2l-39.2 16-8.4-9.7z"/>
					</g>
					<g id="&lt;Group&gt;">
						<g id="&lt;Group&gt;">
							<path id="&lt;Path&gt;" class="s6" d="m701.9 384.3l-69.6 79.9-6.7-19.2 48.6-70.8z"/>
							<path id="&lt;Path&gt;" class="s6" d="m638 455.8l-2.8 29.6-15.5-36.7 5.9-3.7z"/>
							<path id="&lt;Path&gt;" class="s6" d="m701.9 366.7q8.4 11 0 17.6-8.4 6.6-26.6 2.5l-1.1-12.6z"/>
						</g>
					</g>
				</g>
			</g>
		</g>
		<g id="&lt;Group&gt;">
			<g id="&lt;Group&gt;">
				<g id="&lt;Group&gt;">
					<g id="&lt;Group&gt;">
						<path id="&lt;Path&gt;" class="s14" d="m242.2 883.8q6 3.7 4.8 32.2h-20.1v-5.6q-53.3 7.2-63 7c-4.4-0.1-6-1.6-6.6-3.5-0.6-2.5 0.7-5.1 2.7-6.3l19.7-10.8z"/>
						<path id="&lt;Path&gt;" class="s21" d="m239.4 876.4l2.8 7.4q-18.8 9.8-33.8 16.2-15 6.5-28.7-3.2l36.7-17.6z"/>
					</g>
					<path id="&lt;Path&gt;" class="s21" d="m214 887.7v-91.3l28.2-1.7-2.8 81.7z"/>
				</g>
				<g id="&lt;Group&gt;">
					<g id="&lt;Group&gt;">
						<path id="&lt;Path&gt;" class="s14" d="m423.7 896.8l19.6 10.8c2.1 1.2 3.3 3.8 2.7 6.3-0.5 1.9-2.2 3.4-6.6 3.5q-9.7 0.2-63-7v5.8l-19.8-0.2q-1.5-28.5 4.6-32.2z"/>
						<path id="&lt;Path&gt;" class="s21" d="m387 879.2l36.7 17.6q-13.8 9.7-28.8 3.2-15-6.4-33.7-16.2l2.7-7.4z"/>
					</g>
					<path id="&lt;Path&gt;" class="s21" d="m363.9 876.4l-20.6-81.7 28.2 1.7 20.1 93.1z"/>
				</g>
				<g id="&lt;Group&gt;">
					<g id="&lt;Group&gt;">
						<path id="&lt;Path&gt;" class="s15" d="m297.2 418.9c11.5 14.2 19.5 41.2 26.2 57.3 7.8 18.8 13.2 38.5 16.4 58.6l45.9 312.8-39.5 4.2-76.5-346-5.6 0.4-13.4 345.5h-42.4q-11.6-264.4-12.6-320.2-1-55.7 35.7-118.8z"/>
						<path id="&lt;Path&gt;" class="s22" d="m284.5 500.2l-20.4 6"/>
					</g>
				</g>
			</g>
			<g id="&lt;Group&gt;">
				<path id="&lt;Path&gt;" class="s1" d="m263.5 114.3q48.4-5.9 50.9 34.7l1.4 27.9-47.2 10.8z"/>
				<path id="&lt;Path&gt;" class="s1" d="m315 164.6c1.4 19.5 3.4 34.5 7.4 45.3 3.7 10-4.1 20.6-14.8 20.6h-81.3c-8.7 0-15.6-7.1-15.4-15.8q1.2-50.1 11.9-72.8z"/>
				<path id="&lt;Path&gt;" class="s1" d="m263.5 114.3c26.1-0.9 48.5 20.5 49.4 45.4 0.9 24.9-19.5 45.8-45.6 46.8-26.1 0.9-48-18.5-48.9-43.4-0.9-24.9 19-47.8 45.1-48.8z"/>
				<g id="&lt;Group&gt;">
					<path id="&lt;Path&gt;" class="s23" d="m302.5 163.9c6.4-2.2 13.3 1.2 15.5 7.6 2.2 6.4-1.2 13.3-7.6 15.5-6.3 2.2-13.3-1.2-15.5-7.6-2.2-6.3 1.2-13.3 7.6-15.5z"/>
				</g>
				<path id="&lt;Path&gt;" class="s21" d="m280.1 205l0.7 46.6-34.6-0.7 10.6-70.7z"/>
				<path id="&lt;Path&gt;" class="s23" d="m280.4 228.3l-23.8-26.4 23.5 3.1z"/>
				<path id="&lt;Path&gt;" class="s21" d="m297.8 131.8c3 2.5 8.4 9.7 9.4 13.7 2.8 11.5 6.5 29.1 3.2 41.5-4.2 16.2-13.7 29.8-34 26.2q-24.1-2.1-30.7-34c-10.6-50.8 25.9-69.1 52.1-47.4z"/>
				<g id="&lt;Group&gt;">
					<path id="&lt;Path&gt;" class="s5" d="m295.5 174l3 8.2-4.8 0.9"/>
					<circle id="&lt;Path&gt;" class="s24" cx="280" cy="169.7" r="3"/>
					<circle id="&lt;Path&gt;" class="s24" cx="303.7" cy="168.7" r="2.8"/>
					<path id="&lt;Path&gt;" class="s24" d="m304.5 149.3c3.9 0.5 6 2.3 7 3.5 0.5 0.5 0.4 1.3 0 1.8-0.6 0.7-1.8 1-2.8 0.7-1.8-0.6-3.8-0.8-7-1.2q-4.2-0.6-3-3.1 0.9-2.4 5.8-1.7z"/>
					<path id="&lt;Path&gt;" class="s24" d="m285 150.7q1.3 2.6-4.1 3.1c-4.1 0.3-9 1.5-11.3 2.1-1.3 0.3-2.8 0-3.5-0.7-0.6-0.6-0.6-1.3 0-1.9 1.4-1.1 6.5-3.9 11.4-4.4q6.4-0.5 7.5 1.8z"/>
					<g id="&lt;Group&gt;">
						<path id="&lt;Path&gt;" class="s5" d="m296.6 190.5q-6.8 1.4-15-2.2"/>
					</g>
					<g id="&lt;Group&gt;">
						<path id="&lt;Path&gt;" class="s3" d="m310.4 187c-3.4 13.1-9.9 20.6-15 23.8-3.1 2-6.6 3.2-10.2 3.4q-22.2 1.7-31.6-15.7 10.9-19.8 44.3-19.5z"/>
						<path id="&lt;Path&gt;" class="s25" d="m248.7 172.1l24.7 16.7"/>
						<path id="&lt;Path&gt;" class="s25" d="m249.8 191.4l6.6 9.4"/>
					</g>
				</g>
				<path id="&lt;Path&gt;" class="s1" d="m249.5 146.2l4.9 31.9-30-22.1z"/>
				<path id="&lt;Path&gt;" class="s1" d="m290.1 123.8q-17 29.9-50.8 40.8-13.9-0.7 0-25.1 13.9-24.3 50.8-15.7z"/>
				<g id="&lt;Group&gt;">
					<g id="&lt;Group&gt;">
						<path id="&lt;Path&gt;" class="s21" d="m237.8 168.1c6.9-2.4 14.4 1.3 16.8 8.2 2.4 6.9-1.3 14.5-8.2 16.8-6.9 2.4-14.5-1.3-16.8-8.2-2.4-6.9 1.3-14.4 8.2-16.8z"/>
						<path id="&lt;Path&gt;" class="s5" d="m237 177.6q9.4-3.6 11.7 6.9"/>
					</g>
				</g>
			</g>
			<g id="&lt;Group&gt;">
				<g id="&lt;Group&gt;">
					<path id="&lt;Path&gt;" class="s3" d="m303.5 256.6q41.6 1.8 54.5 43c12.8 41.2 44.8 90.3 6.9 115.7l-44.5-26.5z"/>
					<g id="&lt;Group&gt;">
						<path id="&lt;Path&gt;" class="s10" d="m306.5 422.1h-77.7v-158h77.7z"/>
						<path id="&lt;Path&gt;" class="s21" d="m280.8 251.6l18 3.7q18.2 24-20.7 28.1-38.9 4.1-50.3-27.7l18.4-4.8z"/>
					</g>
					<g id="&lt;Group&gt;">
						<path id="&lt;Path&gt;" class="s3" d="m241.9 252q14.7 170.9 9.9 367.3h-85.6l38.6-233.6-12.6-106.6c-1-7.8 3.9-15.1 11.5-17.3z"/>
						<path id="&lt;Path&gt;" class="s12" d="m248.7 391.5l-30.3-89.1 14.7-15.3-19.6-11.4 27.3-22.7"/>
					</g>
					<g id="&lt;Group&gt;">
						<path id="&lt;Path&gt;" class="s3" d="m309.4 257.4c5.4 1.1 9.2 5.9 9.1 11.4l-2.2 111 48 235.3h-58.2q-12.9-142.4-12.7-232.5 0.3-110.8-12.6-131z"/>
						<path id="&lt;Path&gt;" class="s12" d="m318.1 289.5l-1 43"/>
						<path id="&lt;Path&gt;" class="s12" d="m282 251.6l27.5 22.2-11 10 11 8.6-12.9 100.8"/>
					</g>
				</g>
				<g id="&lt;Group&gt;">
					<g id="&lt;Group&gt;">
						<path id="&lt;Path&gt;" class="s4" d="m347.4 294.2l-28.9 87.6-5.3 8.1-29.7-3.7 21.4-75z"/>
						<g id="&lt;Group&gt;">
							<path id="&lt;Path&gt;" class="s21" d="m311.4 403.8c-14.9 4.3-24.1 0.4-29.2-3.8-3.8-3-5.7-7.8-5.1-12.6q3.6-29 12.1-24.7 4.2 16.4 21.7 14.7l7.5-9.4c1.1-1.2 2.7-1.8 4.4-1.4 2.7 0.6 2.5 3.5 1.4 6.1l-1.6 11.8z"/>
							<path id="&lt;Path&gt;" class="s21" d="m318.1 381l20.1 7.9-7.5 21.3-19.3-6.4z"/>
						</g>
					</g>
					<g id="&lt;Group&gt;">
						<path id="&lt;Path&gt;" class="s3" d="m367.8 381l-2.9 34.3q-22.7 16.2-53.5 4.9l17-38z"/>
						<path id="&lt;Path&gt;" class="s12" d="m328.1 382.8l35.6-3.1"/>
					</g>
				</g>
				<g id="&lt;Group&gt;">
					<g id="&lt;Group&gt;">
						<path id="&lt;Path&gt;" class="s3" d="m213.5 319q-31.6 20-81.1 74.2l-36.2-29.8q61.3-96 111.7-102.7z"/>
						<path id="&lt;Path&gt;" class="s12" d="m198.2 331.2l10.2-8.8"/>
					</g>
					<g id="&lt;Group&gt;">
						<g id="&lt;Group&gt;">
							<path id="&lt;Path&gt;" class="s21" d="m241.6 409.3c-0.3 2.6-2.7 4.3-5.1 3.8l-5.1-0.4 4.5 1.5c2 0.6 3.3 2.6 3 4.7-0.4 2.4-2.7 3.9-4.9 3.3l-3.1-0.7c2.5 1.1 3.8 3.2 3.3 5-0.6 2.1-2.7 3.3-4.7 2.8l-4.1-1.4c4.1 1.4 4.2 3.5 3.8 4.9-0.6 2-2.6 3.1-4.5 2.6q-19.5-3.5-20-3.6c-4.4 2.9-18.8 2.6-33.2-6.6l15.2-17.3 20-22.4c1.4-1.6 3.8-1.9 5.7-0.8 1.7 1.1 2.6 3.3 2.1 5.4l-1.4 5.7 25.3 8.5c2.1 0.7 3.5 2.8 3.2 5z"/>
							<path id="&lt;Path&gt;" class="s21" d="m171.5 425.2l-30.1-14.5 9.8-25.2 35.5 22.4z"/>
						</g>
						<g id="&lt;Group&gt;">
							<g id="&lt;Group&gt;">
								<path id="&lt;Path&gt;" class="s3" d="m124.1 357.6l61.5 37.8-19.5 32.4-59.8-27.9c-13.3-4.5-19.4-19.8-13-32.3 5.8-11.2 19.6-15.7 30.8-10z"/>
								<path id="&lt;Path&gt;" class="s12" d="m152.4 374.9l-21-12.8"/>
							</g>
						</g>
					</g>
				</g>
			</g>
		</g>
		<g id="&lt;Group&gt;">
			<g id="&lt;Group&gt;">
				<g id="&lt;Group&gt;">
					<g id="&lt;Group&gt;">
						<path id="&lt;Path&gt;" class="s26" d="m1208.1 903.5l-96.8 1.2 56.3-30.1h34z"/>
						<g id="&lt;Group&gt;">
							<path id="&lt;Path&gt;" class="s3" d="m1111.6 917.4l-0.3-12.7 96.8-1.2 0.3 12.8z"/>
						</g>
					</g>
					<path id="&lt;Path&gt;" class="s6" d="m1169.1 826.6h34.7l-2.2 48h-34.7z"/>
				</g>
				<g id="&lt;Group&gt;">
					<g id="&lt;Group&gt;">
						<path id="&lt;Path&gt;" class="s26" d="m1313.8 903.5l-96.8 1.2 56.3-30.1h34z"/>
						<g id="&lt;Group&gt;">
							<path id="&lt;Path&gt;" class="s3" d="m1217.4 917.4l-0.4-12.7 96.8-1.2 0.3 12.8z"/>
						</g>
					</g>
					<path id="&lt;Path&gt;" class="s6" d="m1268 826.6h34.7l4.6 48h-34.6z"/>
				</g>
				<g id="&lt;Group&gt;">
					<path id="&lt;Path&gt;" class="s27" d="m1316 856.4l-58.1 1.3-34.7-322.6-2.6 322.6h-61.5l-0.2-312.9c-0.8-12.4 0.1-82.2 0.5-94.7l2.6-42.4 61 4 58.2 13.4 0.5-1.5q0.1 0.6 0.4 1.7l1.6 0.4 0.7 8.5c4.3 18.8 14.5 49.1 11.8 107.2z"/>
					<g id="&lt;Group&gt;">
						<path id="&lt;Path&gt;" class="s28" d="m1293.6 479.6l2 15-136.7-7.2v-9.9z"/>
						<path id="&lt;Path&gt;" class="s5" d="m1223 535.1l-28.4-4.7"/>
					</g>
				</g>
			</g>
			<g id="&lt;Group&gt;">
				<g id="&lt;Group&gt;">
					<path id="&lt;Path&gt;" class="s27" d="m1239.4 251.8l36.7 1.7c5 0 14.5 6.9 14 16.5q-1.2 21.6 14.2 213.7l-151.5-2.3 2.9-204.6c0.2-6.7 1.8-18.1 8.4-19.5l36.8-5.9z"/>
					<path id="&lt;Path&gt;" class="s6" d="m1199.6 287l-9.3-33.9 10.6-1.7 30.4-0.5 20 1.3z"/>
					<path id="&lt;Path&gt;" class="s3" d="m1250 324.5h-35.9v-18.7h35.9z"/>
				</g>
				<g id="&lt;Group&gt;">
					<path id="&lt;Path&gt;" class="s6" d="m1157.4 353.7l0.4 48.7c-2.3 11.4-13.1 19.1-24.7 17.5-12.7-1.8-26.4-12.2-22.8-28.4l9.6-40.6z"/>
					<g id="&lt;Group&gt;">
						<path id="&lt;Path&gt;" class="s27" d="m1157.2 368.2l-43.1-9.8c15.3-101.6 49.1-100.9 50-101.1z"/>
						<path id="&lt;Path&gt;" class="s5" d="m1157.4 364.2l0.7-49.3"/>
					</g>
					<g id="&lt;Group&gt;">
						<path id="&lt;Path&gt;" class="s6" d="m1143.8 383.2l91.7-11.8 12.9 10q-50.2 23.2-110 38.6z"/>
						<path id="&lt;Path&gt;" class="s6" d="m1230 374.2q32.5-39.8 49.1 0l3.7 8.3-20.6 10.1-24.9-5.3z"/>
						<path id="&lt;Path&gt;" class="s6" d="m1142.4 392.6q-12.7-14.3 8-25.3c20.8-10.9 35.1 11.3 36.3 11.1z"/>
						<path id="&lt;Path&gt;" class="s5" d="m1185.5 378q-33-0.8-55.1 8"/>
						<path id="&lt;Path&gt;" class="s5" d="m1151.3 366.9q-10.6 3.5-12.8 16.3"/>
					</g>
				</g>
				<g id="&lt;Group&gt;">
					<g id="&lt;Group&gt;">
						<path id="&lt;Path&gt;" class="s27" d="m1281.9 255.7q39.4 2.6 55.6 106.8l-58.4 11.7z"/>
						<path id="&lt;Path&gt;" class="s5" d="m1279.1 374.2l-11.3-52.1"/>
					</g>
					<g id="&lt;Group&gt;">
						<path id="&lt;Path&gt;" class="s6" d="m1323.5 365.3l4.5 22c0.4 1.9 0.7 3.9 0.6 5.9-0.3 13.3-10.6 24.4-24.2 25.6q-41.8 3.5-102.4-18.7l39.7-19.9 37.4-1.1v-4.9z"/>
						<path id="&lt;Path&gt;" class="s5" d="m1202 400.1l39.7-19.9q22.7-1.8 37.4-6"/>
					</g>
				</g>
			</g>
			<g id="&lt;Group&gt;">
				<path id="&lt;Path&gt;" class="s29" d="m1237.4 121q17.8-4.6 24.6 14.1 9 24.4-16.1 52.1z"/>
				<path id="&lt;Path&gt;" class="s29" d="m1172.2 176.5q-27.7-33.9-16.6-52.9c9.5-16.3 24.8-5.4 38.6-9.7 13.8-4.2 21.2-12.8 35.9-4.6q14.6 8.1 5.9 22.6z"/>
				<path id="&lt;Path&gt;" class="s7" d="m1180.7 181c-1.4 6.4-7.8 10.5-14.2 9-6.4-1.4-10.5-7.8-9-14.2 1.4-6.4 7.8-10.5 14.2-9 6.4 1.4 10.5 7.8 9 14.2z"/>
				<path id="&lt;Path&gt;" class="s6" d="m1226.6 176.5l10.2 75.8-39.4 1.1 1.6-45.9z"/>
				<path id="&lt;Path&gt;" class="s7" d="m1198.9 209.7l25.1-5.1-25.9 29.9z"/>
				<path id="&lt;Path&gt;" class="s6" d="m1232.3 177.2q-2.2 35.7-24.3 38.5c-20.3 5.6-35.1-2.8-41.5-18.2-4.1-10-4.5-31-3.1-44.2 1.2-11.4 7.1-24.2 19.1-25.8 25.6-3.4 52.4 7.1 49.8 49.7z"/>
				<g id="&lt;Group&gt;">
					<path id="&lt;Path&gt;" class="s24" d="m1170.4 171.1c-0.3 1.5-1.7 2.5-3.2 2.2-1.4-0.3-2.4-1.7-2.1-3.2 0.2-1.5 1.7-2.5 3.1-2.2 1.5 0.3 2.5 1.7 2.2 3.2z"/>
					<path id="&lt;Path&gt;" class="s24" d="m1193.4 171.1c-0.2 1.5-1.7 2.5-3.1 2.2-1.5-0.3-2.5-1.7-2.2-3.2 0.2-1.5 1.7-2.5 3.2-2.2 1.4 0.3 2.4 1.7 2.1 3.2z"/>
					<path id="&lt;Path&gt;" class="s5" d="m1177.1 187.7l-4.9-1.4 2.5-8.4"/>
					<path id="&lt;Path&gt;" class="s24" d="m1172.8 151.6q1.1 3.2-2.9 3.9c-3.1 0.5-5 0.8-6.8 1.5-0.9 0.4-2.1 0.1-2.6-0.8-0.5-0.7-0.5-1.6-0.1-2.4 1-1.4 3-3.6 6.7-4.3q4.8-0.9 5.7 2.1z"/>
					<path id="&lt;Path&gt;" class="s24" d="m1194.1 149.5c4.8 0.6 9.7 4 11 5.5 0.6 0.7 0.6 1.6 0.1 2.3-0.7 0.9-2.2 1.3-3.4 0.9-2.3-0.7-7-2.2-10.9-2.6q-5.2-0.6-4-3.9 1-2.9 7.2-2.2z"/>
					<path id="&lt;Path&gt;" class="s5" d="m1176.7 195q8.3 1.7 13.3-3.3"/>
					<g id="&lt;Group&gt;">
						<path id="&lt;Path&gt;" class="s27" d="m1172.8 182.8q38.2 3.2 52.7 19.4-4.2 13.4-26.4 15.4c-8.2 0.7-16.8-1.7-22-5.4-4.9-3.4-11.1-10.6-12.8-22.9z"/>
						<path id="&lt;Path&gt;" class="s30" d="m1226.9 171.9l-20.1 21.6"/>
						<path id="&lt;Path&gt;" class="s30" d="m1230.1 188.6l-6.4 15.2"/>
					</g>
					<g id="&lt;Group&gt;">
						<g id="&lt;Group&gt;">
							<circle id="&lt;Path&gt;" class="s25" cx="1194.6" cy="172.6" r="14.2"/>
							<ellipse id="&lt;Path&gt;" class="s25" cx="1162.4" cy="172.6" rx="10.2" ry="13.4"/>
							<path id="&lt;Path&gt;" class="s25" d="m1172.6 172.2q4.1-2.6 7.8 0.4"/>
						</g>
						<path id="&lt;Path&gt;" class="s25" d="m1228.5 171.8h-19.7"/>
					</g>
				</g>
				<path id="&lt;Path&gt;" class="s29" d="m1227.7 184.7l9.1-33.3q-3.9-8.7-9.7-7.4c0.1-0.6-8-4.6-7.9-5.2q-32.4-24.8-50.1-2.4 9.6-23.8 49.1-20.7c27.9 2.3 37 11.6 35.9 29.8-2.3 36.3-6.7 39.7-23 64z"/>
				<path id="&lt;Path&gt;" class="s29" d="m1241.5 135.2l4.8 23.1-19.4 21-2.8-15.3q-8.9-17 7.3-29.8z"/>
				<path id="&lt;Path&gt;" class="s29" d="m1203.3 118.4q35-6.7 32.1 15.1c-2.9 21.9-30.1 19.9-44.6 1.3q-7.3-9.3-17.9-1.9 6.6-8.6 30.4-14.5z"/>
				<g id="&lt;Group&gt;">
					<path id="&lt;Path&gt;" class="s6" d="m1248.8 182.5c-1.6 7-8.6 11.4-15.7 9.8-7-1.6-11.4-8.6-9.8-15.6 1.6-7.1 8.6-11.5 15.6-9.9 7.1 1.6 11.5 8.6 9.9 15.7z"/>
					<path id="&lt;Path&gt;" class="s5" d="m1241.6 175.3q-9.7-2-11.5 8.7"/>
				</g>
			</g>
		</g>
		<path id="&lt;Path&gt;" class="s31" d="m56.9 917.4h1356.1"/>
	</g>
</svg>