<svg version="1.2" xmlns="http://www.w3.org/2000/svg" viewBox="0 0 1100 800" width="550" height="400">
	<title>32619-ai</title>
	<style>
		.s0 { fill: #eac5b0 } 
		.s1 { fill: #3f60b2 } 
		.s2 { fill: #e5d1bd } 
		.s3 { fill: #212940 } 
		.s4 { fill: #ffffff } 
		.s5 { fill: #314f8f } 
		.s6 { fill: #a1bdeb } 
		.s7 { fill: #000000 } 
		.s8 { opacity: .1;fill: #f3f9fb } 
		.s9 { fill: #2f4862 } 
		.s10 { fill: #587bc9 } 
		.s11 { fill: #f7f7f8 } 
		.s12 { opacity: .4;fill: #212940 } 
	</style>
	<g id="background">
	</g>
	<g id="object">
		<g id="&lt;Group&gt;">
			<g id="&lt;Group&gt;">
				<g id="&lt;Group&gt;">
					<path id="&lt;Path&gt;" class="s0" d="m362 407.4c0.8 1.3 1.6 2.6 1.5 4.2-0.1 0.9-0.5 1.5-1.1 2.4-2.2 3.4-4.4 7.6-8.9 8.3-2.3 0.4-5.3 0.3-7.6-0.2-2.3-0.5-4.2-2.3-6.6-2.3-3.8 0-7.3 2.2-11.4 2.2-14.9 0.1-29.8-0.1-44.5-1.7-1.2-0.1-2.4-0.2-3.4-0.8-0.9-0.5-1.6-1.4-2.2-2.3-5.3-7-10-14.4-14.2-22.1-4.4-8.2-14.4-20.4-9.4-29.9 2-3.9 6-6.6 10.3-7.2 5.8-0.7 11.6 2.4 15.3 6.9 3.7 4.5 5.6 10.2 7 15.9 1.6 6.3 2.6 12.8 2.9 19.3 0.1 1.4 0.2 3 1.3 3.9 0.6 0.4 1.4 0.6 2.2 0.8 13.5 2.8 27.2 5.2 40.9 3.9 3.5-0.4 7.7-1.6 10-3.6 1.6-1.4 3.2-3.3 4-3.9 2-1.8 3 1.4 4.2 1.7 2.8 0.8 5 0.2 7.5 1.7 0.2 0.2 0.5 0.4 0.7 0.6q0.8 1.1 1.5 2.2z"/>
				</g>
				<g id="&lt;Group&gt;">
					<path id="&lt;Path&gt;" class="s1" d="m254.2 392.8c-4.3-5.3-7.1-13.3-9.3-19.7-5.2-14.7-7.5-30.7-5.8-46.2 2.3-19.8 27.2-24.6 37.8-8.4 4.9 7.6 6.4 16.8 7.7 25.8 3 19.8 5.1 39.8 8.3 59.7 2.8 0 5.5 0.5 8.1 1.6q-2 9.6-4.1 19.3-4.1-0.3-8.2-0.8c-3.5-0.3-7.1-0.8-10-2.7-3.7-2.5-5.7-6.8-8.1-10.6-3.4-5.5-8.2-9.3-12.5-13.7-1.4-1.4-2.7-2.8-3.9-4.3z"/>
				</g>
			</g>
			<g id="&lt;Group&gt;">
				<g id="&lt;Group&gt;">
					<g id="&lt;Group&gt;">
						<path id="&lt;Path&gt;" class="s2" d="m170.3 700.4c-3.1 0.2-6-0.9-9-1.3 0.1-10.6 1.3-20.9 3.6-31.5 4.7 5.3 8.7 2.2 8.5 12 0 3.2-3.7 15.9-3.1 20.8z"/>
						<path id="&lt;Path&gt;" class="s3" d="m165.9 697.1c2.3 1 5.8-1 6.9 1.8 1 2.4-0.9 7.8-1.4 10.3-0.2 1.2-0.4 2.4-0.7 3.6-2.1 7.7-10.8 19.4-20.4 14.6-2.7-1.4-4.4-4.9-3.4-7.8 0.4-1.1 1.2-2.1 2-3.1q2.6-3.3 5.2-6.5c0.8-1 1.6-2.1 2-3.4 0.3-1.1 0.1-2.4 0.1-3.6 0.1-2 0.9-10.4 4.4-9.2 1.5 0.5 3.2 2.3 5.3 3.3z"/>
					</g>
					<path id="&lt;Path&gt;" class="s4" d="m228.4 524.1c-8.9 24.2-19.2 47.9-25 73.3-7.3 31.2-18.9 61.8-24.9 93.1q-5.8 0.2-11.6-0.5c-4.4-0.5-11.4-1.7-12.9-6.5-0.9-2.4 0-6.4 0.1-9 0.4-8.1 1-16.3 1.6-24.5 1.7-23.1 2.9-46.4 7.1-69.2 4.5-23.9 8.8-48 12.7-71.9 2-12.4 4.5-24.7 7.6-36.8 0.8-3.2 9.1-35.4 10.7-35.2 19.2 3.1 37.2 9.4 54 19.4 1.6 0.9 3.2 2.1 3.7 3.8 0.6 1.7 0.1 3.2-0.4 4.8-5 14.9-11.7 28.8-17 43.6-1.9 5.2-3.8 10.4-5.7 15.6z"/>
				</g>
				<g id="&lt;Group&gt;">
					<g id="&lt;Group&gt;">
						<path id="&lt;Path&gt;" class="s2" d="m233.2 677.9c2.8-9.4 5.7-5.3 11.7-8.9-0.9 10.8-2.8 20.9-5.9 31.1-3-0.5-6-0.3-9-1.5 2.1-4.4 2.3-17.6 3.2-20.7z"/>
						<path id="&lt;Path&gt;" class="s3" d="m242.1 697.1c0 5.8 4.5 12 7.1 17.2 0.3 0.6 0.6 1.3 0.6 2 0 1-0.6 1.9-1.2 2.7-0.8 1.1-1.7 2.3-3 2.8-1.3 0.5-2.8 0.3-4.1 0q-3.4-0.8-6.7-1.8c-0.6-0.2-1.1-0.4-1.6-0.7-0.5-0.5-0.8-1.1-1.1-1.7-1.6-3.1-2.9-5.4-2.8-8.9 0.1-3.6 0.5-7.3-0.1-10.9-0.4-1.7-0.8-3.9 0.7-4.9 1.1-0.7 3.2 0.3 4.5 0.5 2.2 0.4 4.2 0.2 6.3 1.4 0.4 0.2 0.8 0.5 1 0.9 0.3 0.4 0.4 0.9 0.4 1.4z"/>
					</g>
					<path id="&lt;Path&gt;" class="s4" d="m226.2 496.5c-0.6-15.7-2.9-31-3.2-46.7-0.1-1.7-0.1-3.2 0.9-4.7 1.1-1.5 2.9-2.1 4.8-2.6 18.9-4.5 38-5.2 57.3-2.4 1.6 0.3-0.1 33.5-0.3 36.8-0.7 12.5-1.9 25-3.7 37.4-3.3 24-6.4 48.2-9.2 72.4-2.8 23-8.6 45.7-13.8 68.2-1.9 8-3.8 16-5.8 23.9-0.7 2.4-1 6.5-2.5 8.6-3 4.1-10 3.2-14.4 2.4q-5.7-1.1-11.2-3c3.7-31.7 1.6-64.3 4-96.4 2-25.9-0.8-51.5-2.1-77.3-0.3-5.6-0.5-11.1-0.8-16.6z"/>
				</g>
				<path id="&lt;Path&gt;" class="s1" d="m223.2 304.9c11.7-1.8 32.5-1.6 41.7 7.3 8.4 8.2 9.1 26.2 10.6 37.1 4.3 31.9 14.9 62.7 17.2 94.8 0.9 12.4 0.8 25.1 4.8 36.9-1.1 2.5-4.6 2.5-7.3 2.3-11.4-0.7-21.2 2.1-32.4 0.9-11.8-1.3-23.2 2.4-34.9 2.5-16.7 0-33.9 0.6-47.7 11.3-7.7-7.2-6.6-19.5-5.2-30 5.3-38.5 6.7-76.5 14-114.7 1.4-7.4 2.9-15 5.2-22.2 2.5-7.8 5.7-10.1 12.2-15.3 4.3-3.5 8.7-7 13.9-9q0.4-0.2 0.9-0.3c2.3-0.8 4.6-1.3 7-1.6z"/>
				<path id="&lt;Path&gt;" class="s4" d="m253.8 347.4c0.7 0.5 1.5 1.1 1.5 2 0 0.5-0.4 1-0.7 1.5-11.5 14.6-9.1 35.2-8.2 52.6 1 20.4 3 40.8 3.2 61.3q0 5.2-0.1 10.5c-0.1 1.3-0.2 2.9-1.2 3.9-0.8 0.7-2.1 0.9-3.2 1q-8 0.7-16 0.2 0.2-7.2 0.3-14.4 0.5-31.1-0.8-62.2c-0.4-10-1.3-20-1.3-30-0.1-8.1-5.1-17.3-9.4-24.1-0.3-0.5-0.6-1.1-0.5-1.7 0.1-0.6 0.7-1 1.3-1.3q6.2-3.5 12.3-7.1c-1.6-3.1-4.1-5.7-6.4-8.4-2.3-2.8-4.4-5.7-5.4-9.1-1-3.4-0.5-7.5 2.1-10 1.1-1.1 2.6-1.8 4.1-2.5 4.6-2.2 9.6-4.3 14.7-4.6 4.7-0.2 11.6 2.4 13.5 6.9 1.1 2.5 1.2 5.3 1.3 8 0 1.9 0 4-0.8 5.8-0.7 1.6-2 3-3.3 4.3q-4.6 4.6-9.2 9.2 2.3 1.5 4.6 3.1 3.8 2.5 7.6 5.1z"/>
				<g id="&lt;Group&gt;">
					<g id="&lt;Group&gt;">
						<g id="&lt;Group&gt;">
							<g id="&lt;Group&gt;">
								<path id="&lt;Path&gt;" class="s0" d="m228.3 302.6c-0.1-2.8 0.1-6.1-2-8.3-1.6-1.7-4-2-5.9-3.4-3.6-2.6-4.1-8-4.4-12.7q-0.3-6.2-0.6-12.4c-0.2-4.4-0.4-9.2 1.7-13 1.3-2.5 3.5-4.3 5.7-5.7 5.6-3.4 12.3-4.6 18.8-3.8 4.9 0.7 10.2 1.9 13.9 5.5 4 3.8 4.8 11.3 4.3 16.6-0.3 3.6-1.3 7-2.4 10.4q-1.5 4.9-3 9.9c-0.6 1.9-1.2 3.8-2.2 5.5-0.7 1-1.6 2.1-2.7 2.7-0.7 0.4-2.3 0.2-2.7 0.6-0.6 0.7-0.3 3.9-0.3 4.8q-0.2 2.5-0.6 5c-0.5 3-0.3 4.9-3.6 5.6-2.5 0.4-5 0.8-7.5 0.5-1.8-0.3-3.7-1-5.1-2.4q-0.5-0.5-0.8-1.1c-0.7-1.3-0.5-2.8-0.6-4.3z"/>
							</g>
							<path id="&lt;Path&gt;" class="s3" d="m235.9 242.7c-1.9-2.4-2.8-4.7-0.9-7.4 1.8-2.8 7.5-6 10.7-4.9 2.3 0.7 4.2 2.3 6.6 2.8 1.3 0.2 2.7 0.1 4 0.5 2.4 0.7 3.9 3 4.8 5.3 0.9 2.3 1.4 4.8 2.7 6.9 1.7 2.8 4.7 4.8 5.7 7.8 1.7 5.3-3.1 10.6-3.3 16.1-0.1 3.7 1.8 7.4 0.7 10.9-0.7 2.6-2.9 4.4-3.9 6.8-0.9 2-0.5 3.9-1 5.8-0.6 1.9-0.8 2.6-2.7 3.8-1.2 0.7-5.9 0.5-6.4 1.2 1.7-2.3 3.5-6.2 3.8-9 0.3-3.2-1.8-6.3-1.6-9.6 0.1-3 2.2-5.8 1.7-8.7-0.6-3.6-4.7-5.7-5.9-9.2-0.7-2.2-0.2-4.6-0.9-6.8q-0.3-0.6-0.6-1.2c-2.6-4.5-10.3-7.1-13.5-11.1z"/>
						</g>
						<path id="&lt;Path&gt;" class="s3" d="m208.6 234.6c1.2-2.3 1.2-4 3.4-5.7 2.2-1.6 5.1-2.4 7.9-2.3 1.6 0 3.2 0.4 4.8 0.3 2.4-0.2 4.6-1.3 7-1.5 4.4-0.3 8.2 2.5 11.7 5.1 1.6 1.3 3.4 2.6 4.3 4.5 1.2 2.3 0.2 4.8-0.6 6.9-1.2 2.8-2.1 3.6-5.2 4.8-3.4 1.4-5.5 2.3-6.7 6-1.2 4.1-0.5 5.2-4.8 7.2-3.6 1.8-6.7 4.8-8.3 8.6-1.5 3.7-1.2 8.2 1 11.6 0.6 0.9 1.3 1.8 1.3 2.8-0.1 2.3-3.3 2.8-4.6 4.6-2.1 2.2 0.7 5.9 1.6 7.9 1.6 3.4 1.5 6.3 1.4 10.1-2.5-0.1-4.4-2.2-5.6-4.3-1.3-2.1-2.4-4.5-4.4-5.8-1.9-1.2-4.4-1.5-5.7-3.3-2.3-3.2 1.5-7.9 0.1-11.6-1.3-3.5-6-3.8-9-6-2.4-1.7-3.6-4.7-3.9-7.6-0.5-4.4 1.3-8.1 1.5-12.3 0.1-4.7 0.7-9.9 4.2-13.1 1.7-1.7 4.1-2.7 6-4.1 1.1-0.8 2-1.6 2.6-2.8z"/>
						<path id="&lt;Path&gt;" class="s3" d="m215.6 227.4c0.7 2.1 2.2 1.5 3.2 3.1-0.4 1.3-2.6 1.2-3 2.5-0.2 0.5 0 1 0 1.4-0.1 2-2.5 3.1-4.5 3-2-0.2-4-0.9-6-0.4-2 0.5-3.6 2.4-5.7 2.7-2.6 0.5-5-1.6-7.7-1.9-2.7-0.4-5.3 1.2-7.3 3.1-2 1.9-3.5 4.2-5.6 6.1-1.3 1.1-2.9 2-4.6 2.1-1.8 0-3.6-1.2-3.8-2.9-0.4-2.7 2.8-4.4 3.8-6.9 1.6-3.8-2.5-7.9-2.3-12.1 0.2-6.2 9-8.8 10.6-14.8 0.5-1.5 0.4-3.1 0.8-4.5 1.1-3.6 5.5-5.8 9-4.5 2.8 1.1 5.1 4 8.1 3.7 0.6-0.1 1.3-0.3 1.9-0.1 0.5 0.2 0.7 0.6 1 1 1.6 2.7 2.6 6.3 5.6 6.9 1.4 0.3 2.9-0.2 4.3 0.3 2.5 0.8 2.8 4.2 2.3 6.8-0.2 1.7-0.7 3.8-0.1 5.4z"/>
					</g>
				</g>
			</g>
			<g id="&lt;Group&gt;">
				<g id="&lt;Group&gt;">
					<g id="&lt;Group&gt;">
						<path id="&lt;Path&gt;" class="s0" d="m462.7 261.3c-2.4 5.2-6.3 9.6-9.4 14.3-3.1 4.7-4.2 8.9-5.1 14.2-0.5 3.9-1.9 6.9-6.6 7.6-8.8 1.3-6.3-6-8.3-11.3-2.3-6.1-7.2-10.9-10.6-16.3-9.9-15.6-7-46.5 13.5-53.1 22.4-7.2 33.8 28.8 26.5 44.6z"/>
					</g>
				</g>
				<g id="&lt;Group&gt;">
					<path id="&lt;Path&gt;" class="s3" d="m427 246.2c-2.5 0.1-5.3 0.3-7.2 2-1.9 1.7-1.7 5.4 0.8 5.8 2.2 0.4 5.2-1.9 6.6-0.2 0.8 1 0 2.4-0.6 3.6-2.3 4.5-3 9.8-1.9 14.6-0.9 0.8-2.4-0.1-3.2-1-4.1-4.4-7.2-9.6-9.3-15.2-0.8 1.3-2 2.5-3.4 3.3 0.8-2.1 0.3-4.4-0.2-6.6-1.9-7.9-3.2-17.1 2.3-23.6 2.9-3.5 7.4-5.4 11.9-6.3 4.6-0.8 9.2-0.6 13.7-0.4 2 0.1 4.4 0.5 4.8 2.3-4.2 1.7-8.7 5.1-10.8 9.1-0.7 1.2-3.2 12.6-3.5 12.6z"/>
				</g>
				<g id="&lt;Group&gt;">
					<path id="&lt;Path&gt;" class="s3" d="m436 227.2q-0.2 0.2-0.4 0.3c-2 1.5-3.8 3.3-6.1 4-3.4 0.9-7-0.7-10.3 0.4-3.8 1.3-6.2 5.8-8.9 8.4-4.5 4.3-10 7.5-15.9 9.3-3 0.9-6.2 1.5-9.3 1.6-1.4 0.1-3.4 0.4-4.8 0-1.8-0.5-1.8-1.3 0.2-2 6.3-2 8.2-10.8 7.8-16.6-0.4-4.6-2-9.4-0.2-13.7 1.3-3.2 4.2-4.9 7-6.8 3-2 6.4-1.5 9.8-2.5 3.7-1 6.6-3.8 10.3-4.6 3.9-0.7 7.9 1 11.8 1.7 3.2 0.7 6.6 0.6 9.8-0.1 2.9-0.6 5.7-1.8 8.6-1.7 4.4 0 8.4 2.7 10.9 6.2 3.6 5 6 13.6 4.7 20.2 0.2-1-3.3-4.7-4-5.5-1.5-1.7-3.3-3.3-5.5-3.6-5.2-0.6-11.3 2-15.5 5z"/>
				</g>
			</g>
			<g id="&lt;Group&gt;">
				<g id="&lt;Group&gt;">
					<path id="&lt;Path&gt;" class="s0" d="m1032.7 398.1c0.9 1.5 1.9 2.9 1.9 4.7-0.1 1.2-0.5 1.8-1.1 2.9-2.4 4.1-4.7 9.1-9.9 10.1-2.6 0.6-6.2 0.6-8.8 0.2-2.7-0.5-4.9-2.4-7.7-2.3-4.4 0.2-8.4 2.9-13.2 3.1-17.2 0.9-34.4 1.5-51.6 0.5-1.3-0.1-2.7-0.2-3.9-0.8-1.1-0.6-1.9-1.6-2.7-2.5-6.4-7.9-12.3-16.2-17.6-24.9-5.6-9.2-17.8-22.7-12.5-34.1 2.1-4.6 6.6-8 11.6-8.8 6.6-1.2 13.4 2.2 18 7.2 4.5 5 7 11.4 9 17.9 2.1 7.2 3.6 14.7 4.4 22.2 0.2 1.6 0.4 3.4 1.7 4.4 0.7 0.6 1.7 0.7 2.6 0.9 15.7 2.5 31.7 4.6 47.6 2.3 4-0.6 8.8-2.2 11.3-4.7 1.8-1.7 3.6-4 4.4-4.8 2.3-2.1 3.5 1.5 5 1.8 3.3 0.8 5.8-0.1 8.7 1.6 0.3 0.1 0.6 0.4 0.9 0.7q1 1.1 1.9 2.4z"/>
				</g>
				<g id="&lt;Group&gt;">
					<path id="&lt;Path&gt;" class="s1" d="m894.5 363c-6.3-16.3-9.6-34-8.4-51.4 1.5-23.1 30.1-30 43.2-11.8 6.2 8.4 8.3 19.1 10.4 29.4 1.8 9.2 3.1 18.6 4.7 27.9 1.4 8.1 1.5 27.8 7.6 33.1 2.8 2.5 6.8 3 10.6 3.5 11.7 1.6 23.3 4 34.6 7.1 1 0.3 2 0.6 2.6 1.3 0.7 0.8 0.7 2 0.7 3q0 5.3 0 10.6c0 3.1-0.2 6.5-2.6 8.4-1.3 1-3.1 1.3-4.9 1.6-18.4 2.4-37.3 1.4-55.4-3-2.9-0.7-5.8-1.5-8.3-3.2-3.9-2.7-6.1-7.2-8.4-11.4-3.3-6.3-7.2-12.1-11.1-17.9-5.7-8.7-11.4-17.3-15.3-27.2z"/>
				</g>
			</g>
			<g id="&lt;Group&gt;">
				<g id="&lt;Group&gt;">
					<path id="&lt;Path&gt;" class="s0" d="m576.2 285.3c0.4 0.1 0.8 0.1 1.1 0.2 3.1 1.1 4 3.6 6.6 5.5 1.2 0.8 4.6-0.5 4.5 2.5-0.1 1.1-0.6 3.9-0.8 6.2-0.2 3.5 1.6 8 3.7 11.4 8.2 13 19.7 23.5 31.5 33.6 0.7 0.5 1.4 1.1 2.2 1.3 1.6 0.4 3.1-0.6 4.4-1.5 6-4.1 12.4-7.7 19.1-10.6 6-2.7 12.3-4.8 18.8-4.6 6.6 0.1 13.3 3.1 16.6 8.7 2.5 4.2 2.8 9.6 0.8 14.1-5.1 11-22.7 10.5-33 12.1-9.7 1.6-19.5 2.5-29.3 2.7-1.2 0-2.5 0-3.6-0.5-1.2-0.5-2.1-1.4-3-2.4-11.5-12-21.9-25-32.1-38.3-2.7-3.6-3.3-8.2-5.9-11.6-1.6-2.1-4.5-2.6-6.5-4.3-2-1.6-4.2-4.3-5.4-6.6-2.5-4.4-0.3-9.2 1.2-13.6 0.4-1.1 0.7-1.8 1.5-2.6 1.3-1.2 3-1.3 4.6-1.5q1.5-0.2 3-0.2z"/>
				</g>
				<g id="&lt;Group&gt;">
					<path id="&lt;Path&gt;" class="s4" d="m656.2 372.2c-8.4 1-16.9 1.2-25.2 0.5-3-0.2-6-0.6-8.7-1.7-4.3-1.7-7.6-5.2-10.8-8.5-11.4-12-22.9-24.2-31.7-38.2q6.1-3.7 12.3-7.4c0.8-0.5 1.7-1 2.6-0.9 1.2 0 2.1 0.9 3 1.7q10.8 10.6 21.7 21.3c1.1 1.1 2.4 2.2 3.9 2.5 1.2 0.2 2.4 0 3.5-0.4 19.9-5.7 37.7-20.3 55.5-30.3 8.9-5 18.1-10.1 28.2-10.9 21.6-1.7 34.5 23.7 18.4 39.3-19 18.5-45.8 29.9-72.7 33z"/>
				</g>
			</g>
			<g id="&lt;Group&gt;">
				<g id="&lt;Group&gt;">
					<g id="&lt;Group&gt;">
						<g id="&lt;Group&gt;">
							<g id="&lt;Group&gt;">
								<g id="&lt;Group&gt;">
									<path id="&lt;Path&gt;" class="s0" d="m681.5 684.6l0.3 24.6-14.6 0.2-0.3-27.3z"/>
								</g>
							</g>
							<g id="&lt;Group&gt;">
								<g id="&lt;Group&gt;">
									<path id="&lt;Path&gt;" class="s3" d="m668.5 705.5l12.7 4.2 3.8 4.1-0.7 9.6-34.2 2.7c-2.9-4.2-1-10 3.8-11.6l1.6-0.6z"/>
								</g>
							</g>
						</g>
					</g>
					<g id="&lt;Group&gt;">
						<g id="&lt;Group&gt;">
							<g id="&lt;Group&gt;">
								<g id="&lt;Group&gt;">
									<g id="&lt;Group&gt;">
										<g id="&lt;Group&gt;">
											<path id="&lt;Path&gt;" class="s0" d="m786.5 661l9.6 22.6-13.4 5.7-10.7-25z"/>
										</g>
									</g>
									<g id="&lt;Group&gt;">
										<g id="&lt;Group&gt;">
											<path id="&lt;Path&gt;" class="s3" d="m783 689.8q0.7-0.8 1.7-1.6c1.6-1.1 14.6-8 15.7-4.9 0.2 0.5 0.1 1 0 1.6-1 8.9-3.1 17.7-6.2 26.2-1.3 3.6-3.3 7.6-7 8.5-1.7 0.4-3.4 0.1-5-0.3q-3.7-0.8-7.2-2.1c-0.8-0.4-1.7-0.8-2.2-1.6-0.8-1.6 0.7-3.4 2.3-4.3 1.6-0.9 3.6-1.5 4.3-3.1 0.4-0.8 0.4-1.6 0.5-2.4 0.3-6.1-0.7-11.9 3.1-16z"/>
										</g>
									</g>
								</g>
							</g>
							<g id="&lt;Group&gt;">
								<path id="&lt;Path&gt;" class="s5" d="m747.6 437.2c1.9 0.4 3.9 0.9 5.4 2.2 3.4 2.9 3.1 8.1 2.6 12.5-1.6 13.1-1.7 26.5-3.4 39.6-1.4 10.5-4.1 20.5-3.9 31.3 0.3 21.8 6.7 43.2 14.5 63.4 11.3 29 25.9 57.2 31.2 87.9q-9.5 4-19 7.9c-14.6-20-30.3-39.3-47-57.7-14.6-16.1-28.3-31.8-33.1-53.7-9.1-41.5-19.2-147.3 52.7-133.4z"/>
							</g>
						</g>
					</g>
					<path id="&lt;Path&gt;" class="s5" d="m734.4 515.8c-14.5 13-27.1 4.1-35.8 26.4-8 20.3-10.2 42.5-10.6 64.2-0.6 31.1 2.2 62.7-4.6 93.2q-10.2 0-20.5 0.1c-5.9-24.1-13.2-48-21.6-71.3-7.4-20.4-14.1-40.1-10.3-62.2 6.7-37.9 22.1-71.5 22.4-111 0.1-21.4 12.5-25.7 32.2-29.7 20.3-4.1 43.4-6.4 63.9-5.3 2.4 9.7 4.1 22.5 4 35.8-0.1 22.9-5.1 47.2-19.1 59.8z"/>
				</g>
				<g id="&lt;Group&gt;">
					<path id="&lt;Path&gt;" class="s4" d="m730.3 304.1c2.2 1.8 4.2 3.9 6.2 6q2.6 2.8 5.3 5.6c6 6.5 9.1 16.1 11.7 24.4 13.7 43.7 18.6 103.6 9.7 149.2-33.8 2.9-73-5.6-106.7-10.2-3.3-0.5-7-1.2-8.7-4.1-1-1.7-1.1-3.8-1.1-5.8 0-29 6.2-60.1 11.9-88.6 2.4-12.1 5.4-24 9.2-35.7 4.1-12.4 8.6-25.7 18.1-35.1 10.2-10 29.6-14.9 42.3-7.1q1.1 0.6 2.1 1.4z"/>
				</g>
				<g id="&lt;Group&gt;">
					<g id="&lt;Group&gt;">
						<g id="&lt;Group&gt;">
							<path id="&lt;Path&gt;" class="s0" d="m723.3 316.9q-6.2 4.2-12.4 8.3c-1.2-5.1-3.1-11.9-2.4-17.1 0.4-3.4 3-6.2 3.3-9.5 0.2-2.2-0.1-1.8-1.7-3.7-2.2-2.7-3.7-5.9-4.9-9.3-6.7-19.5-8.4-66.5 25.7-56.7 37.6 10.8 14 59.2-0.1 68.2q-1.1 0.7-2.4 1.3c-0.5 3.4-0.3 8-1.2 11.9-0.6 2.8-1.7 5.2-3.9 6.6z"/>
						</g>
					</g>
					<g id="&lt;Group&gt;">
						<g id="&lt;Group&gt;">
							<g id="&lt;Group&gt;">
								<g id="&lt;Group&gt;">
									<path id="&lt;Path&gt;" class="s3" d="m707.9 247.6c0.8 0.1 1.7 0.4 2.1 1.1 0.5 0.7 0.2 1.7 0 2.6-2.9 11.1-4.3 22.7-4.1 34.3-3.7-5.5-6.6-11.5-8.7-17.7-3.6-10.9-3.7-23.5 10.7-20.3z"/>
								</g>
							</g>
						</g>
						<g id="&lt;Group&gt;">
							<g id="&lt;Group&gt;">
								<g id="&lt;Group&gt;">
									<g id="&lt;Group&gt;">
										<path id="&lt;Path&gt;" class="s3" d="m744.4 258.6c0.8-6.6-2.8-14.7-1.6-20.6 3.4-16.6 20.4-6.6 23.1 6.8 3.2 16.1-5.4 33.7-20 41.1-3.6 1.8-8.6 2.7-10.9-0.6 3.8-8.4 8.2-17.4 9.4-26.7z"/>
									</g>
								</g>
							</g>
							<g id="&lt;Group&gt;">
								<g id="&lt;Group&gt;">
									<g id="&lt;Group&gt;">
										<path id="&lt;Path&gt;" class="s3" d="m712.6 212.6c13.7-1.2 28.9 2.6 32.6 17.6 3.2 12.9-11.2 18.9-20.9 22.4-5.8 2.1-12 3.3-17.7 5.7-6.5 2.6-11.4 8.5-18.6 3.9-6.5-4.3-7.1-13.5-10-20-4.3-9.6-13.7-23.3-2.3-32.6-1.7 1.4 5.5 8.2 6.6 8.8 3.7 2.1 6.4 1.6 10 0.2 1.7-0.7 3.4-1.4 5-2 4.9-1.9 9.4-3.5 15.3-4z"/>
									</g>
								</g>
							</g>
						</g>
					</g>
				</g>
			</g>
			<path id="&lt;Path&gt;" class="s5" d="m707.2 334.6c0.7-2.6 1.1-6.1-1.3-7.3 0-5.5 1.5-6.7 6.5-6.4 0.6 0 8.9 0.4 8.9 0.1 0.2 1.7 0.3 3.5-0.4 5.1-0.8 1.6-2.7 2.8-4.3 2.1-5.3 35.8-6 72.4-2.1 108.4 0.5 4.1 1 8.3 0 12.3-0.9 4-3.5 7.9-7.5 9.1-2.1-1.8-4.6-3.3-7.2-4.4-1.8-0.7-4.2-0.9-5.1-2.8-1-1.8-0.2-5.1-0.1-7q0.3-4.6 0.6-9.2c0.9-15.6 1.9-31.2 4.6-46.6 1-5.4 2.2-10.8 3-16.3 1.4-9.9 1.4-20 2.9-29.9q0.6-3.7 1.5-7.2z"/>
			<g id="&lt;Group&gt;">
				<g id="&lt;Group&gt;">
					<g id="&lt;Group&gt;">
						<g id="&lt;Group&gt;">
							<g id="&lt;Group&gt;">
								<path id="&lt;Path&gt;" class="s0" d="m485.6 667.8c-2.2-16.8-6.1-33.5-11.5-49.6q11.6-0.6 23.2-1.2c1.2 30.2 4.1 61.6 2.5 91.7-3 0.3-6 1-9.1 0.8-0.4 0-4.8-39-5.1-41.7z"/>
							</g>
							<g id="&lt;Group&gt;">
								<path id="&lt;Path&gt;" class="s3" d="m500.7 702.9c1.9-0.4 3.1 0.5 4.3 1.6 0.8 0.7 1.3 1.6 2.2 2.1 0.8 0.5 1.7 0.6 2.8 0.7 5.5 0.6 18.4 0.3 11.5 9.7-6.2 8.4-22.6 5-32.2 2.7-0.6-0.1-1.3-0.2-1.7-0.7-0.5-0.5-0.8-1.2-1-1.9-1.1-4-2.5-8.9 2.3-10.6 2.1-0.7 4.1 0.7 6.3-0.1 1.8-0.6 3.6-3.2 5.5-3.5z"/>
							</g>
						</g>
					</g>
					<path id="&lt;Path&gt;" class="s5" d="m514.6 635.1q-23.6-0.5-47.2-0.9c-12.7-60.6-24-121.5-33.6-182.7-0.8-4.7-1.5-9.7-0.1-14.3 2.5-8.7 11.9-13.6 20.8-15.3 13.9-2.6 39.3 1 46.5 15.4 7.5 15.3 6.2 42.5 8 59.3 5 46 6.9 92.3 5.6 138.5z"/>
				</g>
				<g id="&lt;Group&gt;">
					<g id="&lt;Group&gt;">
						<g id="&lt;Group&gt;">
							<g id="&lt;Group&gt;">
								<path id="&lt;Path&gt;" class="s0" d="m400.7 709.5c-3.1 0.2-6-0.5-9.1-0.8-1.5-30.1 1.3-61.5 2.6-91.7q11.5 0.6 23.1 1.2c-5.4 16.1-9.2 32.8-11.4 49.6-0.4 2.7-4.7 41.7-5.2 41.7z"/>
							</g>
							<g id="&lt;Group&gt;">
								<path id="&lt;Path&gt;" class="s3" d="m396.3 706.4c2.2 0.8 4.1-0.6 6.2 0.1 4.9 1.7 3.4 6.6 2.3 10.6-0.2 0.7-0.5 1.4-0.9 1.9-0.5 0.5-1.2 0.6-1.8 0.7-9.5 2.3-26 5.7-32.2-2.7-6.8-9.4 6-9.1 11.6-9.7 1-0.1 1.9-0.2 2.8-0.7 0.9-0.5 1.4-1.4 2.1-2.1 1.3-1.1 2.4-2 4.3-1.6 1.9 0.3 3.8 2.9 5.6 3.5z"/>
							</g>
						</g>
					</g>
					<path id="&lt;Path&gt;" class="s5" d="m382.4 496.6c1.8-16.8 0.6-44 8.1-59.3 7.1-14.4 32.6-18 46.5-15.4 8.9 1.7 18.2 6.6 20.8 15.3 1.4 4.6 0.6 9.6-0.1 14.3-9.7 61.2-20.9 122.1-33.6 182.7q-23.6 0.4-47.2 0.9c-1.3-46.2 0.5-92.5 5.5-138.5z"/>
				</g>
			</g>
			<g id="&lt;Group&gt;">
				<g id="&lt;Group&gt;">
					<path id="&lt;Path&gt;" class="s0" d="m524.6 204.6c1.2-0.9 2.4-1.8 3.9-1.8 0.9 0 1.5 0.3 2.4 0.7 3.5 1.9 7.7 3.5 8.8 7.7 0.5 2.2 0.7 5.1 0.5 7.3-0.3 2.3-1.8 4.2-1.6 6.5 0.4 3.7 2.8 6.9 3.2 10.8 1.5 14.2 2.7 28.3 2.6 42.6 0 1.1 0 2.2-0.5 3.2-0.4 1-1.2 1.7-1.9 2.4-6.2 5.7-12.9 10.9-19.8 15.6-7.3 5-18 15.8-27.6 11.9-3.9-1.6-6.9-5.1-7.8-9.2-1.3-5.5 1.2-11.3 5.1-15.2 3.9-4 9.2-6.4 14.4-8.2 5.9-2.1 12-3.7 18.2-4.7 1.3-0.2 2.8-0.5 3.6-1.6 0.4-0.6 0.5-1.4 0.6-2.1 1.4-13.2 2.4-26.5-0.2-39.5-0.7-3.3-2.2-7.1-4.4-9.1-1.5-1.4-3.4-2.8-4.1-3.4-1.9-1.8 1.1-3 1.3-4.3 0.5-2.7-0.4-4.7 0.9-7.2 0.1-0.3 0.3-0.5 0.5-0.8q0.9-0.9 1.9-1.6z"/>
				</g>
				<g id="&lt;Group&gt;">
					<path id="&lt;Path&gt;" class="s6" d="m513.6 313.9c-9.4 5-21.8 13.3-32.9 13.3-5.3 1.2-14 3.9-19 1.3-5.1-2.7-8.2-12.2-9.4-17.3-1.4-6.5-1.4-13.3-1.4-19.9 0-1.5 0-3 0.7-4.3 1.1-2.3 3.8-3.4 6.3-4.1 13.1-4 26.7-6.1 40.3-6.2 8-0.1 14.2-0.3 21.7-3.7 2.4-1.1 5-2.3 6.3-4.6 1.3-2 1.4-4.6 1.4-6.9q0.3-12 0.5-23.9 8.1-0.6 16.1-1.2c1.6 16.7 1.9 33.6 1.1 50.4-0.1 1.2-0.2 2.5-0.7 3.6-0.6 1.2-1.7 2.1-2.8 3-6 4.9-11.8 9.7-17.9 14.1-3.3 2.3-6.7 4.5-10.3 6.4z"/>
				</g>
			</g>
			<g id="&lt;Group&gt;">
				<path id="&lt;Path&gt;" class="s6" d="m417.5 302.4c3.4-4.4 6.5-8 12.1-9.9q0.3-0.1 0.6-0.2c0.6-0.2 1.3-0.4 1.8-0.8 0.8-0.7 0.8-2 0.7-3-0.2-1.1-0.5-2.2-0.3-3.2q8.6-0.7 17.3-1.3c0.3 0 0.6-0.1 0.9 0.1 0.9 0.4 0.4 2 1.1 2.8q6.2 1.1 12.2 2.8c1.5 0.5 2.5 2.4 3.6 3.5 1.4 1.5 2.7 3.2 3.9 5 2.3 3.3 4.1 6.9 6 10.5 4.8 9.7 9.6 19.5 12.1 29.9 4.3 17.5 7 36.7 9.9 54.4 2.8 17.2 6.7 31.4 12.3 48.1-12.7 3-25.9 0.9-38.7 5.6-8.9 3.3-16.7 8.5-25.1 12.6-17.7 8.7-38 12.7-57.6 15.1-10.5 1.3-11.3-0.8-11.3-10.5q0-14.8 0.1-29.6c0.1-29.6 0.3-59.8 10.3-88.1 4-11 9.6-21.5 16.7-30.9 3.4-4.5 7.7-8.2 11.1-12.5q0.1-0.2 0.3-0.4z"/>
			</g>
			<g id="&lt;Group&gt;">
				<g id="&lt;Group&gt;">
					<g id="&lt;Group&gt;">
						<path id="&lt;Path&gt;" class="s5" d="m609.3 107.5l0.2 83.6c0 14.1-11.2 25.6-25.2 25.6l-193.6 0.5c-13.9 0.1-25.3-11.3-25.3-25.4l-0.2-83.7c0-14.1 11.2-25.5 25.1-25.6l193.7-0.5c13.9 0 25.2 11.4 25.3 25.5z"/>
						<g id="&lt;Group&gt;" style="opacity: .1">
							<path id="&lt;Path&gt;" class="s7" d="m609.3 108.3l0.2 82c0 14.6-11.6 26.4-25.9 26.4l-96.2 0.3-0.3-134.7 96.1-0.3c14.4 0 26 11.7 26.1 26.3z"/>
						</g>
						<g id="&lt;Group&gt;">
							<path id="&lt;Path&gt;" class="s5" d="m598.8 109.6l0.2 79.5c0 10.3-8.2 18.7-18.4 18.8l-186.2 0.5c-10.2 0-18.5-8.4-18.5-18.7l-0.2-79.5c-0.1-10.4 8.2-18.8 18.4-18.8l186.2-0.5c10.2 0 18.5 8.3 18.5 18.7z"/>
						</g>
						<path id="&lt;Path&gt;" class="s8" d="m598.8 109.6l0.2 79.5c0 10.3-8.2 18.7-18.4 18.8l-93.1 0.2-0.3-117 93.1-0.2c10.2 0 18.5 8.3 18.5 18.7z"/>
					</g>
					<g id="&lt;Group&gt;">
						<path id="&lt;Compound Path&gt;" fill-rule="evenodd" class="s4" d="m477.3 169.7q0.1 7.3-5 12.3-5 5.1-12.1 5.1h-0.9q-7.2 0.1-12.2-5-5-5.2-5-12.3v-6.6q-0.1-6.7 4.3-11.8 1.9-2.1 4.5-3.5-4.4-2.3-6.8-7.6-1.2-2.7-1.3-6.8v-4q0-7.1 4.1-11.8 4.6-5.2 12.2-5.2h0.9q7.6-0.1 12.2 5.2 4.2 4.7 4.2 11.7v4q0 6.8-4 11.3-1.8 2-4 3.1 4.9 2.8 7.5 8.3 1.4 2.9 1.4 7zm-10.6-37.3q-0.1-7.5-4.7-9.4-1-0.4-2.4-0.4-2.9 0-4.6 1.5-1.5 1.3-2.1 3.3-0.6 2-0.4 5 0.2 4.8 1.5 6.9 1.7 2.8 5.6 2.8 3.9-0.1 5.7-3 1.5-2.5 1.4-6.7zm-0.2 32.1q-0.1-6.5-3-8.7-1.4-1.1-3.9-1.1-4.3 0.1-5.8 3.8-0.9 2.3-0.9 6v3.5q0 3.6 2.2 5.8 1.8 1.9 4.6 2 4.4-0.2 6.1-4.4 0.7-1.4 0.7-3.4z"/>
						<path id="&lt;Compound Path&gt;" fill-rule="evenodd" class="s4" d="m432.2 169.6q0 7.3-5.1 12.3-5 5.1-12.1 5.1-7.2 0.1-12.2-5-5-5.1-5-12.3l-0.1-39.8q-0.1-7.3 5-12.4 5-5.1 12.1-5.1 7.2 0 12.2 5.1 5 5.1 5.1 12.3zm-11.4-40q0-2.6-1.9-4.5-1.8-1.9-4.4-1.9-2.6 0.1-4.4 1.9-1.8 1.9-1.8 4.5l0.1 39.9q0 2.6 1.9 4.5 1.8 1.8 4.4 1.8 2.5 0 4.4-1.9 1.8-1.8 1.8-4.5z"/>
						<path id="&lt;Compound Path&gt;" fill-rule="evenodd" class="s4" d="m533.4 169.4q0 7.3-5.1 12.4-5 5.1-12.1 5.1-7.1 0-12.2-5.1-5-5.1-5-12.3l-0.1-39.8q-0.1-7.3 5-12.4 5-5.1 12.1-5.1 7.2 0 12.2 5.1 5 5.1 5.1 12.3zm-11.4-40q0-2.6-1.8-4.5-1.9-1.8-4.5-1.8-2.6 0-4.4 1.9-1.8 1.8-1.8 4.4l0.1 39.9q0.1 2.6 1.9 4.5 1.8 1.8 4.4 1.8 2.5 0 4.4-1.8 1.8-1.9 1.8-4.5z"/>
						<path id="&lt;Compound Path&gt;" fill-rule="evenodd" class="s4" d="m577.1 169.3q0 7.3-5 12.4-5 5-12.1 5.1-7.2 0-12.2-5.1-5.1-5.1-5.1-12.3l-0.1-39.8q0-7.3 5-12.4 5.1-5.1 12.2-5.1 7.2 0 12.2 5.1 5 5.1 5 12.3zm-11.3-40q0-2.6-1.9-4.5-1.8-1.8-4.4-1.8-2.6 0-4.4 1.8-1.8 1.9-1.8 4.5l0.1 39.9q0 2.6 1.8 4.5 1.8 1.8 4.4 1.8 2.6 0 4.4-1.8 1.9-1.9 1.9-4.5z"/>
					</g>
					<g id="&lt;Group&gt;">
						<path id="&lt;Compound Path&gt;" class="s4" d="m482.9 132.5h8.8l0.1 9h-8.9zm0 25.4h8.9l0.1 8.9-8.9 0.1z"/>
					</g>
				</g>
			</g>
			<g id="&lt;Group&gt;">
				<g id="&lt;Group&gt;">
					<g id="&lt;Group&gt;">
						<path id="&lt;Path&gt;" class="s1" d="m752.5 453.2c34.8 95.2-14.2 200.6-109.4 235.5-95.3 34.8-200.7-14.2-235.5-109.4-34.9-95.2 14.1-200.7 109.3-235.5 95.3-34.8 200.7 14.1 235.6 109.4z"/>
					</g>
					<g id="&lt;Group&gt;">
						<path id="&lt;Path&gt;" class="s4" d="m729.5 461.6c30.2 82.5-12.3 173.9-94.8 204.1-82.6 30.2-174-12.3-204.1-94.8-30.2-82.6 12.2-173.9 94.8-204.1 82.5-30.2 173.9 12.2 204.1 94.8z"/>
					</g>
					<g id="&lt;Group&gt;" style="opacity: .1;mix-blend-mode: multiply">
						<g id="&lt;Group&gt;">
							<path id="&lt;Path&gt;" class="s9" d="m729.8 462.5c30.2 82.6-12.2 174-94.8 204.1-45.7 16.8-94.1 11.2-133.4-11.1 36 15.4 77.8 17.7 117.5 3.2 82.5-30.2 125-121.6 94.8-204.1-13.5-36.8-39.1-65.6-70.7-83.6 38.8 16.7 71 48.7 86.6 91.5z"/>
						</g>
					</g>
					<g id="&lt;Group&gt;">
						<g id="&lt;Group&gt;">
							<path id="&lt;Path&gt;" class="s1" d="m571.3 516.2l145.3-46.4c1.6-0.5 3.3 0.4 3.8 2l1.9 6c0.6 1.6-0.3 3.3-1.9 3.8l-145.3 46.3c-1.6 0.5-3.3-0.4-3.8-1.9l-1.9-6c-0.5-1.6 0.3-3.3 1.9-3.8z"/>
						</g>
						<g id="&lt;Group&gt;">
							<path id="&lt;Path&gt;" class="s3" d="m591.5 512c2.3 6.4-0.9 13.4-7.3 15.7-6.3 2.3-13.4-0.9-15.7-7.3-1.5-4.2-0.6-8.8 2.1-12l-26.8-73.4c-1.2-3.2 0.5-6.7 3.6-7.9 3.2-1.1 6.7 0.5 7.9 3.7l26.8 73.4c4.2 0.7 7.9 3.6 9.4 7.8z"/>
						</g>
					</g>
				</g>
			</g>
			<g id="&lt;Group&gt;">
				<g id="&lt;Group&gt;">
					<path id="&lt;Path&gt;" class="s5" d="m128.6 398.2l194.1-23c13-1.5 24.7 7.7 26.2 20.5l15.6 132c1.5 12.9-7.7 24.5-20.6 26.1l-194.1 22.9c-13 1.5-24.7-7.6-26.2-20.5l-15.6-132c-1.5-12.9 7.7-24.5 20.6-26z"/>
					<g id="&lt;Group&gt;">
						<path id="&lt;Path&gt;" class="s4" d="m278.2 470.9l-5.4-45.9c-0.4-3.5 2.1-6.6 5.6-7.1l46.2-5.4c3.5-0.4 6.7 2 7.1 5.5l5.4 45.9c0.4 3.5-2.1 6.6-5.6 7l-46.2 5.5c-3.5 0.4-6.7-2.1-7.1-5.5z"/>
						<path id="&lt;Path&gt;" class="s4" d="m286.8 540.3l-5.4-45.9c-0.4-3.5 2.1-6.6 5.6-7l46.2-5.5c3.5-0.4 6.7 2.1 7.1 5.5l5.4 46c0.4 3.4-2.1 6.6-5.6 7l-46.2 5.4c-3.5 0.4-6.7-2-7.1-5.5z"/>
						<path id="&lt;Path&gt;" class="s4" d="m206 479.4l-5.4-45.9c-0.4-3.5 2.1-6.6 5.5-7l46.3-5.5c3.5-0.4 6.6 2.1 7.1 5.5l5.4 46c0.4 3.4-2.1 6.6-5.6 7l-46.2 5.4c-3.5 0.5-6.7-2-7.1-5.5z"/>
						<path id="&lt;Path&gt;" class="s4" d="m214.6 548.9l-5.4-46c-0.4-3.4 2.1-6.6 5.5-7l46.3-5.5c3.5-0.4 6.6 2.1 7.1 5.6l5.4 45.9c0.4 3.5-2.1 6.6-5.6 7l-46.2 5.5c-3.5 0.4-6.7-2.1-7.1-5.5z"/>
						<path id="&lt;Path&gt;" class="s4" d="m133.8 488l-5.4-46c-0.4-3.4 2-6.6 5.5-7l46.3-5.4c3.5-0.5 6.6 2 7 5.5l5.5 45.9c0.4 3.5-2.1 6.6-5.6 7l-46.3 5.5c-3.4 0.4-6.6-2.1-7-5.5z"/>
						<path id="&lt;Path&gt;" class="s4" d="m142.4 557.4l-5.4-45.9c-0.4-3.5 2-6.6 5.5-7l46.3-5.5c3.5-0.4 6.6 2 7 5.5l5.5 45.9c0.4 3.5-2.1 6.6-5.6 7l-46.3 5.5c-3.4 0.4-6.6-2-7-5.5z"/>
					</g>
					<g id="&lt;Group&gt;">
						<path id="&lt;Path&gt;" class="s6" d="m294.7 359.3l6.8-0.8c3.7-0.5 7 2.1 7.4 5.8l3 24.8c0.4 3.7-2.2 7-5.9 7.4l-6.8 0.8c-3.6 0.5-7-2.2-7.4-5.8l-3-24.8c-0.4-3.7 2.3-7 5.9-7.4z"/>
						<path id="&lt;Path&gt;" class="s6" d="m143.6 377.1l6.8-0.8c3.7-0.4 7 2.2 7.4 5.9l3 24.8c0.4 3.6-2.2 7-5.9 7.4l-6.8 0.8c-3.7 0.4-7-2.2-7.4-5.8l-3-24.9c-0.4-3.6 2.2-6.9 5.9-7.4z"/>
					</g>
				</g>
			</g>
			<g id="&lt;Group&gt;">
				<g id="&lt;Group&gt;">
					<path id="&lt;Path&gt;" class="s0" d="m232.1 452.7c-0.2 1.5-0.4 3-1.5 4.2-0.6 0.7-1.3 0.9-2.3 1.2-3.9 1.3-8.2 3.2-12.2 1-2-1.1-4.3-3.1-5.8-4.9-1.4-1.9-1.8-4.4-3.7-5.9-3-2.4-7.1-2.9-10.3-5.4-11.7-9.2-23.2-18.6-33.8-29-0.8-0.9-1.7-1.7-2.1-2.8-0.4-1-0.4-2.1-0.3-3.2 0.3-8.7 1.2-17.5 2.7-26.1 1.6-9.1 5.7-23.8 11.2-29.3 3.1-3.1 8.8-1.4 12.5 0.9 5 3 7.6 9 7.7 14.9 0.1 5.8-2 11.4-4.4 16.7-2.7 6-6 11.6-9.7 17-0.8 1.1-1.7 2.4-1.4 3.8 0.2 0.8 0.7 1.4 1.2 2 8.8 10.6 18 21.1 29.6 28.5 2.9 2 6.9 3.6 10 3.5 2.1-0.2 4.6-0.6 5.6-0.7 2.7-0.1 1.4 3 2.2 4.1 1.7 2.3 3.8 3.2 4.8 5.9 0.1 0.3 0.1 0.6 0.1 1q0.1 1.3-0.1 2.6z"/>
				</g>
				<g id="&lt;Group&gt;">
					<path id="&lt;Path&gt;" class="s1" d="m163.6 367.5c1.1-2.5 2.4-4.9 3.7-7.2q3.4-6.1 6.9-12.3c2.7-4.7 5.4-9.5 8.4-14.1 3.3-4.8 6.9-9.5 10.9-13.7 2.3-2.4 4.7-4.7 7.7-6.1 3-1.3 6.7-1.4 9.4 0.5 2.6 1.8 3.7 5.2 3.7 8.3-0.1 3.1-1.1 6.1-2.1 9.1q-6.3 18-12.8 36c-3.1 8.4-6.2 16.9-10 25-1.7 3.4-5.5 7.9-6.3 11.5-0.7 3.1 4.2 7.8 6.2 10.4-5 4.1-9.7 8.7-13.9 13.8q-5.8-5-11.6-9.9c-3.4-2.8-6.1-4-6.3-8.6-0.4-9.8 0.5-19.8 2.3-29.5q0 0 0-0.1c0.9-4.5 2-8.9 3.8-13.1z"/>
				</g>
			</g>
			<g id="&lt;Group&gt;">
				<g id="&lt;Group&gt;">
					<path id="&lt;Path&gt;" class="s0" d="m430.8 432.7c-0.5 1.4-0.9 2.7-2.2 3.6-0.7 0.5-1.4 0.6-2.4 0.8-3.9 0.5-8.3 1.5-11.6-1.4-1.8-1.5-3-3.8-4.5-5.7-2.8-3.4-1.3-4.9-5.1-7.8-3.9-2.9-7.8-5.5-11.3-8.9-7.2-7.1-12.9-15.6-18.5-24-5.2-7.9-8.2-15.8-4.4-24.8 2.7-6.4 6-12.7 9.6-18.6 5.8-9.6 12.4-21.7 24.9-14.1 1.1 0.7 2.3 1.6 3 2.8 0.8 1.4 1 3 1.1 4.7 0.7 15.6-8 31.2-21.7 38.8 4.2 8.4 9.8 17.4 15.5 24.9 2.7 3.5 6.1 7 9.3 10.1 2.5 2.3 5.9 4.6 8.9 5.1 2 0.2 4.3 0.3 5.3 0.4 2.5 0.4 0.8 3.1 1.3 4.2 1.2 2.5 3 3.7 3.4 6.5 0.1 0.3 0 0.6 0 0.9q-0.2 1.3-0.6 2.5z"/>
				</g>
				<path id="&lt;Path&gt;" class="s6" d="m442.9 315.3c-2.5 8.3-8.3 15.1-14 21.6-1.5 1.7-27.6 29.6-27.2 29.9q-0.7-0.6-1.3-1.1c-0.7 4.5-5.5 8.1-5.1 12.7 0.1 1.7 0.9 3.2 1.7 4.7q5.9 10.6 11.8 21.2c0.5 0.8 1 1.7 0.9 2.7 0 0.9-0.5 1.6-1 2.4q-4.2 6.2-8.3 12.5c-12.3-9.5-24.1-20.5-30.3-34.8-3.6-8.2-4.9-17.5-3.4-26.4 1.6-8.8 7.2-15.1 10.5-23.1 7.5-17.8 20.1-33.9 36.1-44.7 15.8-10.7 34.8 4.6 29.6 22.4z"/>
			</g>
			<g id="&lt;Group&gt;">
				<g id="&lt;Group&gt;">
					<g id="&lt;Group&gt;">
						<path id="&lt;Path&gt;" class="s0" d="m724.5 475.1c-0.2-0.3-0.4-0.6-0.5-1-1.1-3.1 0.2-5.3 0-8.5 0-1.5-3.3-3.3-0.8-5.1 0.9-0.7 3.3-2 5.3-3.3 2.8-2 5.2-6.3 6.5-10 2.3-7.1 0.9-28.7 10.1-31.1 21.8-5.6 1.6 35.6 0.7 39.6-0.6 2.6 0.8 5.1 0.8 7.7 0 2.6-0.7 6-1.7 8.4-1.9 4.7-7 6-11.4 7.6-1 0.4-1.8 0.7-2.8 0.5-1.8-0.2-3-1.4-4.2-2.6q-1.1-1-2-2.2z"/>
					</g>
				</g>
				<path id="&lt;Path&gt;" class="s4" d="m746.4 320.2c0.8 1.1 1.6 2.7 2.8 4.6 6.5 9.6 9.4 24.5 11.6 35.7 4.9 24 4.5 49-1.4 72.8-0.2 0.9-0.5 1.8-1.2 2.3-0.8 0.5-1.8 0.3-2.6 0.1q-8.2-1.6-16.3-3.3c-1.1-0.2-2.4-0.5-3.3-1.3-1.7-1.5-1.5-4.2-1.2-6.5 2.2-15.1 2.4-30.4 0.6-45.5-0.8-7.2-4.5-15.9-4-23 0.4-6.3 4-13.1 4.5-20.1 0.3-4.1 0.8-10.3 3.7-13.6 3.9-4.3 5.3-4.3 6.8-2.2z"/>
			</g>
			<g id="&lt;Group&gt;">
				<g id="&lt;Group&gt;">
					<g id="&lt;Group&gt;">
						<path id="&lt;Path&gt;" class="s0" d="m935.8 619.6c-3.7 25.7-11 50.8-14.9 76.6-0.5 3.4 0.4 8.5-1.7 11.4-2.7 3.9-6.3 1.5-8-1.8-5.4-10.5-3.1-22.3-3.8-33.7-0.8-12.2-1.9-24.5-1.6-36.8l-0.7-44.4c24 2.4 34.5 1.7 30.7 28.7z"/>
					</g>
					<path id="&lt;Path&gt;" class="s3" d="m918.5 696.7l17.3 15.1-4.2 6.7-12.8-0.5-14.1-12.3 2.9-7.4z"/>
				</g>
				<g id="&lt;Group&gt;">
					<g id="&lt;Group&gt;">
						<path id="&lt;Path&gt;" class="s0" d="m873.6 591.3q0 0-8.1 43.7c-2.8 19.5-9.1 38.5-12 58-0.6 4.5-0.3 9.4-2.1 13.7-1.9 4.1-5.5 4.3-8.6 1.4-4.3-3.7-2.3-10.4-2.3-15.6 0.6-34.3-2.1-68-2.8-102.3 0-0.5 0-1 0.4-1.3 0.3-0.2 0.7-0.2 1-0.2 3.4 0.2 34.4 3.6 34.5 2.6z"/>
					</g>
					<path id="&lt;Path&gt;" class="s3" d="m851.4 701l13.5 18.6-5.6 5.7-12.4-3.5-10.9-15.2 4.4-6.5z"/>
				</g>
				<path id="&lt;Path&gt;" class="s1" d="m904.5 696l-2-85-16-92-13 113-18 69-18-1v-70l-27.2-133.5 3.2-12.7 65.5-11.2 53 8.2 9.8 33.7-3.3 95.5-10 87z"/>
			</g>
			<path id="&lt;Path&gt;" class="s1" d="m942.4 431.8c-1.2 21.5-1.2 43.3-2.8 64.5-0.1 1.2-0.2 2.5-1.1 3.2-0.8 0.6-2 0.6-3 0.5-14.9-2.1-30-5.9-45.2-7.3-25.7-2.5-51.1 6.5-77.1 5.2-4.2-0.2 1.3-87.1 1.3-95.2 0-29.2-6-61.6 8.8-88 4.3-7.7 11.9-20.1 20.3-23.9 7.8-3.5 19-4.1 27.5-6.1l0.2 2c4.7-1 9.5-1.5 14.4-1.4-0.4-5.4 6.8-2.8 10.4-1.9 15.2 3.7 21.1 2 32.6 16.1 21.3 26.2 10.1 48.5 15.5 77.8q0 0.5 0.1 0.9c1.5 17.6-1 36.1-1.9 53.6z"/>
			<g id="&lt;Group&gt;">
				<path id="&lt;Path&gt;" class="s10" d="m1003.9 138.4l17.3 75.7c4.6 19.7-5.7 39.2-23.6 47.1q-1.7 0.8-3.5 1.4c21.2-1.7 41 12.2 45.8 33.2l17.3 75.8-108.9 22.9-17.3-75.8c-4.5-19.7 5.8-39.1 23.6-47.1q1.7-0.8 3.5-1.4c-21.1 1.8-41-12.2-45.8-33.2l-17.3-75.7z"/>
				<path id="&lt;Path&gt;" class="s3" d="m1017.4 142.3l-133.1 28c-3.7 0.8-7.4-1.6-8.2-5.2-0.9-3.6 1.5-7.2 5.1-8l133.2-28c3.7-0.8 7.4 1.6 8.2 5.2 0.8 3.7-1.5 7.2-5.2 8z"/>
				<path id="&lt;Path&gt;" class="s3" d="m1070.7 375.5l-133.2 28c-3.7 0.8-7.3-1.5-8.2-5.2-0.8-3.6 1.5-7.2 5.2-8l133.2-28c3.7-0.7 7.3 1.6 8.2 5.2 0.8 3.7-1.5 7.3-5.2 8z"/>
				<g id="&lt;Group&gt;">
					<path id="&lt;Path&gt;" class="s11" d="m1037.5 302.4c-10.2-28.1-31.6-29-34.5-29.3-1.4 0-2.7-1-3-2.5-0.4-1.7 0.6-3.3 2.4-3.7q0.3-0.1 0.6-0.1 0 0 0 0 0 0 0.1 0 0.3 0 0.5 0.1 27.5 4 33.9 35.5z"/>
					<path id="&lt;Path&gt;" class="s11" d="m996 271.8c-1.3 0.3-2.7-0.6-3-1.9-0.3-1.3 0.6-2.6 1.9-2.9 1.3-0.3 2.7 0.6 3 1.9 0.3 1.3-0.6 2.6-1.9 2.9z"/>
				</g>
				<path id="&lt;Path&gt;" class="s4" d="m1012.2 203.4l2.7 12c2.2 9.4 0.5 18.9-4.7 26.9-5.2 8-13.2 13.6-22.7 15.5l-2.6 0.6c-4.2 2.5-6.5 7.8-5.3 12.8l10 43.8c1.4 6.1 7.5 10 13.7 8.7l-0.7 0.1c9.4-1.9 19.2-0.2 27.4 5 8.2 5.2 13.9 13.2 16 22.6l2.7 12-96.3 20.2-2.7-12c-2.2-9.3-0.5-18.9 4.7-26.9 5.2-8 13.2-13.5 22.7-15.5l-1.2 0.3c6.1-1.3 10-7.4 8.6-13.5l-10-43.8c-1.1-5-5.6-8.9-10.6-9.4l-1.9 0.4c-9.4 2-19.2 0.2-27.4-5-8.2-5.2-13.9-13.2-16-22.5l-2.7-12.1z"/>
			</g>
			<path id="&lt;Path&gt;" class="s4" d="m869.6 302.4c0.2-3.6-0.7-8 1.2-11.4 4.2-7.2 15.9-6.5 21-0.7 1.9 2 3.1 4.5 4.3 7 8 16.7 16.3 34.2 15.9 52.7-0.2 9.5-2.6 18.7-5 27.9-3.6 13.5-4.9 78.6-8.5 92.1-4.3-12.4-12.8-75.6-20.6-86.2-3.5-4.6-7.3-9.2-9.4-14.7-1.6-4.4-1.9-9.1-2.2-13.8-0.8-11.1-1.5-22.3 0.3-33.3 1.2-6.5 2.6-12.9 3-19.6z"/>
			<path id="&lt;Path&gt;" class="s3" d="m891.9 325.8c1.6 9.9 1.6 20 3 29.9 0.7 5.5 1.9 10.9 2.9 16.3 2.8 15.4 3.7 31 4.7 46.6q0.2 4.6 0.5 9.2c0.1 1.9 0.9 5.2 0 7-1 1.9-3.4 2.1-5.2 2.8-2.6 1.1-5 2.6-7.2 4.4-3.9-1.2-6.6-5.1-7.5-9.1-0.9-4-0.4-8.2 0-12.3 4-36 3.3-72.6-2-108.4-1.6 0.7-3.6-0.5-4.3-2.1-0.8-1.6-0.6-3.4-0.5-5.1 0 0.3 8.3-0.1 9-0.1 4.9-0.3 6.4 0.9 6.4 6.4-2.4 1.2-2 4.7-1.3 7.3q0.9 3.5 1.5 7.2z"/>
			<g id="&lt;Group&gt;">
				<g id="&lt;Group&gt;">
					<path id="&lt;Path&gt;" class="s0" d="m997.9 366.2c1.4 1.1 2.8 2.1 3.4 3.8 0.3 1.1 0.2 1.9-0.1 3-0.8 4.7-1.3 10.2-5.8 12.9-2.2 1.4-5.6 2.7-8.2 3.2-2.7 0.4-5.5-0.6-8.1 0.5-4 1.6-6.9 5.6-11.3 7.4-15.9 6.7-31.8 13.1-48.3 18-1.3 0.4-2.6 0.8-3.9 0.6-1.3-0.2-2.4-0.8-3.5-1.4-8.7-5.2-17.1-11-25-17.4-8.3-6.7-24.5-15.3-23.4-27.8 0.5-5 3.5-9.7 7.9-12.2 5.9-3.4 13.4-2.6 19.4 0.6 5.9 3.1 10.5 8.3 14.5 13.8 4.5 6 8.5 12.5 11.8 19.3 0.7 1.5 1.5 3.1 3.1 3.6 0.9 0.2 1.8 0.1 2.7-0.1 15.7-3 31.4-6.5 45.5-14 3.6-2 7.5-5.1 9.1-8.3 1.1-2.2 2-5 2.5-6 1.4-2.8 3.8 0.2 5.3 0 3.3-0.4 5.4-2.1 8.7-1.5 0.4 0 0.7 0.2 1.1 0.4q1.4 0.6 2.6 1.6z"/>
				</g>
				<g id="&lt;Group&gt;">
					<path id="&lt;Path&gt;" class="s1" d="m856 380.2c-11.4-13.1-20.6-28.6-25.4-45.4-6.5-22.2 18.1-38.4 36.6-25.8 8.7 5.9 14.4 15.1 19.8 24.1 4.8 8.1 9.2 16.4 13.9 24.6 4.1 7.2 10.9 25.7 18.5 28.6 3.5 1.3 7.4 0.5 11.1-0.3 11.5-2.5 23.2-4.2 35-5.2 1-0.1 2-0.1 2.9 0.4 0.9 0.5 1.3 1.6 1.6 2.6q1.8 5 3.7 9.9c1 2.9 2 6.2 0.4 8.7-0.9 1.5-2.5 2.4-4.1 3.2-16.5 8.6-34.6 14.1-53.1 16.1-3 0.3-6 0.6-8.9-0.2-4.6-1.2-8.2-4.6-11.7-7.8-5.4-4.8-11-8.9-16.6-13.1-8.4-6.2-16.6-12.3-23.7-20.4z"/>
				</g>
			</g>
			<g id="&lt;Group&gt;">
				<g id="&lt;Group&gt;">
					<path id="&lt;Path&gt;" class="s3" d="m889.9 221.2c-3.9-3.1-1.2-4.8 3.3-3.9 2.6 0.5 5 1.9 7.3 3.2 1.5 1 3.1 2 4.3 3.3 2 2.4 2.7 5.6 3 8.7 0.3 3.5 0.3 7.1 0 10.6-0.2 1.5-3.3 5.7-4.3 6.9-0.9 1.2 0.2-0.8-1-1.7-1.2-0.8-1.3-2.4-1.3-3.9-0.3-5.3-1.6-10.6-4.2-15.2-1.8-3.2-4.2-5.8-7.1-8z"/>
					<g id="&lt;Group&gt;">
						<path id="&lt;Path&gt;" class="s0" d="m866 275.4c-1.9-1.9-4.7-2.1-6.9-3.6-4-2.8-4.8-8.9-5.2-14.1q-0.5-6.9-1-13.8c-0.3-4.9-0.6-10.3 1.6-14.6 1.5-2.7 3.9-4.8 6.5-6.4 9.5-6 21.6-6.2 31.9-2 4.1 1.7 8.2 4.3 9.8 8.7 1 2.6 1 5.3 0.9 8.1q0 11.7-0.1 23.5c0 1.8-0.1 3.8-0.7 5.6-1.8 5.6-8.1 7.4-13.5 8.3-1 0.2-1 18.1-1.3 19.9-0.8 4.2-3.5 7.7-6 11.2q-6.1-6.2-12.9-11.6c-0.3-1.4-0.3-3.2-0.3-5 0-5.1 0.3-11-2.8-14.2z"/>
					</g>
					<path id="&lt;Compound Path&gt;" fill-rule="evenodd" class="s3" d="m904.9 265.7c-1 4.9-3.4 9.5-7.3 12.3-4.5 3.1-10.2 3.3-15.5 3.4q-4.4 0.1-8.8 0.2c-7.4 0.2-14.7-0.7-18.5-8.5-1.8-3.6-2.3-7.8-2.1-11.8 0.1-1.1 0.3-2.3 0.8-3.2 0.5-1 1.5-1.7 2.5-1.6 1.3 0.2 2.1 1.6 3 2.7 1.8 2.4 5.1 3.7 7.7 2.4 0.8-0.3 1.4-0.9 2.1-1.5q0.4-0.3 0.8-0.7c2.8-2.2 6.2-3.2 9.6-3.7 3-0.4 7.3-1.5 9.5 1q1.9 2.2 3.8 4.4c0.5 0.6 1.1 1.2 1.7 1.6 0.7 0.4 1.6 0.6 2.3 0.6 2 0 4.3-0.9 4.9-2.9 0.3-0.9 0.3-1.9 0.3-2.8 0-0.9 0.2-1.9 0.8-2.6 2.1-2.7 2.8 1.6 2.9 3 0.1 2.6 0 5.2-0.5 7.7zm-20.2 1.4c-2.3 1.5-4.7 1.6-7.3 0.8-1.4-0.4-1.9 1.8-0.6 2.2 3.1 0.9 6.2 0.8 9-1 1.2-0.8 0.1-2.8-1.1-2z"/>
					<path id="&lt;Path&gt;" class="s3" d="m909.5 215.6c0.2 0-2.2 6-2.5 6.5-1.7 2.9-2.2 2.1-5.1 1.4-5.9-1.6-13.2-0.8-19.2 0-6.6 0.9-13.2 2.8-18.8 6.3-3.6 2.2-6.6 5.4-8.6 9.1-1 1.8-1.7 3.8-2 5.9-0.5 2.1 0.7 7.2 0.7 9.4-4.7-6.8-7.4-17.5-6.3-25.7 1.1-8.6 5.9-15.2 13.4-19.6 8.7-5.2 17.5-4.5 27.1-3.7 1.1 0.1 13.7 0.8 13.7 1.7q0 1.7 0.1 3.4c1.8 0.3 3.8 0.1 5.6-0.5q-0.3 2.9-1.1 5.8 1.5 0 3 0z"/>
				</g>
			</g>
			<path id="&lt;Path&gt;" class="s12" d="m142.2 713.4q1.6-0.5 3.4-0.5l793-6.9c7.2-0.1 12.5 6.3 11 13.1l-1.5 6.6c-1.1 4.8-5.5 8.3-10.6 8.4l-486.5 12.8q-0.4 0-0.8 0l-305-12.5c-12.4-0.5-14.8-17.2-3-21z"/>
		</g>
	</g>
</svg>